<svg version="1.1" id="Layer_1" xmlns="http://www.w3.org/2000/svg" xmlns:xlink="http://www.w3.org/1999/xlink" x="0px" y="0px" width="100%" viewBox="0 0 768 1024" enable-background="new 0 0 768 1024" xml:space="preserve">
<path fill="#000000" opacity="1.000000" stroke="none" d="&#xA;M507.703430,826.472168 &#xA;&#x9;C505.819702,827.083557 505.202332,828.281128 505.307739,829.688232 &#xA;&#x9;C505.669678,834.520203 503.089325,835.705933 498.842590,835.371704 &#xA;&#x9;C496.028198,835.150146 493.177338,835.442688 490.348022,835.348267 &#xA;&#x9;C485.688446,835.192749 481.939423,835.884399 482.244080,841.939087 &#xA;&#x9;C482.378845,844.617493 480.123077,844.451843 478.287537,844.502686 &#xA;&#x9;C472.128662,844.673279 465.969788,844.848633 459.809937,844.974731 &#xA;&#x9;C457.216431,845.027771 454.965973,845.518616 455.342590,848.810242 &#xA;&#x9;C455.880951,853.515930 453.380859,854.299194 449.369568,854.279419 &#xA;&#x9;C427.039825,854.169312 404.709229,854.247559 382.378906,854.251099 &#xA;&#x9;C362.048340,854.254333 341.717407,854.181763 321.387482,854.293335 &#xA;&#x9;C317.355621,854.315430 314.404907,853.895752 314.865204,848.765015 &#xA;&#x9;C315.153931,845.546692 312.836578,845.004883 310.256470,844.978027 &#xA;&#x9;C304.425232,844.917297 298.594360,844.827759 292.763275,844.752747 &#xA;&#x9;C289.672333,844.712952 287.555542,843.641174 287.815033,840.071045 &#xA;&#x9;C288.056702,836.746887 286.035187,835.629089 283.207031,835.535217 &#xA;&#x9;C278.878479,835.391418 274.543274,835.308044 270.213867,835.379211 &#xA;&#x9;C267.165955,835.429260 265.353424,834.428040 265.663513,831.091980 &#xA;&#x9;C266.016174,827.298340 264.126892,826.108826 260.588257,826.269836 &#xA;&#x9;C256.470947,826.457092 251.925064,827.262268 252.315765,820.451111 &#xA;&#x9;C252.450623,818.100098 249.736267,818.297485 247.947647,818.326477 &#xA;&#x9;C243.960785,818.390930 240.146515,818.705322 240.420593,812.701050 &#xA;&#x9;C240.544739,809.981079 237.733093,810.052856 235.808914,810.193298 &#xA;&#x9;C230.600037,810.573364 227.404358,809.131592 227.917969,803.092529 &#xA;&#x9;C228.309601,798.487732 224.546082,798.641724 221.714371,798.648499 &#xA;&#x9;C217.360168,798.658936 215.654770,796.664734 215.929276,792.585205 &#xA;&#x9;C216.192764,788.669556 214.279343,787.012207 210.539978,787.363586 &#xA;&#x9;C206.230713,787.768494 204.289719,785.979431 204.772522,781.617004 &#xA;&#x9;C205.185806,777.882812 203.742416,775.790710 199.714981,776.308228 &#xA;&#x9;C194.994324,776.914917 193.711807,774.617920 193.692200,770.233765 &#xA;&#x9;C193.656723,762.293701 193.363770,762.007446 185.528229,761.363831 &#xA;&#x9;C181.477158,761.031128 181.633072,758.418884 181.747009,755.737244 &#xA;&#x9;C181.909393,751.914673 181.765579,748.782776 176.485092,748.959595 &#xA;&#x9;C173.427887,749.062012 173.562500,746.234009 173.691910,744.089539 &#xA;&#x9;C173.937119,740.026794 173.692139,736.674438 168.152344,737.080566 &#xA;&#x9;C165.967178,737.240845 165.671219,735.270630 165.620514,733.506897 &#xA;&#x9;C165.553543,731.176147 165.586380,728.838318 165.410110,726.516113 &#xA;&#x9;C165.233932,724.195374 164.511658,722.174744 161.585693,722.298462 &#xA;&#x9;C158.042374,722.448181 157.527390,720.237305 157.616547,717.414795 &#xA;&#x9;C157.679611,715.418396 157.668396,713.410889 157.531631,711.419312 &#xA;&#x9;C157.384521,709.277039 156.653397,707.368469 154.096115,707.289734 &#xA;&#x9;C150.435211,707.177002 149.767578,704.945129 149.876450,701.911011 &#xA;&#x9;C149.966034,699.414673 149.817612,696.909912 149.905289,694.413452 &#xA;&#x9;C150.008804,691.466309 149.583786,689.174622 145.865387,688.894958 &#xA;&#x9;C143.303635,688.702209 142.939438,686.611755 142.948074,684.441895 &#xA;&#x9;C142.969315,679.109497 142.912292,673.776733 142.945740,668.444458 &#xA;&#x9;C142.961304,665.961670 142.270065,664.153625 139.397369,664.086914 &#xA;&#x9;C136.267578,664.014221 135.654282,662.091980 135.656235,659.400513 &#xA;&#x9;C135.687042,616.906250 135.679611,574.412048 135.656189,531.917786 &#xA;&#x9;C135.654846,529.494995 136.036102,527.706665 139.078537,527.602417 &#xA;&#x9;C142.385574,527.489136 143.663406,525.338318 143.651230,522.227722 &#xA;&#x9;C143.641449,519.728210 143.656586,517.228516 143.662445,514.728943 &#xA;&#x9;C143.670471,511.302338 142.876816,507.605286 148.183212,507.027252 &#xA;&#x9;C150.194031,506.808228 150.591415,504.506561 150.611572,502.574554 &#xA;&#x9;C150.641113,499.741882 150.683548,496.908813 150.663788,494.076324 &#xA;&#x9;C150.650909,492.227814 151.072647,490.642365 153.218750,490.493713 &#xA;&#x9;C157.678635,490.184723 158.049164,487.225006 157.775345,483.773346 &#xA;&#x9;C157.444763,479.606171 157.167526,475.596344 163.257584,475.560211 &#xA;&#x9;C164.967377,475.550110 165.544205,473.777802 165.629242,472.194885 &#xA;&#x9;C165.736374,470.200287 165.849091,468.188843 165.710251,466.202087 &#xA;&#x9;C165.470398,462.769806 166.096283,460.384705 170.325439,460.276825 &#xA;&#x9;C174.043625,460.181946 174.904648,457.423370 174.669724,454.278503 &#xA;&#x9;C174.388382,450.512390 174.918549,447.785095 179.712936,447.662415 &#xA;&#x9;C183.198959,447.573181 183.856003,444.648071 183.626953,441.812744 &#xA;&#x9;C183.309601,437.884277 184.664658,435.757629 188.839874,435.862946 &#xA;&#x9;C192.338394,435.951233 194.164688,434.196747 193.984329,430.670593 &#xA;&#x9;C193.777420,426.625244 195.078461,424.300354 199.649719,424.663818 &#xA;&#x9;C203.067108,424.935486 204.422043,422.536957 204.599579,419.617737 &#xA;&#x9;C204.830521,415.820068 206.637527,414.379547 210.355530,414.516235 &#xA;&#x9;C214.236984,414.658905 216.169754,412.614685 215.986786,408.630829 &#xA;&#x9;C215.820282,405.005554 217.707993,403.506470 221.236908,403.721741 &#xA;&#x9;C226.144089,404.021057 228.367416,401.693665 227.825241,396.784210 &#xA;&#x9;C227.430588,393.210449 229.435486,391.878754 232.586563,392.039886 &#xA;&#x9;C238.191177,392.326508 241.152664,390.128448 240.671692,384.200409 &#xA;&#x9;C240.425354,381.164490 242.414810,380.617249 244.850266,380.657501 &#xA;&#x9;C249.213898,380.729614 252.409760,379.372925 252.620926,374.328705 &#xA;&#x9;C252.730423,371.713196 254.672592,371.517181 256.547455,371.657104 &#xA;&#x9;C261.574677,372.032440 265.137451,370.787781 265.237823,364.851196 &#xA;&#x9;C265.275452,362.625427 266.716003,361.708496 268.907623,361.729889 &#xA;&#x9;C272.739777,361.767334 276.572937,361.722229 280.405518,361.690887 &#xA;&#x9;C284.851410,361.654510 288.411224,360.458435 288.607635,355.131775 &#xA;&#x9;C288.712555,352.287170 290.705078,352.085999 292.795868,352.059845 &#xA;&#x9;C298.294495,351.991089 303.794800,351.880402 309.292236,351.953339 &#xA;&#x9;C313.288879,352.006317 315.758148,350.594849 315.677948,346.239044 &#xA;&#x9;C315.625061,343.366089 317.234558,342.595612 319.815918,342.595154 &#xA;&#x9;C358.133545,342.588318 396.449036,341.329315 434.769623,342.455750 &#xA;&#x9;C439.750854,342.602173 444.753448,342.522583 449.727783,342.232513 &#xA;&#x9;C453.217987,342.029053 455.365448,342.771698 454.820007,346.801605 &#xA;&#x9;C454.309662,350.572418 456.255981,351.939117 459.733765,351.928558 &#xA;&#x9;C465.565887,351.910828 471.398804,352.009735 477.230103,351.944122 &#xA;&#x9;C480.651947,351.905640 483.169464,352.635773 483.103271,356.810883 &#xA;&#x9;C483.045715,360.441650 485.222443,361.752411 488.587616,361.720551 &#xA;&#x9;C492.586609,361.682678 496.587952,361.801147 500.585205,361.712708 &#xA;&#x9;C503.516449,361.647797 505.382355,362.411987 505.381104,365.840027 &#xA;&#x9;C505.379456,370.305786 507.941711,372.093933 512.211792,371.617126 &#xA;&#x9;C515.626648,371.235840 518.080383,371.681427 518.010681,376.086578 &#xA;&#x9;C517.951599,379.823303 520.783325,380.973236 523.861511,380.564087 &#xA;&#x9;C528.484985,379.949493 530.428528,381.585266 530.042419,386.236176 &#xA;&#x9;C529.708923,390.252991 531.792236,392.153656 535.713318,391.933868 &#xA;&#x9;C540.418945,391.670166 543.051147,393.245453 542.364441,398.481903 &#xA;&#x9;C541.825562,402.591064 544.459961,403.885712 547.866943,403.661560 &#xA;&#x9;C552.551880,403.353363 554.613953,405.100372 554.305298,409.932739 &#xA;&#x9;C554.057190,413.818298 557.028564,414.630035 560.035156,414.532837 &#xA;&#x9;C563.725220,414.413605 565.684814,415.494965 565.491516,419.579712 &#xA;&#x9;C565.323364,423.134186 566.985107,425.326416 570.925781,424.906281 &#xA;&#x9;C574.687012,424.505219 576.119202,426.473419 575.950500,429.915131 &#xA;&#x9;C575.745850,434.092194 577.626221,436.142639 581.825012,436.077209 &#xA;&#x9;C585.195862,436.024689 586.688416,437.675171 586.317017,441.053436 &#xA;&#x9;C585.855469,445.251587 586.696167,448.304382 591.962646,448.107147 &#xA;&#x9;C595.303406,447.981995 595.487793,450.573425 595.302856,453.025269 &#xA;&#x9;C594.971375,457.422089 595.829529,460.736084 601.266113,460.538971 &#xA;&#x9;C603.542969,460.456390 603.983826,462.022461 603.999268,463.869354 &#xA;&#x9;C604.021484,466.534576 603.995972,469.201294 604.081726,471.864502 &#xA;&#x9;C604.146362,473.871948 604.909058,475.680359 607.156982,475.731354 &#xA;&#x9;C611.901062,475.839081 612.483032,478.742218 612.133606,482.481934 &#xA;&#x9;C611.683716,487.296783 612.103271,491.474274 618.753845,490.631317 &#xA;&#x9;C619.841248,494.883026 619.226318,498.878418 619.322266,502.820282 &#xA;&#x9;C619.387390,505.499390 620.139648,507.488464 623.130676,507.638306 &#xA;&#x9;C625.868469,507.775452 626.352722,509.425568 626.302734,511.681458 &#xA;&#x9;C626.247437,514.179871 626.327942,516.681152 626.283020,519.179993 &#xA;&#x9;C626.204407,523.552612 625.403259,528.208191 632.329407,527.993164 &#xA;&#x9;C634.551819,527.924194 634.249756,530.352661 634.268677,531.955139 &#xA;&#x9;C634.325684,536.787170 634.298340,541.620239 634.294373,546.452942 &#xA;&#x9;C634.264465,582.947998 634.218323,619.442993 634.221191,655.938049 &#xA;&#x9;C634.221497,659.883545 634.619446,663.792603 629.027405,664.342712 &#xA;&#x9;C627.220764,664.520386 627.204224,666.432190 626.936829,667.920227 &#xA;&#x9;C626.010681,673.073425 626.793335,678.225342 626.860535,683.378418 &#xA;&#x9;C626.898376,686.277405 627.014954,689.199890 622.815857,689.429443 &#xA;&#x9;C620.690247,689.545593 620.315002,691.325623 620.295898,693.108826 &#xA;&#x9;C620.265564,695.941467 620.162720,698.778381 620.274048,701.606262 &#xA;&#x9;C620.393250,704.636353 619.695374,706.865906 616.178467,707.216431 &#xA;&#x9;C613.854431,707.448059 613.274780,709.130554 613.225952,711.144409 &#xA;&#x9;C613.169373,713.476562 613.143555,715.809937 613.048462,718.140503 &#xA;&#x9;C612.959229,720.328857 612.309753,722.227722 609.674133,722.187744 &#xA;&#x9;C605.639709,722.126587 605.119141,724.657715 605.195618,727.811462 &#xA;&#x9;C605.236023,729.475342 605.118713,731.142578 605.092102,732.808655 &#xA;&#x9;C605.052551,735.291382 604.126953,737.101868 601.376892,737.158508 &#xA;&#x9;C597.653625,737.235291 596.990479,739.601624 597.219604,742.561584 &#xA;&#x9;C597.517273,746.405823 596.605652,748.936951 592.075500,749.330078 &#xA;&#x9;C588.534546,749.637390 588.300842,752.864258 588.449524,755.486267 &#xA;&#x9;C588.694031,759.797119 587.102966,761.744934 582.716736,761.271667 &#xA;&#x9;C576.898865,760.643921 576.507874,765.279724 576.525146,768.829895 &#xA;&#x9;C576.551697,774.286560 575.030823,776.999573 569.154053,776.357788 &#xA;&#x9;C565.578186,775.967285 565.056458,778.620300 565.339722,781.328918 &#xA;&#x9;C565.822205,785.943054 563.856323,787.826660 559.321411,787.312927 &#xA;&#x9;C555.320801,786.859619 553.830261,788.916260 554.250183,792.652466 &#xA;&#x9;C554.738098,796.993713 552.890259,798.905151 548.534912,798.376648 &#xA;&#x9;C543.695374,797.789368 541.762695,800.130737 542.156982,804.766724 &#xA;&#x9;C542.470337,808.450745 540.584045,809.920532 537.114380,809.859741 &#xA;&#x9;C533.119873,809.789673 530.020996,810.423767 529.725525,815.622314 &#xA;&#x9;C529.546448,818.772522 526.296997,818.226257 524.068665,818.178101 &#xA;&#x9;C520.577026,818.102722 517.692932,818.350220 517.781799,823.007446 &#xA;&#x9;C517.823364,825.182617 516.259644,826.179138 514.107239,826.214294 &#xA;&#x9;C512.109253,826.246887 510.112091,826.331421 507.703430,826.472168 &#xA;M318.006714,575.797424 &#xA;&#x9;C322.172668,576.657837 320.552246,579.828613 320.438324,582.226257 &#xA;&#x9;C319.964294,592.204651 321.248718,593.645630 330.996063,593.608276 &#xA;&#x9;C339.345367,593.576172 339.345337,593.576172 339.344757,602.190002 &#xA;&#x9;C339.344238,609.872925 339.344299,609.886353 347.096436,609.874878 &#xA;&#x9;C367.255035,609.844971 387.413696,609.826233 407.572113,609.740356 &#xA;&#x9;C410.848358,609.726379 413.413849,609.796570 413.349915,614.343079 &#xA;&#x9;C413.146179,628.834656 413.205872,643.330933 413.273956,657.824768 &#xA;&#x9;C413.288757,660.975952 412.154266,662.314636 408.898193,662.296997 &#xA;&#x9;C392.405121,662.207581 375.910889,662.184998 359.418182,662.299683 &#xA;&#x9;C355.873688,662.324341 354.678162,660.860291 354.791687,657.525513 &#xA;&#x9;C354.933319,653.365051 354.735046,649.192993 354.875763,645.032471 &#xA;&#x9;C355.014038,640.944580 353.053619,639.325684 349.134460,639.342407 &#xA;&#x9;C335.639984,639.400024 322.144867,639.433350 308.650696,639.354065 &#xA;&#x9;C304.587250,639.330200 302.953094,641.239197 302.895599,645.121704 &#xA;&#x9;C302.819183,650.281616 302.476257,655.438049 302.422760,660.597717 &#xA;&#x9;C302.354187,667.209167 302.892853,667.674194 309.515869,667.723083 &#xA;&#x9;C320.330811,667.802856 320.330841,667.802795 320.322693,678.645569 &#xA;&#x9;C320.317230,685.912720 320.332520,685.928284 327.482513,685.880798 &#xA;&#x9;C339.271179,685.802490 339.481384,685.806580 339.247131,697.710938 &#xA;&#x9;C339.152008,702.543457 340.781372,704.138977 345.530884,704.111633 &#xA;&#x9;C371.353149,703.963318 397.176697,704.050842 422.999786,704.026611 &#xA;&#x9;C429.785004,704.020203 430.053650,703.791992 430.012817,696.976318 &#xA;&#x9;C429.931122,683.334778 430.142029,686.022583 440.870575,685.870789 &#xA;&#x9;C448.132202,685.768005 448.620392,685.340759 448.660217,678.293091 &#xA;&#x9;C448.719940,667.725830 448.719940,667.725891 459.253540,667.639832 &#xA;&#x9;C466.240875,667.582764 466.858002,666.994690 466.871246,659.818787 &#xA;&#x9;C466.904175,641.992554 466.896271,624.166138 466.899231,606.339844 &#xA;&#x9;C466.901154,594.862854 466.896759,594.862793 455.171143,594.946655 &#xA;&#x9;C448.412842,594.994934 448.418945,594.995117 448.557922,588.490051 &#xA;&#x9;C448.597076,586.658081 448.551239,584.823792 448.610168,582.992737 &#xA;&#x9;C448.735565,579.095886 447.005859,577.034607 442.980133,577.114685 &#xA;&#x9;C441.315247,577.147766 439.648560,577.076294 437.982910,577.086365 &#xA;&#x9;C430.077881,577.134216 430.077911,577.138428 429.944214,569.036011 &#xA;&#x9;C429.833527,562.331421 428.898163,561.382935 421.930145,561.405579 &#xA;&#x9;C401.608643,561.471680 381.287109,561.562378 360.966125,561.715271 &#xA;&#x9;C358.355560,561.734863 356.791443,561.016357 356.798035,558.131897 &#xA;&#x9;C356.830322,543.970947 356.839874,529.810059 356.840973,515.649109 &#xA;&#x9;C356.841187,513.207275 357.897797,511.972260 360.446503,511.976166 &#xA;&#x9;C376.773071,512.001343 393.099823,512.006165 409.426331,511.961670 &#xA;&#x9;C412.526337,511.953217 413.436249,513.524048 413.349487,516.359314 &#xA;&#x9;C413.232361,520.187256 413.395050,524.023010 413.325226,527.853394 &#xA;&#x9;C413.260162,531.422119 414.899597,532.987610 418.470398,532.955994 &#xA;&#x9;C431.963776,532.836670 445.457947,532.791687 458.951904,532.757996 &#xA;&#x9;C463.315308,532.747131 465.390839,530.392090 465.550812,526.282532 &#xA;&#x9;C465.719208,521.957031 465.680145,517.621094 465.642151,513.290466 &#xA;&#x9;C465.588287,507.156250 464.540253,506.150787 458.277863,505.966766 &#xA;&#x9;C447.834778,505.659882 447.834778,505.659943 447.675201,495.264130 &#xA;&#x9;C447.584656,489.365417 446.513428,488.226318 440.732483,487.978394 &#xA;&#x9;C439.235687,487.914154 437.734222,487.949524 436.234955,487.954285 &#xA;&#x9;C429.868896,487.974487 429.692841,487.807556 429.693604,481.652130 &#xA;&#x9;C429.693726,480.652527 429.707092,479.652893 429.704132,478.653320 &#xA;&#x9;C429.683441,471.687042 428.474243,470.367462 421.666504,470.361145 &#xA;&#x9;C396.509766,470.337891 371.352936,470.352417 346.196198,470.385193 &#xA;&#x9;C340.668549,470.392395 339.513763,471.594147 339.355408,477.129700 &#xA;&#x9;C339.042023,488.084686 339.042023,488.084686 327.974945,487.504852 &#xA;&#x9;C322.612885,487.223877 321.366211,488.319061 321.233002,493.548706 &#xA;&#x9;C321.173615,495.879547 321.038879,498.231537 321.266022,500.541718 &#xA;&#x9;C321.717957,505.137787 319.539795,506.558319 315.339417,505.917694 &#xA;&#x9;C314.188538,505.742157 313.021088,505.664246 311.858521,505.578125 &#xA;&#x9;C304.919495,505.064087 303.052612,506.728638 303.039612,513.547424 &#xA;&#x9;C303.009125,529.541077 303.082855,545.535156 302.974579,561.528198 &#xA;&#x9;C302.863647,577.908386 301.999023,575.522034 318.006714,575.797424 &#xA;M348.286011,787.500183 &#xA;&#x9;C348.282990,804.293274 348.345856,821.086914 348.223236,837.879150 &#xA;&#x9;C348.197693,841.377991 349.157928,843.095947 352.960938,843.080444 &#xA;&#x9;C374.428162,842.992859 395.896027,843.016602 417.363495,843.063538 &#xA;&#x9;C420.553009,843.070496 421.741150,841.723755 421.731842,838.541016 &#xA;&#x9;C421.665344,815.742188 421.659058,792.942810 421.771576,770.144226 &#xA;&#x9;C421.791168,766.170654 420.029510,764.823730 416.340088,764.909851 &#xA;&#x9;C411.183624,765.030273 406.022949,764.976196 400.864075,764.987854 &#xA;&#x9;C385.886536,765.021851 370.908936,765.027527 355.931519,765.092957 &#xA;&#x9;C348.318420,765.126160 348.280579,765.212158 348.281525,773.020569 &#xA;&#x9;C348.282074,777.513855 348.285492,782.007080 348.286011,787.500183 &#xA;M195.564972,732.262695 &#xA;&#x9;C195.496597,741.236511 195.483978,750.211243 195.333923,759.183716 &#xA;&#x9;C195.269043,763.062927 196.641068,765.231323 200.854691,764.903992 &#xA;&#x9;C204.251190,764.640076 206.496674,765.917175 206.072159,769.706482 &#xA;&#x9;C205.525345,774.587524 207.683670,776.346313 212.373093,775.877563 &#xA;&#x9;C215.586807,775.556396 217.676910,776.961426 217.213150,780.470520 &#xA;&#x9;C216.417053,786.494324 219.516464,788.146790 224.796753,787.700684 &#xA;&#x9;C227.695129,787.455872 229.434662,788.849854 229.061371,791.769714 &#xA;&#x9;C228.277924,797.897705 231.397919,799.356750 236.681946,798.721924 &#xA;&#x9;C240.062866,798.315735 241.707672,799.829834 241.330582,803.321106 &#xA;&#x9;C240.939621,806.940979 242.038467,808.821045 246.218460,808.863342 &#xA;&#x9;C250.324936,808.904846 252.617447,807.800476 252.582657,803.415100 &#xA;&#x9;C252.527161,796.421265 253.124374,789.351074 252.269165,782.459106 &#xA;&#x9;C251.675659,777.676331 253.422958,773.481140 252.912277,768.874512 &#xA;&#x9;C255.335205,768.633423 257.137543,768.355469 258.947113,768.295410 &#xA;&#x9;C262.352356,768.182373 264.341278,766.791016 263.951843,763.104675 &#xA;&#x9;C263.466064,758.506287 265.874786,757.256470 269.967010,757.673523 &#xA;&#x9;C272.892395,757.971619 274.979218,756.997681 274.658203,753.562622 &#xA;&#x9;C274.319946,749.942688 275.768951,748.371826 279.490601,748.570068 &#xA;&#x9;C283.778870,748.798462 284.736847,745.943970 284.752167,742.349854 &#xA;&#x9;C284.767487,738.757202 285.177277,735.035461 279.779694,735.112915 &#xA;&#x9;C277.834717,735.140747 276.014893,734.453613 275.879791,732.110229 &#xA;&#x9;C275.649048,728.107178 273.058563,727.106445 269.736694,727.198364 &#xA;&#x9;C266.200104,727.296265 264.323517,725.936646 264.705872,722.221252 &#xA;&#x9;C265.134705,718.054871 262.839478,716.189758 259.117676,716.454590 &#xA;&#x9;C253.845337,716.829712 252.337936,714.388733 252.807968,709.623596 &#xA;&#x9;C253.091415,706.750244 252.612793,703.957886 248.747482,704.340759 &#xA;&#x9;C243.971405,704.813721 242.279694,702.914307 242.438507,698.139465 &#xA;&#x9;C242.593765,693.471802 239.003098,693.245300 235.395737,693.327637 &#xA;&#x9;C231.991669,693.405396 229.808060,694.581787 230.319931,698.351013 &#xA;&#x9;C230.976212,703.183899 228.646500,704.661987 224.276016,704.113037 &#xA;&#x9;C219.845200,703.556335 217.572800,705.228821 218.255905,709.950562 &#xA;&#x9;C218.888123,714.320496 217.126129,716.038025 212.659973,715.482300 &#xA;&#x9;C208.509186,714.965881 205.747711,716.534546 206.231720,721.323425 &#xA;&#x9;C206.654602,725.507080 204.358719,726.594604 200.769547,726.238281 &#xA;&#x9;C196.883621,725.852417 195.165176,727.617432 195.564972,732.262695 &#xA;M563.994873,722.353699 &#xA;&#x9;C564.579407,717.304871 562.639465,714.733643 557.265991,715.317139 &#xA;&#x9;C554.370605,715.631592 552.653137,714.785522 552.562256,711.272034 &#xA;&#x9;C552.384094,704.388245 552.194031,704.325928 545.303650,704.105591 &#xA;&#x9;C542.318726,704.010010 539.895447,703.698120 540.453491,699.733582 &#xA;&#x9;C541.044800,695.533081 539.810303,693.268311 534.880676,693.195068 &#xA;&#x9;C529.967590,693.122192 527.602051,694.526001 528.237671,699.680725 &#xA;&#x9;C528.660278,703.107910 527.056702,704.590332 523.608337,704.318298 &#xA;&#x9;C518.773743,703.937073 516.889587,706.520020 517.377930,711.035461 &#xA;&#x9;C517.831238,715.227051 516.047668,716.841309 511.965485,716.339722 &#xA;&#x9;C507.416992,715.780762 505.400940,718.246887 505.498627,722.433960 &#xA;&#x9;C505.584656,726.122864 504.146149,727.573792 500.482910,727.283447 &#xA;&#x9;C497.107544,727.015930 494.481567,728.081604 494.366669,732.084900 &#xA;&#x9;C494.297577,734.492798 492.868011,735.338379 490.769104,735.176697 &#xA;&#x9;C485.482697,734.769592 485.312286,738.246277 485.430511,742.002502 &#xA;&#x9;C485.557800,746.047668 486.343872,749.421875 491.663544,748.696289 &#xA;&#x9;C494.484802,748.311462 496.212219,749.458252 496.053558,752.537415 &#xA;&#x9;C495.854126,756.406860 497.657806,758.087524 501.469116,757.639160 &#xA;&#x9;C505.158234,757.205078 506.789856,758.804321 506.272797,762.485596 &#xA;&#x9;C505.550018,767.631592 508.281891,769.118225 512.747498,768.419983 &#xA;&#x9;C516.385681,767.851013 517.108215,769.407776 517.442749,772.780090 &#xA;&#x9;C518.448486,782.919189 517.799011,793.053894 517.944824,803.186584 &#xA;&#x9;C517.994995,806.670227 518.885010,808.825500 523.043396,808.832275 &#xA;&#x9;C526.867371,808.838501 529.248596,807.990356 528.902344,803.633667 &#xA;&#x9;C528.621948,800.104431 530.147644,798.726318 533.804626,798.482117 &#xA;&#x9;C540.961365,798.004211 540.936584,797.767944 541.549805,790.464661 &#xA;&#x9;C541.616394,789.670898 541.863098,788.892273 542.045288,788.015198 &#xA;&#x9;C543.535461,787.802612 544.841736,787.443848 546.142944,787.461426 &#xA;&#x9;C550.967529,787.526794 553.665588,785.795654 553.015808,780.412537 &#xA;&#x9;C552.484375,776.009705 555.599487,775.556396 558.839172,775.807190 &#xA;&#x9;C563.118835,776.138672 565.131348,774.409119 564.655701,770.051331 &#xA;&#x9;C564.269348,766.511902 565.696350,764.570129 569.410339,764.903870 &#xA;&#x9;C573.704163,765.289673 574.849304,763.150269 574.729126,759.219482 &#xA;&#x9;C574.454773,750.246155 574.161255,741.253723 574.478577,732.290405 &#xA;&#x9;C574.638184,727.782166 573.017212,726.152893 568.854065,726.222656 &#xA;&#x9;C566.628601,726.259949 564.362427,726.279175 563.994873,722.353699 &#xA;M199.671860,586.500061 &#xA;&#x9;C199.666046,574.503052 199.603912,562.505737 199.687805,550.509338 &#xA;&#x9;C199.713852,546.782959 198.332214,545.005798 194.418243,545.031921 &#xA;&#x9;C180.589203,545.124268 166.758881,545.104797 152.929581,545.030090 &#xA;&#x9;C148.581253,545.006592 146.415680,546.917053 146.414658,551.298096 &#xA;&#x9;C146.409592,572.792542 146.429214,594.287170 146.326035,615.781250 &#xA;&#x9;C146.309296,619.269775 147.887024,620.621826 151.120163,620.615112 &#xA;&#x9;C165.282562,620.585632 179.445053,620.575439 193.607330,620.519348 &#xA;&#x9;C197.885544,620.502380 199.858444,618.497498 199.747650,613.991882 &#xA;&#x9;C199.530624,605.165955 199.676025,596.331238 199.671860,586.500061 &#xA;M570.385010,598.499634 &#xA;&#x9;C570.380798,604.155029 570.503418,609.814453 570.326294,615.464417 &#xA;&#x9;C570.214478,619.031067 571.493530,620.650818 575.195740,620.628357 &#xA;&#x9;C589.167175,620.543518 603.139771,620.554443 617.111389,620.632812 &#xA;&#x9;C621.735352,620.658752 623.673950,618.600952 623.651489,613.971313 &#xA;&#x9;C623.549744,593.024353 623.549988,572.076599 623.620911,551.129456 &#xA;&#x9;C623.635742,546.766052 622.011475,544.822632 617.429810,544.886841 &#xA;&#x9;C604.125549,545.073364 590.817017,544.934692 577.510559,544.999451 &#xA;&#x9;C570.838196,545.031982 570.364197,545.547852 570.360657,552.090576 &#xA;&#x9;C570.352356,567.226990 570.376099,582.363464 570.385010,598.499634 &#xA;M348.367889,396.419159 &#xA;&#x9;C348.363312,397.251007 348.358459,398.082886 348.354248,398.914734 &#xA;&#x9;C348.311249,407.348236 348.601257,407.650269 356.955353,407.653534 &#xA;&#x9;C376.586761,407.661163 396.218903,407.573059 415.848999,407.733734 &#xA;&#x9;C420.089111,407.768433 421.821686,406.481903 421.759430,402.050903 &#xA;&#x9;C421.565521,388.245056 421.729156,374.434662 421.656067,360.626526 &#xA;&#x9;C421.626709,355.086304 420.469849,353.973297 414.777161,353.962921 &#xA;&#x9;C394.979645,353.926819 375.181854,353.933655 355.384460,354.006561 &#xA;&#x9;C349.372498,354.028687 348.395477,355.064880 348.373352,361.005585 &#xA;&#x9;C348.330597,372.484772 348.365967,383.964233 348.367889,396.419159 &#xA;M253.354660,453.027557 &#xA;&#x9;C254.777451,451.399689 256.727020,451.798492 258.500641,451.818756 &#xA;&#x9;C262.337189,451.862518 264.755371,450.219543 264.541473,446.263214 &#xA;&#x9;C264.319977,442.165588 266.311798,441.032257 269.908508,441.059753 &#xA;&#x9;C273.357269,441.086151 275.776581,439.669952 275.752930,435.806305 &#xA;&#x9;C275.735870,433.019073 277.597015,432.692566 279.695007,432.375488 &#xA;&#x9;C284.375000,431.668030 284.633362,428.107452 284.622070,424.455505 &#xA;&#x9;C284.610199,420.600281 282.389618,419.187469 278.810303,419.285736 &#xA;&#x9;C276.632660,419.345520 274.616730,418.947540 274.755585,416.156555 &#xA;&#x9;C274.992371,411.397278 272.277191,410.061401 268.176880,410.166748 &#xA;&#x9;C265.270020,410.241455 263.801483,408.827026 263.923248,405.928131 &#xA;&#x9;C264.112610,401.419434 261.458923,400.117218 257.579651,400.250885 &#xA;&#x9;C254.847885,400.344940 253.054184,399.463287 252.847473,396.444641 &#xA;&#x9;C252.603592,392.883270 250.214050,392.262817 247.224716,392.332153 &#xA;&#x9;C243.869019,392.410004 242.149704,394.332703 242.317963,397.371490 &#xA;&#x9;C242.594910,402.372253 240.288300,403.844727 235.719971,403.367584 &#xA;&#x9;C231.255508,402.901367 228.941666,405.120453 229.613251,409.555023 &#xA;&#x9;C230.308014,414.142670 228.456421,415.640869 224.145493,415.309662 &#xA;&#x9;C220.531784,415.031982 218.214020,416.841217 218.292404,420.499207 &#xA;&#x9;C218.382996,424.725433 216.343857,426.078613 212.530991,426.019257 &#xA;&#x9;C208.887573,425.962494 206.762375,428.098511 206.676239,431.501648 &#xA;&#x9;C206.574722,435.511200 204.884399,437.271088 200.991669,437.293274 &#xA;&#x9;C200.006989,437.298859 198.947876,437.557526 198.956650,438.994019 &#xA;&#x9;C199.642365,440.744019 201.268738,440.669098 202.715500,440.744049 &#xA;&#x9;C205.127167,440.869019 206.482971,441.901031 206.328949,444.443878 &#xA;&#x9;C206.030136,449.377167 208.789032,451.023773 213.181793,450.629883 &#xA;&#x9;C217.001328,450.287415 218.534821,451.597168 218.436234,455.663483 &#xA;&#x9;C218.269714,462.531708 218.511475,462.724884 225.851700,462.618378 &#xA;&#x9;C229.746262,462.561890 231.446411,463.906067 231.086060,467.812805 &#xA;&#x9;C230.698212,472.017853 232.059525,474.302246 236.902557,474.197723 &#xA;&#x9;C241.468430,474.099182 243.380966,472.272980 242.947281,467.859833 &#xA;&#x9;C242.630783,464.639160 243.908585,463.245300 247.224106,463.541962 &#xA;&#x9;C251.301407,463.906799 253.006012,461.793213 252.785065,457.817596 &#xA;&#x9;C252.711731,456.497955 252.915375,455.162903 253.354660,453.027557 &#xA;M549.504150,415.856415 &#xA;&#x9;C548.191467,415.680786 546.865723,415.291565 545.568542,415.370514 &#xA;&#x9;C541.997192,415.587952 540.539734,414.224792 540.509277,410.477142 &#xA;&#x9;C540.457397,404.083771 539.747009,403.431671 533.164612,403.413696 &#xA;&#x9;C529.518799,403.403748 527.978271,402.271271 528.354004,398.462860 &#xA;&#x9;C528.633667,395.627380 527.765503,393.080048 524.362305,392.563293 &#xA;&#x9;C521.102600,392.068329 518.644897,393.415100 517.804749,396.548981 &#xA;&#x9;C517.026733,399.451019 515.307190,400.146912 512.680786,400.023468 &#xA;&#x9;C508.974030,399.849274 507.146790,401.765198 506.977264,405.404480 &#xA;&#x9;C506.830536,408.553894 505.538635,410.322296 502.009857,410.024353 &#xA;&#x9;C498.656769,409.741180 496.408813,411.365112 496.448456,414.879425 &#xA;&#x9;C496.489471,418.513000 494.682465,419.410767 491.480286,419.340302 &#xA;&#x9;C487.308258,419.248474 486.178589,421.936798 486.142944,425.586731 &#xA;&#x9;C486.110077,428.951355 486.090851,432.117645 490.792389,432.085938 &#xA;&#x9;C493.182098,432.069824 494.510925,433.223145 494.350037,435.791168 &#xA;&#x9;C494.081726,440.073395 496.542511,441.398010 500.313171,441.035339 &#xA;&#x9;C503.828033,440.697296 505.812592,441.818512 505.347321,445.701447 &#xA;&#x9;C504.763641,450.573181 507.145569,452.517822 511.766937,451.935852 &#xA;&#x9;C516.231262,451.373657 517.884888,453.292145 517.357910,457.611816 &#xA;&#x9;C516.803467,462.157562 518.804382,464.191681 523.428406,463.516876 &#xA;&#x9;C524.552795,463.352722 525.746460,463.032623 526.851257,463.962006 &#xA;&#x9;C527.744080,465.061920 527.432922,466.462189 527.326050,467.732025 &#xA;&#x9;C526.955566,472.133972 528.668274,474.093658 533.290588,474.129211 &#xA;&#x9;C537.933472,474.164948 540.291443,472.615143 539.729187,467.755402 &#xA;&#x9;C539.268555,463.773926 541.152954,462.557892 544.970215,462.598297 &#xA;&#x9;C551.634949,462.668915 552.038940,462.374023 551.802734,455.998627 &#xA;&#x9;C551.626160,451.231995 553.654968,449.750854 557.991394,449.989105 &#xA;&#x9;C559.773376,450.087006 562.691467,450.172424 562.673462,448.209198 &#xA;&#x9;C562.613098,441.606812 567.072205,440.464325 571.927429,439.398743 &#xA;&#x9;C572.044800,439.372955 572.043030,438.803833 572.088745,438.484985 &#xA;&#x9;C571.730408,437.616241 570.994141,437.135376 570.142212,437.181976 &#xA;&#x9;C565.359009,437.443573 563.171082,435.568726 563.529724,430.465363 &#xA;&#x9;C563.776672,426.952026 560.806519,426.093170 557.975098,426.260437 &#xA;&#x9;C553.766052,426.509064 551.671143,425.038635 552.011719,420.594269 &#xA;&#x9;C552.137390,418.953308 551.964600,417.213470 549.504150,415.856415 &#xA;M360.245117,435.475159 &#xA;&#x9;C360.878235,435.663513 361.500061,435.952423 362.146179,436.025208 &#xA;&#x9;C373.445343,437.298004 384.786133,436.509705 396.107086,436.617188 &#xA;&#x9;C402.924744,436.681915 409.766327,437.108582 416.570862,436.148163 &#xA;&#x9;C419.431152,435.744446 422.090057,434.784943 422.090363,431.498810 &#xA;&#x9;C422.090668,428.035889 419.077423,428.047241 416.570648,427.890961 &#xA;&#x9;C398.085175,426.738525 379.608154,427.268158 361.138947,428.291107 &#xA;&#x9;C359.190338,428.399048 357.072144,428.683624 356.534058,431.410126 &#xA;&#x9;C357.606567,432.582275 358.709076,433.787262 360.245117,435.475159 &#xA;M227.068909,581.439392 &#xA;&#x9;C227.042587,578.448486 227.037033,575.457214 226.984543,572.466797 &#xA;&#x9;C226.923279,568.976196 227.309326,564.434570 222.475021,564.615112 &#xA;&#x9;C218.199081,564.774841 218.387924,569.278809 218.347290,572.516357 &#xA;&#x9;C218.215942,582.983093 218.265823,593.452942 218.352509,603.920715 &#xA;&#x9;C218.367416,605.719910 218.618698,607.627136 219.270798,609.283691 &#xA;&#x9;C220.124084,611.451294 220.550293,614.692322 223.837418,614.237000 &#xA;&#x9;C227.043015,613.793091 227.000000,610.833923 227.011963,608.303101 &#xA;&#x9;C227.052734,599.672241 227.056305,591.041138 227.068909,581.439392 &#xA;z"></path>
<path fill="#000000" opacity="1.000000" stroke="none" d="&#xA;M651.194702,827.997437 &#xA;&#x9;C651.181946,832.662354 651.074280,836.830200 651.181274,840.992615 &#xA;&#x9;C651.275024,844.639404 649.609985,846.084717 646.042114,845.990784 &#xA;&#x9;C641.713928,845.876892 637.378723,845.988342 633.047302,846.054443 &#xA;&#x9;C629.924622,846.102173 628.610596,844.716370 628.622498,841.511658 &#xA;&#x9;C628.700012,820.683899 628.696289,799.855652 628.635681,779.027832 &#xA;&#x9;C628.626770,775.966980 630.026367,774.865356 632.878235,774.901917 &#xA;&#x9;C637.209778,774.957458 641.552307,775.101074 645.871887,774.868042 &#xA;&#x9;C650.096497,774.640259 651.369507,776.524353 651.329529,780.510986 &#xA;&#x9;C651.172424,796.172180 651.221008,811.835510 651.194702,827.997437 &#xA;M633.924438,835.166626 &#xA;&#x9;C633.658813,840.080444 636.609741,840.700745 640.668762,840.786377 &#xA;&#x9;C644.825073,840.873962 646.306763,839.063782 646.480530,835.251770 &#xA;&#x9;C647.020020,823.414185 646.303345,811.603455 645.849121,799.786560 &#xA;&#x9;C645.757629,797.404358 644.475891,796.082581 642.081909,796.020264 &#xA;&#x9;C640.114563,795.968933 637.757751,795.572021 637.182800,798.240662 &#xA;&#x9;C636.002869,803.717590 633.471924,808.843567 633.851624,814.744995 &#xA;&#x9;C634.268066,821.216064 633.917969,827.736389 633.924438,835.166626 &#xA;z"></path>
<path fill="#000000" opacity="1.000000" stroke="none" d="&#xA;M709.378296,811.020325 &#xA;&#x9;C709.359680,818.505676 709.267944,825.496277 709.359070,832.484558 &#xA;&#x9;C709.397583,835.439087 708.687683,837.478760 705.264526,837.192078 &#xA;&#x9;C701.755127,836.898254 699.883057,838.112366 700.190369,841.937073 &#xA;&#x9;C700.365479,844.116821 699.252808,845.338318 696.936584,845.370483 &#xA;&#x9;C687.955872,845.495117 678.976013,845.681519 669.995117,845.790527 &#xA;&#x9;C666.567322,845.832153 664.165771,844.775269 664.625183,840.603210 &#xA;&#x9;C664.923523,837.894165 663.153015,837.098083 660.830566,837.333984 &#xA;&#x9;C657.082703,837.714600 655.807373,835.913330 655.832275,832.378662 &#xA;&#x9;C655.900269,822.727051 655.877930,813.073547 655.756897,803.422485 &#xA;&#x9;C655.714478,800.039795 657.044250,798.408203 660.479065,798.719421 &#xA;&#x9;C663.371948,798.981506 664.873047,797.854492 664.752014,794.775391 &#xA;&#x9;C664.640137,791.929016 666.514038,791.027771 668.959229,791.023254 &#xA;&#x9;C678.111572,791.006287 687.264038,791.032837 696.416382,791.064880 &#xA;&#x9;C699.378296,791.075256 701.142822,792.425354 701.161682,795.561829 &#xA;&#x9;C701.175354,797.836426 702.347412,798.975891 704.570312,798.875488 &#xA;&#x9;C708.669678,798.690430 709.690613,800.949219 709.398193,804.535889 &#xA;&#x9;C709.236450,806.519470 709.375549,808.527588 709.378296,811.020325 &#xA;M704.743225,826.293823 &#xA;&#x9;C704.738098,821.804993 703.994019,817.163574 704.883301,812.859497 &#xA;&#x9;C706.678345,804.171143 697.784424,804.067627 694.855652,799.278625 &#xA;&#x9;C693.676025,797.349609 691.798279,796.253601 689.412903,796.309204 &#xA;&#x9;C689.247131,796.313110 689.080750,796.290039 688.914673,796.289612 &#xA;&#x9;C683.594849,796.275513 678.274963,796.260010 672.955139,796.251099 &#xA;&#x9;C671.035278,796.247925 669.012573,796.454041 668.726746,798.779236 &#xA;&#x9;C668.315796,802.122498 666.411316,802.712524 663.516174,802.454773 &#xA;&#x9;C661.163513,802.245300 660.351624,803.773193 660.356934,805.938538 &#xA;&#x9;C660.375793,813.585876 660.401184,821.233521 660.342346,828.880371 &#xA;&#x9;C660.322388,831.461304 661.180542,833.051636 663.999634,833.061890 &#xA;&#x9;C667.009460,833.072876 668.581116,834.685425 668.867188,837.599365 &#xA;&#x9;C669.124451,840.220032 670.794739,840.730774 673.056458,840.704712 &#xA;&#x9;C678.874390,840.637817 684.694275,840.605774 690.511719,840.683472 &#xA;&#x9;C693.742065,840.726624 696.066467,839.847473 696.436218,836.198669 &#xA;&#x9;C696.653137,834.058105 697.895203,832.720215 700.043640,832.900757 &#xA;&#x9;C704.501099,833.275330 704.861145,830.505737 704.743225,826.293823 &#xA;z"></path>
<path fill="#000000" opacity="1.000000" stroke="none" d="&#xA;M602.280762,846.061401 &#xA;&#x9;C598.109985,846.363159 596.757690,844.536194 596.896851,840.978821 &#xA;&#x9;C597.052979,836.990906 597.059692,832.987976 596.907532,829.000061 &#xA;&#x9;C596.767456,825.330444 598.445618,823.889648 601.977600,823.952026 &#xA;&#x9;C606.801697,824.037231 611.629028,823.987427 616.454346,823.940674 &#xA;&#x9;C619.493408,823.911255 621.155212,825.207092 621.128540,828.382263 &#xA;&#x9;C621.090820,832.874756 621.074158,837.367554 621.081482,841.860229 &#xA;&#x9;C621.086304,844.802124 619.580261,846.038147 616.725891,846.018860 &#xA;&#x9;C612.066833,845.987366 607.407288,846.041321 602.280762,846.061401 &#xA;M613.858765,839.478577 &#xA;&#x9;C616.809143,834.272034 615.828125,829.828552 611.545959,829.126038 &#xA;&#x9;C608.322815,828.597351 605.813232,829.475891 603.848755,832.374939 &#xA;&#x9;C602.457336,834.428406 602.910706,835.784058 603.947998,837.757080 &#xA;&#x9;C605.713379,841.114990 608.351257,840.724365 611.210449,840.195618 &#xA;&#x9;C611.863831,840.074768 612.509827,839.914062 613.858765,839.478577 &#xA;z"></path>
<path fill="#000000" opacity="1.000000" stroke="none" d="&#xA;M682.976562,829.219055 &#xA;&#x9;C680.837891,829.210754 679.176880,829.175476 677.517151,829.206604 &#xA;&#x9;C675.053467,829.252869 673.806946,828.070984 673.795593,825.613159 &#xA;&#x9;C673.771851,820.466797 673.755859,815.320435 673.755615,810.174072 &#xA;&#x9;C673.755615,809.682800 673.706421,809.005066 673.988525,808.728271 &#xA;&#x9;C678.162781,804.632629 683.348328,807.435791 688.038452,806.778809 &#xA;&#x9;C690.882751,806.380371 691.693970,808.444214 691.888916,810.839233 &#xA;&#x9;C692.309204,816.000793 691.933105,821.162109 691.163940,826.231873 &#xA;&#x9;C690.423523,831.112549 686.174866,828.548401 682.976562,829.219055 &#xA;M681.181763,811.462280 &#xA;&#x9;C679.150085,811.372192 678.100220,812.265259 678.127258,814.377808 &#xA;&#x9;C678.154724,816.524780 678.192017,818.679443 678.048157,820.818848 &#xA;&#x9;C677.816467,824.264465 678.928284,825.910217 682.775818,825.921021 &#xA;&#x9;C686.759277,825.932129 687.658630,824.207031 687.144592,820.756104 &#xA;&#x9;C686.951538,819.460144 686.920044,818.098999 687.078186,816.799500 &#xA;&#x9;C687.568359,812.770874 686.056274,810.823120 681.181763,811.462280 &#xA;z"></path>
</svg>