<?xml version="1.0"?><svg xmlns="http://www.w3.org/2000/svg" xmlns:xlink="http://www.w3.org/1999/xlink" width="1728" height="2304" viewBox="0 0 1728 2304"><path fill="#20201F" d="M708.532 791.514C708.472 785.052 707.993 777.824 709.416 771.827C709.871 771.238 710.327 770.649 710.782 770.061C812.788 768.521 914.983 769.635 1017.02 769.787C1017.62 769.834 1018.22 769.881 1018.82 769.928L1019.02 791.228C1039.33 791.722 1062.68 790.785 1082.41 791.94L1082.74 812.221C1097.87 812.367 1118.36 811.762 1133.07 813.216L1133.11 834.112C1142.27 834.476 1151.45 834.587 1160.62 834.444L1160.76 855.432C1169.96 855.844 1179.17 855.992 1188.38 855.874C1188.39 864.301 1188.26 873.469 1188.45 881.828C1196.8 881.856 1207.15 881.516 1215.32 882.089C1215.49 889.963 1215.5 900.038 1216.01 907.723L1242.31 907.773L1242.44 931.788C1250.68 931.818 1260.27 931.537 1268.38 932.485L1268.55 955.566C1276.42 955.619 1284.36 955.446 1292.17 956.582L1292.22 980.602C1299.87 980.591 1308.49 980.31 1316.05 980.641C1316.1 989.602 1316.1 998.563 1316.07 1007.52C1321.89 1007.57 1329.96 1007.33 1335.61 1007.89C1335.63 1017.1 1335.72 1026.31 1335.86 1035.51C1342.21 1035.62 1348.56 1035.77 1354.9 1035.99L1354.86 1051.2L1355.24 1069.79C1361.04 1069.91 1367.46 1069.85 1373.2 1070.17C1373.17 1079.8 1372.83 1092.92 1373.29 1102.27L1390.05 1102.31C1390.38 1115.22 1390.52 1128.13 1390.47 1141.04L1405.49 1141.43C1405.29 1156.2 1404.89 1172.02 1405.04 1186.71L1422.98 1186.97L1423.25 1388.23C1423.27 1419.35 1424.13 1459.16 1423.13 1489.82L1407.7 1490.66C1407.43 1509.54 1407.43 1528.42 1407.69 1547.3C1407.52 1555.39 1402.53 1569.21 1399.58 1576.59L1399.33 1577.19L1398.39 1580.93C1397.01 1581.44 1396 1581.87 1394.69 1582.7C1390.66 1602.22 1384.49 1618.6 1379.1 1637.49C1376 1648.37 1365.72 1660.23 1358.45 1667.2C1357.25 1672.41 1355.93 1678.72 1354.43 1683.69C1349.4 1688.56 1347.58 1690.24 1343.87 1697.08C1340.65 1703 1337.08 1710.78 1333.51 1716.16C1324.84 1729.23 1314.97 1741.02 1306.86 1754.81C1306.4 1755.62 1300.65 1756.84 1299.78 1757.44C1295.9 1760.44 1290.92 1767.63 1287.72 1771.89C1287.36 1775.01 1287.37 1775.52 1287.45 1778.7C1285.04 1780.43 1280.75 1779.49 1277.53 1779.35C1274.95 1782.49 1268.3 1790.28 1266.05 1793.79C1258.72 1805.26 1259.48 1801.38 1250.07 1804.71C1248.43 1805.29 1241.85 1819.58 1235.82 1823.01L1235.37 1825.04C1236.95 1827.06 1236.88 1826.94 1238.9 1828.12C1235.64 1830.56 1229.64 1829.36 1225.63 1828.99C1223.66 1831.23 1206.17 1852.25 1205.91 1852.29C1193.57 1854.02 1186.77 1869.43 1174.99 1874.25C1165.12 1877.15 1150.45 1889.58 1141.36 1892.43C1135.33 1894.31 1118.95 1904.87 1117.01 1905.18C1100.85 1907.74 1092.23 1910.24 1077.32 1920.32C1077.18 1921.67 1077.06 1923.02 1076.95 1924.37C1072.34 1926.67 1061.44 1924.54 1055.96 1925.65C1050.33 1926.78 1043.34 1931.45 1038.1 1932.45C1032.41 1933.53 1022.73 1930.62 1017.03 1931.65C1006.1 1933.61 995.809 1937.4 984.714 1938.85C976.142 1939.96 968.781 1935.6 961.195 1936.08C951.742 1936.67 940.262 1941.21 930.855 1941.65C921.656 1942.08 911.81 1937.25 902.404 1937.05C896.339 1936.93 888.328 1942.53 883.621 1942.37C871.771 1941.95 858.48 1938.15 846.619 1938.18C839.101 1938.21 830.746 1942.35 822.572 1942.87C814.533 1943.38 808.488 1940.04 801.448 1939.68C793.968 1939.3 783.67 1941.78 776.001 1941.9C763.469 1942.1 749.235 1938.28 737.066 1934.64C726.32 1941.73 707.439 1927.34 695.706 1924.97C691.357 1924.09 683.647 1925.33 678.915 1925.93C668.38 1912.8 645.496 1911.92 632.102 1907.54C624.545 1905.08 622.44 1897.58 611.611 1899.66C608.91 1900.18 602.336 1900.03 599.614 1898.98L599.831 1898.13C602.293 1897.44 605.776 1897.12 607.18 1895.09C605.761 1893.7 604.432 1892.79 602.725 1892.22C598.061 1890.66 593.883 1883.78 589.852 1881.56C574.708 1873.21 571.756 1882.75 564.018 1861.31C557.196 1857.52 548.043 1855.05 540.7 1852.73L536.723 1842.16C528.686 1835.92 518.458 1829.34 513.205 1819.4L512.192 1816.16C505.422 1813.69 490.608 1807.35 486.197 1800.62C485.951 1799.16 485.216 1794.47 484.305 1793.46C476.512 1784.86 458.151 1785.29 459.753 1768.12L459.668 1765.2C443.209 1764.01 447.12 1755.4 437.116 1744.22C435.589 1742.83 435.562 1742.22 434.389 1740.06C429.155 1730.1 427.048 1733.76 419.475 1733.24C408.816 1732.5 416.07 1720.38 408.91 1710.85C407.519 1706.73 410.02 1707.04 406.423 1702.07C397.967 1698.74 392.527 1692.29 388.452 1682.11L387.631 1657.68C364.576 1656.24 370.466 1649.68 369.647 1623.06C346.957 1622.07 352.097 1614.95 352.021 1587.98C347.284 1587.85 341.228 1588.31 336.379 1588.53C335.866 1576.08 336.089 1559.91 335.991 1547.17L321.604 1546.5C320.879 1529.86 321.334 1507.5 321.311 1490.44C316.478 1490.18 310.404 1490.42 306.034 1488.26C304.207 1485.54 304.371 1483.7 304.339 1479.32C304.064 1442.02 304.177 1404.38 304.192 1367.1L304.067 1186.25C309.677 1185.92 316.763 1186.2 322.488 1186.21L322.432 1141.79L338.008 1142.19C337.835 1128.79 337.84 1115.39 338.022 1102L354.81 1101.95L354.855 1070.15L372.602 1070.34C372.914 1059.54 372.653 1045.77 372.662 1034.76C378.555 1034.48 384.504 1034.7 390.404 1034.81C391.595 1034.07 391.702 1033.7 392.728 1032.5C393.736 1026.72 393.374 1014.4 393.416 1007.74L412.445 1007.16C413.13 997.354 409.636 983.485 417.127 979.965C423.433 980.428 429.748 980.607 436.063 980.502C436.067 973.164 435.863 962.99 436.251 955.906C444.277 955.727 452.303 955.649 460.33 955.672C460.399 948.249 460.314 939.495 460.635 932.198C469.027 931.727 477.426 931.468 485.826 931.419C485.839 924.028 485.678 915.256 485.882 907.987L511.381 908.095L511.47 881.595C519.534 881.458 532.277 881.919 539.988 881.221L540.177 855.687C549.335 855.495 558.494 855.395 567.652 855.387L567.459 835.276C576.708 834.953 585.96 834.847 595.212 834.957L595.451 812.88C613.058 812.235 630.576 812.993 648.06 812.559C648.178 805.915 648.174 798.296 648.47 791.748C667.279 791.758 689.98 792.545 708.532 791.514Z"></path><path fill="#161616" d="M708.532 791.514C708.472 785.052 707.993 777.824 709.416 771.827C709.871 771.238 710.327 770.649 710.782 770.061C812.788 768.521 914.983 769.635 1017.02 769.787C1017.62 769.834 1018.22 769.881 1018.82 769.928L1019.02 791.228C1039.33 791.722 1062.68 790.785 1082.41 791.94L1082.74 812.221C1097.87 812.367 1118.36 811.762 1133.07 813.216L1133.11 834.112C1142.27 834.476 1151.45 834.587 1160.62 834.444L1160.76 855.432C1169.96 855.844 1179.17 855.992 1188.38 855.874C1188.39 864.301 1188.26 873.469 1188.45 881.828C1196.8 881.856 1207.15 881.516 1215.32 882.089C1215.49 889.963 1215.5 900.038 1216.01 907.723L1242.31 907.773L1242.44 931.788C1250.68 931.818 1260.27 931.537 1268.38 932.485L1268.55 955.566C1276.42 955.619 1284.36 955.446 1292.17 956.582L1292.22 980.602C1299.87 980.591 1308.49 980.31 1316.05 980.641C1316.1 989.602 1316.1 998.563 1316.07 1007.52C1321.89 1007.57 1329.96 1007.33 1335.61 1007.89C1335.63 1017.1 1335.72 1026.31 1335.86 1035.51C1342.21 1035.62 1348.56 1035.77 1354.9 1035.99L1354.86 1051.2C1353.54 1057.96 1353.9 1063.95 1353.93 1070.95C1348.5 1070.89 1341.77 1070.59 1336.44 1070.92L1335.08 1069.23C1334.3 1060.27 1334.68 1045.19 1334.71 1035.75C1328.42 1035.2 1321.11 1035.24 1314.74 1035.07C1314.94 1026.73 1314.91 1018.01 1314.98 1009.64C1306.37 1009.23 1300.71 1009.49 1292.08 1010.26C1292.03 1002.01 1291.79 997.971 1290.95 989.793C1290.79 984.159 1291.39 985.557 1289.42 981.244C1283.58 976.2 1275.18 978.425 1267.8 979.021L1267.77 954.908C1258.28 954.078 1251.39 954.383 1241.97 954.868L1241.99 930.786C1233.15 930.482 1224 930.491 1215.14 930.354C1215.4 921.581 1215.27 912.95 1215.19 904.178L1188 903.615C1187.93 895.595 1188.01 887.573 1188.26 879.559L1160.42 878.903C1160.07 873.039 1160.6 863.373 1160.82 857.147L1131.78 857.361L1131.95 836.021C1114.89 835.738 1097.82 835.638 1080.76 835.722L1080.7 814.305L1059.45 813.356C1056.27 811.983 1023.52 812.73 1018.48 812.79C1018.56 805.8 1018.9 799.28 1017.91 792.439C1012.85 791.832 1006.94 791.736 1001.85 791.862C984.819 792.283 967.332 791.159 950.35 792.343L949.003 791.786C929.698 792.986 904.764 792.165 885.086 792.232C850.135 792.617 815.181 792.531 780.231 791.975L778.908 791.444C757.907 793.88 730.494 789.863 710.923 792.16C710.018 799.068 710.267 806.015 710.306 813.039C703.995 813.088 651.497 812.699 648.9 814.329L648.635 835.819L596.67 835.995C595.975 842.826 596.265 850.344 596.333 857.3C597.418 864.474 597.069 872.241 597.003 879.606C588.05 879.622 578.617 879.94 569.751 878.721C569.773 884.359 569.999 891.071 569.367 896.545C568.617 892.743 568.342 883.179 568.125 878.838C562.098 878.905 556.072 878.847 550.046 878.661L540.842 879.225L540.659 903.305C531.519 903.182 522.014 902.712 513.017 904.822L513.046 930.179C504.616 930.31 495.257 930.189 486.912 930.884C486.771 938.184 486.449 946.813 486.577 953.997C477.995 954.007 469.364 953.74 460.849 955.094L460.795 978.7C451.542 978.026 441.764 974.726 435.662 985.327C435.903 992.174 435.338 1002.68 434.163 1009.35L415.167 1009C412.772 1014.4 413.341 1029.25 413.395 1035.73L393.478 1035.74C393.218 1047.85 393.156 1059.97 393.291 1072.09L374.706 1071.96C374.738 1082.16 374.641 1092.9 374.929 1103.05L358.025 1103.25C358.107 1116.66 358.153 1129.44 358.738 1142.84L342.477 1142.95C342.563 1157.28 342.467 1172.72 342.918 1186.93L325.091 1187.1C325.12 1197.23 325.401 1209.7 325.167 1219.65L325.451 1221.93C326.976 1251.44 325.988 1281.1 325.918 1310.67C325.851 1339.06 326.27 1367.37 325.581 1395.76C325.42 1410.69 325.318 1425.62 325.274 1440.55L345.867 1440.38L345.722 1491.2L364.93 1490.91L364.93 1540.68L385.18 1540.68C385.162 1546.74 384.235 1566.07 384.952 1570.16C390.229 1576.11 402.792 1568.03 405.347 1574.65C405.173 1581.84 404.652 1589.94 404.718 1596.93L425.766 1596.93C425.685 1601.75 424.813 1618.93 425.328 1622.09C429.783 1626.7 440.028 1619.11 437.252 1630.34C437.132 1635.75 436.9 1641.68 436.939 1647.04L460.226 1646.88L460.06 1669.47L486.014 1669.18L485.896 1695.49L513.884 1695.36L513.132 1722.62L541.104 1722.47L540.93 1746.37C549.693 1746.38 558.176 1746.37 566.944 1746.86C566.927 1740.45 566.784 1734.1 567.264 1727.73C568.554 1736.86 566.94 1777.54 566.856 1790.41C566.915 1799.95 567.041 1809.49 567.234 1819.04C558.057 1818.98 549.071 1819.01 539.901 1818.32L539.851 1795.93C530.191 1795.81 521.614 1795.63 511.959 1794.77C512.056 1799.28 512.534 1812.35 512.192 1816.16C505.422 1813.69 490.608 1807.35 486.197 1800.62C485.951 1799.16 485.216 1794.47 484.305 1793.46C476.512 1784.86 458.151 1785.29 459.753 1768.12L459.668 1765.2C443.209 1764.01 447.12 1755.4 437.116 1744.22C435.589 1742.83 435.562 1742.22 434.389 1740.06C429.155 1730.1 427.048 1733.76 419.475 1733.24C408.816 1732.5 416.07 1720.38 408.91 1710.85C407.519 1706.73 410.02 1707.04 406.423 1702.07C397.967 1698.74 392.527 1692.29 388.452 1682.11L387.631 1657.68C364.576 1656.24 370.466 1649.68 369.647 1623.06C346.957 1622.07 352.097 1614.95 352.021 1587.98C347.284 1587.85 341.228 1588.31 336.379 1588.53C335.866 1576.08 336.089 1559.91 335.991 1547.17L321.604 1546.5C320.879 1529.86 321.334 1507.5 321.311 1490.44C316.478 1490.18 310.404 1490.42 306.034 1488.26C304.207 1485.54 304.371 1483.7 304.339 1479.32C304.064 1442.02 304.177 1404.38 304.192 1367.1L304.067 1186.25C309.677 1185.92 316.763 1186.2 322.488 1186.21L322.432 1141.79L338.008 1142.19C337.835 1128.79 337.84 1115.39 338.022 1102L354.81 1101.95L354.855 1070.15L372.602 1070.34C372.914 1059.54 372.653 1045.77 372.662 1034.76C378.555 1034.48 384.504 1034.7 390.404 1034.81C391.595 1034.07 391.702 1033.7 392.728 1032.5C393.736 1026.72 393.374 1014.4 393.416 1007.74L412.445 1007.16C413.13 997.354 409.636 983.485 417.127 979.965C423.433 980.428 429.748 980.607 436.063 980.502C436.067 973.164 435.863 962.99 436.251 955.906C444.277 955.727 452.303 955.649 460.33 955.672C460.399 948.249 460.314 939.495 460.635 932.198C469.027 931.727 477.426 931.468 485.826 931.419C485.839 924.028 485.678 915.256 485.882 907.987L511.381 908.095L511.47 881.595C519.534 881.458 532.277 881.919 539.988 881.221L540.177 855.687C549.335 855.495 558.494 855.395 567.652 855.387L567.459 835.276C576.708 834.953 585.96 834.847 595.212 834.957L595.451 812.88C613.058 812.235 630.576 812.993 648.06 812.559C648.178 805.915 648.174 798.296 648.47 791.748C667.279 791.758 689.98 792.545 708.532 791.514Z"></path><defs><linearGradient id="gradient_0" gradientUnits="userSpaceOnUse" x1="511.74576" y1="1675.9539" x2="484.65289" y2="1770.1649"><stop offset="0" stop-color="#919190"></stop><stop offset="1" stop-color="#BEBEBC"></stop></linearGradient></defs><path fill="url(#gradient_0)" d="M436.939 1647.04L460.226 1646.88L460.06 1669.47L486.014 1669.18L485.896 1695.49L513.884 1695.36L513.132 1722.62L541.104 1722.47L540.93 1746.37C549.693 1746.38 558.176 1746.37 566.944 1746.86C566.927 1740.45 566.784 1734.1 567.264 1727.73C568.554 1736.86 566.94 1777.54 566.856 1790.41C566.915 1799.95 567.041 1809.49 567.234 1819.04C558.057 1818.98 549.071 1819.01 539.901 1818.32L539.851 1795.93C530.191 1795.81 521.614 1795.63 511.959 1794.77C512.056 1799.28 512.534 1812.35 512.192 1816.16C505.422 1813.69 490.608 1807.35 486.197 1800.62C485.951 1799.16 485.216 1794.47 484.305 1793.46C476.512 1784.86 458.151 1785.29 459.753 1768.12C467.911 1768.04 476.799 1768.63 485.008 1768.96C485.09 1776.82 485.508 1785.26 485.796 1793.16L512.012 1794.49L511.869 1771.3C508.935 1771.29 506.002 1771.27 503.069 1771.21C498.457 1771.12 489.02 1771.75 486.042 1767.67C484.665 1760.37 485.04 1752.54 485.051 1744.93C476.806 1744.95 468.004 1745.44 459.911 1743.75C460.051 1736.64 461.742 1723.04 456.411 1720.09L456.032 1718.62C451.099 1714.76 445.206 1717.83 437.699 1717.89C438.45 1707.14 439.32 1660.94 437.209 1651.25L436.939 1647.04Z"></path><path fill="#C4C4C2" d="M486.415 1744.01C490.425 1752.85 493.048 1759.2 498.63 1766.5C513.337 1765.66 511.398 1767.26 521.265 1781.29C526.079 1788.14 538.118 1791.56 545.195 1794.71C547.273 1801.14 547.742 1804.66 552.564 1807.26C561.083 1805.4 562.358 1777.91 565.787 1766.94C565.941 1771.29 566.253 1787.02 566.856 1790.41C566.915 1799.95 567.041 1809.49 567.234 1819.04C558.057 1818.98 549.071 1819.01 539.901 1818.32L539.851 1795.93C530.191 1795.81 521.614 1795.63 511.959 1794.77C512.056 1799.28 512.534 1812.35 512.192 1816.16C505.422 1813.69 490.608 1807.35 486.197 1800.62C485.951 1799.16 485.216 1794.47 484.305 1793.46C476.512 1784.86 458.151 1785.29 459.753 1768.12C467.911 1768.04 476.799 1768.63 485.008 1768.96C485.09 1776.82 485.508 1785.26 485.796 1793.16L512.012 1794.49L511.869 1771.3C508.935 1771.29 506.002 1771.27 503.069 1771.21C498.457 1771.12 489.02 1771.75 486.042 1767.67L486.415 1744.01Z"></path><path fill="#333332" d="M596.333 857.3C597.418 864.474 597.069 872.241 597.003 879.606C588.05 879.622 578.617 879.94 569.751 878.721C569.773 884.359 569.999 891.071 569.367 896.545C568.617 892.743 568.342 883.179 568.125 878.838C562.098 878.905 556.072 878.847 550.046 878.661C556.503 877.245 561.418 877.449 567.979 877.442L567.882 857.83C576.701 857.251 587.366 857.425 596.333 857.3Z"></path><path fill="#C4C4C2" d="M408.91 1710.85C418.985 1707.56 431.014 1706.4 434.864 1721.6C435.066 1727.23 435.708 1734.89 434.389 1740.06C429.155 1730.1 427.048 1733.76 419.475 1733.24C408.816 1732.5 416.07 1720.38 408.91 1710.85Z"></path><path fill="#C4C4C2" d="M437.116 1744.22C442.102 1742.34 453.575 1743.52 459.289 1743.75C459.611 1750.93 460.095 1758.03 459.668 1765.2C443.209 1764.01 447.12 1755.4 437.116 1744.22Z"></path><path fill="#C4C4C2" d="M388.452 1682.11C394.8 1681.97 401.151 1682.03 407.497 1682.3C407.567 1687.88 408.282 1697.53 406.423 1702.07C397.967 1698.74 392.527 1692.29 388.452 1682.11Z"></path><path fill="#C4C4C2" d="M437.209 1651.25C439.32 1660.94 438.45 1707.14 437.699 1717.89C445.206 1717.83 451.099 1714.76 456.032 1718.62L456.411 1720.09C449.506 1720.81 443.668 1720.45 436.801 1719.8C436.584 1696.93 436.094 1674.07 437.209 1651.25Z"></path><path fill="#C4C4C2" d="M1407.69 1547.3C1407.52 1555.39 1402.53 1569.21 1399.58 1576.59L1399.33 1577.19L1398.39 1580.93C1397.01 1581.44 1396 1581.87 1394.69 1582.7C1390.66 1602.22 1384.49 1618.6 1379.1 1637.49C1376 1648.37 1365.72 1660.23 1358.45 1667.2C1357.25 1672.41 1355.93 1678.72 1354.43 1683.69C1349.4 1688.56 1347.58 1690.24 1343.87 1697.08C1340.65 1703 1337.08 1710.78 1333.51 1716.16C1324.84 1729.23 1314.97 1741.02 1306.86 1754.81C1306.4 1755.62 1300.65 1756.84 1299.78 1757.44C1295.9 1760.44 1290.92 1767.63 1287.72 1771.89C1287.36 1775.01 1287.37 1775.52 1287.45 1778.7C1285.04 1780.43 1280.75 1779.49 1277.53 1779.35C1274.95 1782.49 1268.3 1790.28 1266.05 1793.79C1258.72 1805.26 1259.48 1801.38 1250.07 1804.71C1248.43 1805.29 1241.85 1819.58 1235.82 1823.01L1235.37 1825.04C1236.95 1827.06 1236.88 1826.94 1238.9 1828.12C1235.64 1830.56 1229.64 1829.36 1225.63 1828.99C1223.66 1831.23 1206.17 1852.25 1205.91 1852.29C1193.57 1854.02 1186.77 1869.43 1174.99 1874.25C1165.12 1877.15 1150.45 1889.58 1141.36 1892.43C1135.33 1894.31 1118.95 1904.87 1117.01 1905.18C1100.85 1907.74 1092.23 1910.24 1077.32 1920.32C1077.18 1921.67 1077.06 1923.02 1076.95 1924.37C1072.34 1926.67 1061.44 1924.54 1055.96 1925.65C1050.33 1926.78 1043.34 1931.45 1038.1 1932.45C1032.41 1933.53 1022.73 1930.62 1017.03 1931.65C1006.1 1933.61 995.809 1937.4 984.714 1938.85C976.142 1939.96 968.781 1935.6 961.195 1936.08C951.742 1936.67 940.262 1941.21 930.855 1941.65C921.656 1942.08 911.81 1937.25 902.404 1937.05C896.339 1936.93 888.328 1942.53 883.621 1942.37C871.771 1941.95 858.48 1938.15 846.619 1938.18C839.101 1938.21 830.746 1942.35 822.572 1942.87C814.533 1943.38 808.488 1940.04 801.448 1939.68C793.968 1939.3 783.67 1941.78 776.001 1941.9C763.469 1942.1 749.235 1938.28 737.066 1934.64C726.32 1941.73 707.439 1927.34 695.706 1924.97C691.357 1924.09 683.647 1925.33 678.915 1925.93C668.38 1912.8 645.496 1911.92 632.102 1907.54C624.545 1905.08 622.44 1897.58 611.611 1899.66C608.91 1900.18 602.336 1900.03 599.614 1898.98L599.831 1898.13C602.293 1897.44 605.776 1897.12 607.18 1895.09C605.761 1893.7 604.432 1892.79 602.725 1892.22C598.061 1890.66 593.883 1883.78 589.852 1881.56C574.708 1873.21 571.756 1882.75 564.018 1861.31C557.196 1857.52 548.043 1855.05 540.7 1852.73L536.723 1842.16C528.686 1835.92 518.458 1829.34 513.205 1819.4C520.352 1818.55 532.443 1819.1 539.954 1819.14L540.081 1837.68L566.979 1838.01L566.976 1856.01L595.979 1856.27L595.906 1876.42C612.856 1876.8 629.809 1876.85 646.761 1876.57C646.592 1882.71 646.89 1891.05 646.993 1897.38L707.78 1897.57L707.749 1918.87L906.188 1918.87C944.694 1918.79 982.375 1917.85 1021 1918.88L1021 1897.58L1082.42 1896.93L1082.59 1876.64L1133.01 1876.3L1133.14 1856.19C1142.52 1856.25 1152.14 1855.64 1161.53 1855.21L1161.63 1837.88C1170.52 1837.96 1179.95 1837.48 1188.88 1837.22L1189.27 1819.16C1198.13 1818.95 1206.99 1818.66 1215.85 1818.29C1215.81 1810.27 1216.54 1802.31 1217.12 1794.32C1225.65 1793.31 1234.4 1793.35 1242.97 1793.19C1243.38 1784.98 1243.72 1776.76 1244 1768.54L1268.7 1767.63L1269.01 1743.82C1276.97 1743.35 1284.93 1743.03 1292.9 1742.86C1293.01 1729.81 1294.76 1722.87 1296.38 1710.24C1304.7 1709.17 1312.7 1709.1 1321.04 1708.89C1321.14 1699.92 1321.16 1690.95 1321.09 1681.98L1339.93 1681.48L1339.96 1654.96L1357.8 1654.95L1357.99 1622.01C1365.05 1622.06 1369.13 1622.2 1376.05 1620.79L1376.07 1587.53L1391.73 1587.29C1392.37 1574.17 1392.11 1560.24 1392.07 1547.04L1407.69 1547.3Z"></path><path fill="#FCFCFB" d="M1399.33 1577.19L1396.82 1578.82L1395.35 1577.81C1392.88 1571 1392.04 1555.44 1396.31 1549.67C1399.72 1549.72 1401.81 1550.68 1405.15 1551.81L1405.55 1552.73L1403.5 1553.93C1400.37 1559.7 1398.88 1569.54 1399.58 1576.59L1399.33 1577.19Z"></path><path fill="#FCFCFB" d="M325.451 1221.93C366.515 1222.32 407.581 1222.26 448.645 1221.75C447.852 1279.55 447.786 1337.36 448.448 1395.16L371.905 1394.98C357.623 1394.95 339.626 1394.3 325.581 1395.76C326.27 1367.37 325.851 1339.06 325.918 1310.67C325.988 1281.1 326.976 1251.44 325.451 1221.93Z"></path><path fill="#FCFCFB" d="M1389.77 1221.64L1401.46 1221.91C1402.36 1236.13 1401.99 1254.38 1401.97 1268.95C1401.98 1297.78 1401.83 1326.62 1401.49 1355.45C1401.46 1362.76 1402.22 1391.5 1401.41 1395.48C1395.99 1394.68 1388.94 1394.97 1383.35 1395L1279.98 1395.16L1279.92 1221.76C1315.65 1222.28 1354.32 1223.67 1389.77 1221.64Z"></path><path fill="#FCFCFB" d="M780.231 791.975C815.181 792.531 850.135 792.617 885.086 792.232C904.764 792.165 929.698 792.986 949.003 791.786C947.871 801.014 947.99 827.065 947.967 836.993C947.797 863.001 947.956 889.01 948.445 915.011C929.403 916.66 904.835 915.94 885.513 915.959L780.231 915.901C780.544 874.594 780.544 833.283 780.231 791.975Z"></path><path fill="#FCFCFB" d="M514.675 1556.52L544.282 1556.71C544.299 1564.52 544.444 1573.1 544.244 1580.82L568.084 1580.91L568.073 1607.89L594.663 1608.03L594.793 1632.4C603.122 1632.37 611.719 1632.18 620.023 1632.38L619.997 1650.28L640.411 1650.27C640.276 1661.44 640.069 1672.73 640.035 1683.88C632.207 1683.43 624.715 1682.99 616.865 1682.99L617.145 1704.1L593.223 1703.97L593.388 1727.93C584.86 1727.88 575.74 1728.04 567.264 1727.73C566.784 1734.1 566.927 1740.45 566.944 1746.86C558.176 1746.37 549.693 1746.38 540.93 1746.37L541.104 1722.47L513.132 1722.62L513.884 1695.36L485.896 1695.49L486.014 1669.18L460.06 1669.47L460.226 1646.88L436.939 1647.04C436.9 1641.68 437.132 1635.75 437.252 1630.34L460.034 1630.27L460.041 1606.74L487.554 1606.84C487.167 1597.15 487.107 1590.09 487.345 1580.39L514.851 1580.52L514.675 1556.52Z"></path><path fill="#FCFCFB" d="M1185.05 1556.34C1195.01 1556.66 1204.98 1556.6 1214.95 1556.15L1214.77 1580.39L1242 1580.39L1241.97 1606.28L1268.37 1606.28L1268.28 1630.32C1273.64 1630.2 1286.3 1629.42 1291 1630.89L1291.68 1633.33C1291.27 1638.14 1290.99 1642.03 1290.84 1646.86L1268.15 1646.78L1268.2 1669.48L1242.88 1669.31L1243.15 1695.16L1215.26 1695.08L1215.33 1722.17L1188.01 1722.16L1188.25 1746.26L1160.98 1746.92L1161.02 1727.36C1152.85 1727.96 1143.68 1727.86 1135.42 1728.01L1135.78 1703.16L1112.1 1703.62L1112.26 1682.99C1104.73 1683.08 1096.94 1683.62 1089.39 1684L1089.27 1650.36L1109.01 1650.5L1109.04 1632.45C1117.3 1632.32 1125.8 1632.52 1134.08 1632.57L1134.07 1608.22C1143.05 1608.15 1152.03 1608.26 1161 1608.54L1161 1580.91L1184.87 1580.82L1185.05 1556.34Z"></path><path fill="#FCFCFB" d="M550.046 878.661C556.072 878.847 562.098 878.905 568.125 878.838C568.342 883.179 568.617 892.743 569.367 896.545L593.275 896.11L593.315 919.078C600.934 918.762 609.379 918.169 616.936 918.309L616.922 939.461C623.236 939.131 633.861 937.245 638.515 941.822C641.255 947.714 639.733 963.367 639.967 972L620.062 972L620.145 992.159L594.685 992.159L594.822 1016.86L568.072 1015.93L568.377 1041.83L545.896 1041.65L546.257 1066.39L515.67 1066.39L515.824 1040.25L487.801 1040.64L487.947 1012.83C478.919 1012.86 469.523 1013.04 460.527 1012.87L460.796 991.311C455.503 991.455 440.678 993.113 437.034 989.507L435.662 985.327C441.764 974.726 451.542 978.026 460.795 978.7L460.849 955.094C469.364 953.74 477.995 954.007 486.577 953.997C486.449 946.813 486.771 938.184 486.912 930.884C495.257 930.189 504.616 930.31 513.046 930.179L513.017 904.822C522.014 902.712 531.519 903.182 540.659 903.305L540.842 879.225L550.046 878.661Z"></path><path fill="#FCFCFB" d="M1160.42 878.903L1188.26 879.559C1188.01 887.573 1187.93 895.595 1188 903.615L1215.19 904.178C1215.27 912.95 1215.4 921.581 1215.14 930.354C1224 930.491 1233.15 930.482 1241.99 930.786L1241.97 954.868C1251.39 954.383 1258.28 954.078 1267.77 954.908L1267.8 979.021C1275.18 978.425 1283.58 976.2 1289.42 981.244C1291.39 985.557 1290.79 984.159 1290.95 989.793C1283.12 992.842 1274.93 988.871 1268.95 992.184C1267.44 997.022 1267.96 1006.81 1268 1012.38L1241.65 1012.16L1241.26 1040.38L1214.08 1040.39L1214.11 1066.27L1182.99 1066.39L1183.15 1041.65L1160.38 1041.84C1160.32 1033.64 1160.69 1024.41 1160.89 1016.14C1152.82 1017.05 1142.21 1016.77 1133.95 1016.84L1133.9 991.991L1108.04 992.246C1108.09 985.94 1108.55 978.338 1108.84 971.927L1089.32 972C1090.3 961.32 1090.07 950.069 1090.06 939.268L1112.97 939.482L1112.97 918.133C1121.1 918.166 1127.83 918.267 1135.99 919.056L1136.42 895.725L1159.58 895.987C1160.88 889.924 1160.54 885.117 1160.42 878.903Z"></path><defs><linearGradient id="gradient_1" gradientUnits="userSpaceOnUse" x1="1211.6682" y1="1676.2521" x2="1242.251" y2="1788.7045"><stop offset="0" stop-color="#898887"></stop><stop offset="1" stop-color="#C2C2C0"></stop></linearGradient></defs><path fill="url(#gradient_1)" d="M1291.68 1633.33C1292.97 1645.35 1291.88 1706.09 1291.08 1720.07L1268.99 1720.17L1269.01 1743.82C1259.98 1744.54 1252.57 1744.94 1243.49 1744.94C1243.39 1753.22 1243.17 1761.49 1242.83 1769.75L1216.82 1770.93C1216.74 1778.82 1216.58 1786.71 1216.36 1794.6C1207.29 1795.06 1198.22 1795.4 1189.15 1795.61C1189.06 1803.14 1188.91 1810.82 1188.9 1818.33C1179.74 1818.66 1170.58 1818.89 1161.42 1819.04C1161.42 1795.52 1161.75 1770.29 1160.98 1746.92L1188.25 1746.26L1188.01 1722.16L1215.33 1722.17L1215.26 1695.08L1243.15 1695.16L1242.88 1669.31L1268.2 1669.48L1268.15 1646.78L1290.84 1646.86C1290.99 1642.03 1291.27 1638.14 1291.68 1633.33Z"></path><path fill="#333332" d="M1383.35 1395C1388.94 1394.97 1395.99 1394.68 1401.41 1395.48C1401.03 1397.46 1402.03 1435.46 1402.07 1440.08L1381.1 1439.92L1381.46 1490.3L1362.89 1489.86C1363.24 1506.61 1363.25 1523.81 1363.41 1540.6C1356.65 1540.18 1349.32 1540.21 1342.51 1540.07C1343.07 1549.86 1343.05 1561.71 1343.22 1571.67L1321.78 1571.04C1321.96 1579.48 1321.89 1588.4 1321.93 1596.88L1299.37 1596.46C1300.12 1604.18 1300.15 1614.85 1300.34 1622.87C1294.67 1623.17 1283.61 1624.69 1278.8 1621.21C1272.29 1616.5 1275.16 1603.72 1278.4 1596.91C1282.07 1593.23 1292.32 1595.01 1297.42 1595.37L1297.54 1570.64L1320.47 1570.65L1320.4 1538.92L1341.31 1539.17C1341.54 1522.85 1341.45 1506.51 1341.05 1490.19L1361.34 1490.38C1360.78 1474 1361.05 1455.3 1361.03 1438.74L1380.68 1438.8C1380.17 1423.02 1379.44 1409.99 1383.35 1395Z"></path><path fill="#333332" d="M1290.95 989.793C1291.79 997.971 1292.03 1002.01 1292.08 1010.26C1300.71 1009.49 1306.37 1009.23 1314.98 1009.64C1314.91 1018.01 1314.94 1026.73 1314.74 1035.07C1321.11 1035.24 1328.42 1035.2 1334.71 1035.75C1334.68 1045.19 1334.3 1060.27 1335.08 1069.23L1336.44 1070.92C1341.56 1072.55 1347.62 1072.12 1352.94 1072.12L1352.69 1103.04L1370.2 1103.49C1369.69 1116.81 1369.89 1129.62 1369.57 1142.8L1384.92 1142.64C1384.82 1157 1384.95 1172.82 1384.53 1187.05L1402.24 1187.47C1402.26 1199.68 1402.31 1209.68 1401.46 1221.91L1389.77 1221.64C1387.21 1219.19 1384.24 1219.93 1380.98 1220.07L1381.05 1187.99L1363.09 1188.11C1363.01 1173.86 1362.64 1155.66 1364.19 1141.97L1347.95 1142.96C1348.03 1129.14 1348.18 1117.38 1348.91 1103.59L1331.96 1103.89L1332.33 1072.01L1311.81 1072.17L1311.97 1036.23L1290.81 1036.43L1291.01 1012.23C1284.16 1012.65 1276.9 1012.55 1270.02 1012.61C1270.06 1010.93 1270.09 1009.24 1270.11 1007.56C1270.17 1003.21 1270.9 994.897 1268.95 992.184C1274.93 988.871 1283.12 992.842 1290.95 989.793Z"></path><path fill="#333332" d="M415.167 1009L434.163 1009.35C439.454 1014.18 437.442 1029.08 437.082 1037.16C430.161 1036.92 422.9 1036.81 416.015 1036.37L416.427 1072.19L396.327 1071.96L396.482 1103.72L380.385 1103.39L381.376 1142.7L364.458 1142.21C364.921 1157.44 365.199 1172.67 365.291 1187.9L346.775 1187.83C346.838 1198.62 347.037 1209.29 346.374 1220.05C339.103 1220.17 332.454 1220.34 325.167 1219.65C325.401 1209.7 325.12 1197.23 325.091 1187.1L342.918 1186.93C342.467 1172.72 342.563 1157.28 342.477 1142.95L358.738 1142.84C358.153 1129.44 358.107 1116.66 358.025 1103.25L374.929 1103.05C374.641 1092.9 374.738 1082.16 374.706 1071.96L393.291 1072.09C393.156 1059.97 393.218 1047.85 393.478 1035.74L413.395 1035.73C413.341 1029.25 412.772 1014.4 415.167 1009Z"></path><path fill="#333332" d="M1059.45 813.356L1080.7 814.305L1080.76 835.722C1097.82 835.638 1114.89 835.738 1131.95 836.021L1131.78 857.361L1160.82 857.147C1160.6 863.373 1160.07 873.039 1160.42 878.903C1160.54 885.117 1160.88 889.924 1159.58 895.987C1159.05 891.668 1159.28 883.475 1159.3 878.808C1149.81 879.185 1140.32 879.25 1130.84 879.001L1131.33 857.166L1080.69 857.476L1080.83 836.102C1059.72 835.784 1038.6 835.787 1017.49 836.112C1017.55 828.685 1018 821.121 1018.36 813.7C1030.3 813.749 1047.95 814.513 1059.45 813.356Z"></path><path fill="#333332" d="M648.9 814.329C668.8 815.93 690.846 814.557 710.925 814.272L711.307 836.782C690.55 836.412 669.789 836.391 649.031 836.717L648.819 857.145C631.711 857.198 614.415 857.434 597.324 857.202C597.306 851.143 597.531 841.55 596.67 835.995L648.635 835.819L648.9 814.329Z"></path><path fill="#333332" d="M710.923 792.16C730.494 789.863 757.907 793.88 778.908 791.444C778.276 799.185 778.305 803.811 778.362 811.566C763.892 814.891 727.307 813.445 711.361 813.289C711.358 807.409 711.557 797.667 710.923 792.16Z"></path><path fill="#333332" d="M950.35 792.343C967.332 791.159 984.819 792.283 1001.85 791.862C1006.94 791.736 1012.85 791.832 1017.91 792.439C1017.15 797.582 1017.36 807.459 1017.35 813.133C994.946 812.964 972.402 813.338 950.04 812.97C949.701 804.332 949.686 800.911 950.35 792.343Z"></path><path fill="#333332" d="M777.114 958.166L951.795 958.159L951.668 978.759C971.114 978.255 990.565 978.128 1010.01 978.376L1009.94 998.931L1050.2 998.843L1049.98 1020.27L1084.03 1020.18C1083.85 1027.28 1083.61 1034.57 1083.54 1041.65L1109.89 1041.92L1109.57 1064.28L1133.12 1064.09C1132.97 1070.92 1131.39 1083.51 1135.55 1087.77C1140.65 1086.08 1152.11 1086.66 1157.85 1086.68L1158.03 1112.99L1181.68 1113.51L1181.54 1144.18L1201.36 1144.42L1201.4 1183.22L1221.02 1183.35C1220.95 1201.46 1220.69 1220.22 1221.13 1238.26L1241.57 1238C1241.39 1272.81 1241.36 1307.61 1241.47 1342.42C1241.51 1356.67 1240.96 1377.99 1241.67 1391.56L1220.31 1391.43C1220.48 1410.52 1220.52 1429.9 1220.87 1448.96L1200.87 1448.96L1200.91 1489.97C1194.12 1490.14 1187.21 1490.23 1180.43 1490.54C1181.96 1523.81 1182.04 1522.05 1157.89 1521.99C1158.02 1529.37 1159.1 1540.64 1155.09 1546.51C1150.64 1553.02 1142.1 1543.41 1137.36 1547.81C1132.6 1552.22 1133.9 1564.52 1134.14 1571.09L1110.21 1571.62C1110.25 1577.35 1110.61 1589.1 1109.72 1594.21C1104.22 1595.31 1096.42 1594.9 1090.65 1594.84C1089.45 1598.21 1089.18 1598.61 1087.01 1600.97C1088.51 1605.17 1088.19 1611.22 1087.44 1615.69L1086.21 1617.39C1085.42 1617.15 1083.82 1616.82 1083.25 1616.3L1081.54 1616.69C1071.37 1616.88 1061.21 1616.94 1051.05 1616.86L1051.06 1640.12C1041.46 1640.11 1028.02 1639.54 1018.74 1640.21C1013.96 1643.66 1012.35 1646.15 1010.89 1653.19L1009.16 1653.86C1009.02 1658.54 1009.7 1656.96 1008.08 1660.14C997.438 1661.89 964.558 1660.5 952.013 1660.33L951.923 1681.74L775.426 1681.74C775.617 1674.69 775.697 1667.51 775.829 1660.44C767.126 1660.58 725.409 1662.2 719.618 1658.96C717.946 1653.54 718.476 1646.2 718.375 1639.94C705.211 1638.81 690.884 1639.62 677.596 1640.05L677.41 1616.83L645.693 1616.91L645.54 1595.36C636.708 1595.43 627.877 1595.21 619.054 1594.68L619.124 1572.54L595.552 1571.73C594.705 1565.88 594.976 1554.92 594.983 1548.56C587.824 1547.9 579.207 1548.13 571.925 1548.09L571.937 1522.01L548.972 1522.09C548.891 1511.57 549.015 1501.06 549.344 1490.55C541.745 1490.55 535.659 1490.41 528.1 1489.67C527.871 1476.48 528.143 1462.3 528.236 1449.02L507.939 1449.02L507.986 1391.55C502.49 1391.55 492.677 1392.17 487.718 1390.79L487.207 1389.57C486.44 1377.73 487.17 1350.75 487.182 1338.03L486.936 1238.35L507.233 1238.48C507.401 1220.26 507.395 1202.04 507.214 1183.82L527.7 1183.81C527.137 1149.83 519.572 1144 547.834 1145L547.865 1113.4L570.78 1113.39L570.983 1087.02L594.887 1087.16C594.824 1079.95 594.46 1072.76 595.545 1065.77C603.573 1063.39 610.444 1063.97 618.628 1064.41L618.508 1041.84L645.331 1041.84L645.384 1020.09L678.25 1020.27L678.179 999.003L717.808 998.985L717.922 978.538C737.638 978.09 757.359 978.165 777.073 978.762L777.114 958.166Z"></path><path fill="#F5C459" d="M777.114 958.166L951.795 958.159L951.668 978.759C971.114 978.255 990.565 978.128 1010.01 978.376L1009.94 998.931L1050.2 998.843L1049.98 1020.27L1084.03 1020.18C1083.85 1027.28 1083.61 1034.57 1083.54 1041.65L1109.89 1041.92L1109.57 1064.28L1133.12 1064.09C1132.97 1070.92 1131.39 1083.51 1135.55 1087.77L1135.46 1089.01L1133.29 1090.29L1132.23 1089.06C1128.4 1087.56 1111.87 1087.95 1107.06 1087.92L1107.35 1065.48L1083.08 1065.49L1083.23 1042.87L1049.53 1042.87L1049.33 1021.38L1009.93 1021.5L1009.94 1001.02C990.441 1001.37 970.943 1001.41 951.446 1001.16L952 981.001L777.036 980.998L777.027 1001.24C757.427 1000.93 737.572 1001.96 718.007 1000.87L717.45 1021.62C707.501 1021.45 688.557 1020.7 679.151 1022.46L679.133 1023.97C678.036 1030.6 678.221 1036.04 678.218 1042.76C667.935 1042.66 656.285 1042.25 646.134 1042.77C646.109 1049.23 646.28 1058.68 645.936 1064.9C637.042 1065.68 629.694 1065.77 620.81 1065.54L620.928 1088.17C614.544 1086.94 602.857 1087.47 596.015 1087.51C596.061 1079.71 596.159 1073.54 595.545 1065.77C603.573 1063.39 610.444 1063.97 618.628 1064.41L618.508 1041.84L645.331 1041.84L645.384 1020.09L678.25 1020.27L678.179 999.003L717.808 998.985L717.922 978.538C737.638 978.09 757.359 978.165 777.073 978.762L777.114 958.166Z"></path><path fill="#F0BE4A" d="M1109.96 1067.09C1122.25 1063.8 1132.42 1065.68 1129.14 1085.63C1123.69 1085.88 1114.04 1088.55 1110.41 1084.31C1109.05 1079.26 1109.75 1072.68 1109.96 1067.09Z"></path><path fill="#F0BE4A" d="M1135.55 1087.77C1140.65 1086.08 1152.11 1086.66 1157.85 1086.68L1158.03 1112.99L1181.68 1113.51L1181.54 1144.18L1201.36 1144.42L1201.4 1183.22L1221.02 1183.35C1220.95 1201.46 1220.69 1220.22 1221.13 1238.26L1241.57 1238C1241.39 1272.81 1241.36 1307.61 1241.47 1342.42C1241.51 1356.67 1240.96 1377.99 1241.67 1391.56L1220.31 1391.43C1220.48 1410.52 1220.52 1429.9 1220.87 1448.96L1200.87 1448.96L1200.91 1489.97C1194.12 1490.14 1187.21 1490.23 1180.43 1490.54C1181.96 1523.81 1182.04 1522.05 1157.89 1521.99C1158.02 1529.37 1159.1 1540.64 1155.09 1546.51C1150.64 1553.02 1142.1 1543.41 1137.36 1547.81C1132.6 1552.22 1133.9 1564.52 1134.14 1571.09L1110.21 1571.62C1110.25 1577.35 1110.61 1589.1 1109.72 1594.21C1109.08 1590.48 1109.07 1576.16 1108.98 1571.51L1108.75 1547.12L1133.34 1547.12C1133.19 1541.22 1132.48 1526.45 1133.8 1521.35L1135.86 1520.53C1143.27 1521.25 1148.89 1521.23 1156.34 1521.08C1155.03 1511.79 1157.64 1497.29 1154.48 1491.21L1154.71 1489.49C1158.49 1485.35 1168.48 1487.01 1174.58 1486.85C1175.16 1478.26 1173.58 1454.75 1176.23 1449.98C1180.06 1448.14 1192.21 1448.76 1197.04 1448.8C1196.92 1436.55 1196.07 1401.98 1197.7 1392.26C1200.39 1390 1201.44 1390.77 1205.17 1390.52C1208.15 1391.05 1214.83 1390.77 1218.12 1390.77C1217.66 1340.41 1217.78 1290.05 1218.48 1239.71C1212.66 1238.34 1203.26 1238.75 1197.09 1238.78L1197.26 1183.55L1177.9 1183.54C1177.92 1170.66 1178.01 1157.77 1178.16 1144.89C1171.05 1144.87 1163.93 1144.73 1156.82 1144.49L1156.96 1113.56L1132.16 1113.06L1132.23 1089.06L1133.29 1090.29L1135.46 1089.01L1135.55 1087.77Z"></path><path fill="#20201F" d="M1174.58 1486.85C1175.16 1478.26 1173.58 1454.75 1176.23 1449.98C1178.63 1461.69 1176.77 1477.64 1177.81 1489.97L1156.9 1490.39C1156.92 1496.63 1157.29 1516.01 1156.34 1521.08C1155.03 1511.79 1157.64 1497.29 1154.48 1491.21L1154.71 1489.49C1158.49 1485.35 1168.48 1487.01 1174.58 1486.85Z"></path><path fill="#F5C459" d="M596.033 1547.93L620.908 1547.94L620.711 1571.66C639.81 1572.05 647.656 1563.64 646.326 1593.59C653.947 1595.02 673.365 1592.62 678.216 1595.21C677.688 1602.06 677.584 1606.03 677.613 1612.9L678.52 1616.38L679.824 1615.92C692.117 1616.78 706.927 1614.51 718.23 1617.3L717.802 1636.53C733.306 1639.6 766.223 1634.33 775.329 1638.49C775.94 1639.6 776.191 1639.84 776.561 1641.09C777.801 1646.21 776.351 1647.62 777.597 1651.47L778.635 1650.13C780.804 1650.85 785.713 1653.45 787.232 1653.45C799.662 1653.46 812.037 1654.11 824.459 1654.53C865.382 1655.59 906.318 1655.3 947.231 1653.69C948.707 1647.86 948.735 1644.41 951.294 1638.99C951.766 1638.5 952.238 1638.01 952.711 1637.53C968.94 1637.97 994.533 1636.4 1009.63 1637.66C1009.44 1629.13 1009.51 1625.09 1010.18 1616.63C1018.88 1616.78 1042.37 1617.79 1050.1 1615.99C1051.56 1612.48 1051.13 1610.78 1051.24 1606.39C1053.98 1611.92 1052.86 1611.32 1058.4 1613.16C1065.71 1615.58 1074.6 1612.75 1081 1607.48C1082.28 1609.77 1081.62 1613.02 1081.54 1616.69C1071.37 1616.88 1061.21 1616.94 1051.05 1616.86L1051.06 1640.12C1041.46 1640.11 1028.02 1639.54 1018.74 1640.21C1013.96 1643.66 1012.35 1646.15 1010.89 1653.19L1009.16 1653.86C1009.02 1658.54 1009.7 1656.96 1008.08 1660.14C997.438 1661.89 964.558 1660.5 952.013 1660.33L951.923 1681.74L775.426 1681.74C775.617 1674.69 775.697 1667.51 775.829 1660.44C767.126 1660.58 725.409 1662.2 719.618 1658.96C717.946 1653.54 718.476 1646.2 718.375 1639.94C705.211 1638.81 690.884 1639.62 677.596 1640.05L677.41 1616.83L645.693 1616.91L645.54 1595.36C636.708 1595.43 627.877 1595.21 619.054 1594.68L619.124 1572.54L595.552 1571.73C596.387 1564.8 596.084 1555.13 596.033 1547.93Z"></path><path fill="#F0BE4A" d="M952.216 1644.91C957.758 1637.83 955.13 1639.13 962.078 1639.14C975.71 1639.17 993.821 1641.31 1007.02 1639.5C1007.13 1645.02 1007.44 1651.31 1006.9 1656.71C1001.73 1659.82 975.296 1657.81 968.51 1657.55C964.089 1657.38 959.132 1659.1 954.74 1658.05C953.881 1654.71 954.314 1654.31 954.765 1650.52L953.896 1648.85C953.711 1652.73 953.915 1654.68 952.884 1658.21C952.048 1654.16 952.241 1649.19 952.216 1644.91Z"></path><path fill="#161616" d="M947.231 1653.69C948.707 1647.86 948.735 1644.41 951.294 1638.99L952.216 1644.91C952.241 1649.19 952.048 1654.16 952.884 1658.21C893.912 1657.89 834.938 1657.97 775.966 1658.46C775.831 1651.15 775.849 1648.46 776.561 1641.09C777.801 1646.21 776.351 1647.62 777.597 1651.47L778.635 1650.13C780.804 1650.85 785.713 1653.45 787.232 1653.45C799.662 1653.46 812.037 1654.11 824.459 1654.53C865.382 1655.59 906.318 1655.3 947.231 1653.69Z"></path><path fill="#F0BE4A" d="M677.613 1612.9L676.244 1609.7C669.368 1611.74 651.625 1616.65 648.529 1605.1C651.435 1593.47 669.24 1598.61 676.636 1598.7L678.216 1595.21C677.688 1602.06 677.584 1606.03 677.613 1612.9Z"></path><path fill="#161616" d="M1009.16 1653.86C1009.01 1649.55 1008.39 1644.91 1009.91 1641.31C1012.56 1639.24 1015.58 1640 1018.74 1640.21C1013.96 1643.66 1012.35 1646.15 1010.89 1653.19L1009.16 1653.86Z"></path><path fill="#F0BE4A" d="M1018.44 1621.64C1024.28 1621.24 1047.2 1618.52 1048.11 1628.54C1046.67 1632.25 1045.96 1632.57 1043.41 1634.88C1036.7 1635.24 1016.14 1638.53 1014.22 1628.71C1014.99 1625.16 1016.35 1624.11 1018.44 1621.64Z"></path><path fill="#F0BE4A" d="M595.545 1065.77C596.159 1073.54 596.061 1079.71 596.015 1087.51C602.857 1087.47 614.544 1086.94 620.928 1088.17C614.584 1089.52 602.789 1088.92 595.958 1088.95L595.903 1113.56L572.046 1113.56L572.19 1145.12L550.348 1145.12L550.838 1183.54L530.584 1183.77C530.826 1202.1 530.963 1220.43 530.994 1238.76L509.723 1238.75C510.724 1270.39 511.181 1302.06 511.096 1333.72C511.103 1352.1 511.319 1372.89 509.965 1391.05L531.478 1391.05C531.429 1409.67 531.629 1429.61 531.046 1448.11L551.893 1448.69C551.861 1455.54 551.492 1469.42 551.94 1475.73L551.718 1489.81L572.766 1489.94L572.747 1521.11C579.894 1521.29 588.929 1521.19 595.907 1522.03C595.896 1528.82 595.585 1541.62 596.033 1547.93C596.084 1555.13 596.387 1564.8 595.552 1571.73C594.705 1565.88 594.976 1554.92 594.983 1548.56C587.824 1547.9 579.207 1548.13 571.925 1548.09L571.937 1522.01L548.972 1522.09C548.891 1511.57 549.015 1501.06 549.344 1490.55C541.745 1490.55 535.659 1490.41 528.1 1489.67C527.871 1476.48 528.143 1462.3 528.236 1449.02L507.939 1449.02L507.986 1391.55C502.49 1391.55 492.677 1392.17 487.718 1390.79L487.207 1389.57C486.44 1377.73 487.17 1350.75 487.182 1338.03L486.936 1238.35L507.233 1238.48C507.401 1220.26 507.395 1202.04 507.214 1183.82L527.7 1183.81C527.137 1149.83 519.572 1144 547.834 1145L547.865 1113.4L570.78 1113.39L570.983 1087.02L594.887 1087.16C594.824 1079.95 594.46 1072.76 595.545 1065.77Z"></path><path fill="#F5C459" d="M487.207 1389.57L487.976 1384.05C489.718 1382.83 489.419 1383.16 491.441 1382.64C499.689 1386.18 499.92 1390.39 508.271 1384.1L508.93 1385.04C508.041 1388.83 508.844 1387.73 507.014 1389.98C502.1 1389.98 492.075 1389.61 487.718 1390.79L487.207 1389.57Z"></path><path fill="#F0BE4A" d="M1083 1571.62L1108.98 1571.51C1109.07 1576.16 1109.08 1590.48 1109.72 1594.21C1104.22 1595.31 1096.42 1594.9 1090.65 1594.84C1089.45 1598.21 1089.18 1598.61 1087.01 1600.97C1088.51 1605.17 1088.19 1611.22 1087.44 1615.69L1086.21 1617.39C1085.42 1617.15 1083.82 1616.82 1083.25 1616.3L1081.54 1616.69C1081.62 1613.02 1082.28 1609.77 1081 1607.48C1074.6 1612.75 1065.71 1615.58 1058.4 1613.16C1052.86 1611.32 1053.98 1611.92 1051.24 1606.39L1051.12 1594.3C1060.76 1592.39 1072.53 1593.06 1082.42 1593.33C1082.35 1587.25 1081.92 1577.15 1083 1571.62Z"></path><path fill="#F5C459" d="M1083 1571.62L1108.98 1571.51C1109.07 1576.16 1109.08 1590.48 1109.72 1594.21C1102.94 1593 1090.9 1593.53 1083.69 1593.57C1083.73 1586.4 1084.1 1578.54 1083 1571.62Z"></path><path fill="#F0BE4A" d="M1094.8 1576.53C1099.17 1575.39 1102.46 1575.85 1105.75 1579.83C1106.68 1583.64 1106.66 1581.74 1105.57 1585.74C1103.33 1589.05 1100.43 1589.05 1097.05 1589.79C1092.21 1590.96 1088.42 1589.98 1085.56 1584.39C1085.35 1580.35 1085.01 1582.2 1086.74 1578.7C1089.38 1576.35 1091.57 1576.73 1094.8 1576.53Z"></path><defs><linearGradient id="gradient_2" gradientUnits="userSpaceOnUse" x1="1082.5259" y1="1604.4801" x2="1088.5227" y2="1607.0656"><stop offset="0" stop-color="#101113"></stop><stop offset="1" stop-color="#2D2A21"></stop></linearGradient></defs><path fill="url(#gradient_2)" d="M1083.25 1616.3C1082.96 1609.55 1081.9 1602.26 1083.9 1596.58C1086.72 1593.93 1086.41 1594.86 1090.65 1594.84C1089.45 1598.21 1089.18 1598.61 1087.01 1600.97C1088.51 1605.17 1088.19 1611.22 1087.44 1615.69L1086.21 1617.39C1085.42 1617.15 1083.82 1616.82 1083.25 1616.3Z"></path><path fill="#161616" d="M551.94 1475.73C554.318 1469.96 551.569 1455.12 553.376 1449.67L554.301 1450.16C557.091 1460.64 554.588 1478.5 556.623 1487.52C558.671 1488.64 569.867 1485.77 573.66 1489.62C579.215 1495.26 577.374 1511.17 577.101 1519.37C594.921 1518.42 601.198 1514.31 600.237 1542.55C606.984 1542.88 617.738 1542.13 622.622 1548.72C627.486 1555.27 620.806 1567.95 629.373 1570.75C633.977 1572.26 643.549 1564.93 647.58 1571.25C651.75 1577.78 645.469 1589.9 654.928 1591.56C660.16 1592.48 668.106 1591.06 672.938 1592.07C664.355 1593.58 653.903 1592.11 646.326 1593.59C647.656 1563.64 639.81 1572.05 620.711 1571.66L620.908 1547.94L596.033 1547.93C595.585 1541.62 595.896 1528.82 595.907 1522.03C588.929 1521.19 579.894 1521.29 572.747 1521.11L572.766 1489.94L551.718 1489.81L551.94 1475.73Z"></path><path fill="#161616" d="M1218.48 1239.71C1217.78 1290.05 1217.66 1340.41 1218.12 1390.77C1214.83 1390.77 1208.15 1391.05 1205.17 1390.52C1201.96 1389.38 1202.75 1391.08 1200.22 1388.2L1199.36 1388.86L1199.42 1388.13C1202.65 1387.68 1210.63 1386.8 1213.08 1385.43C1215.69 1383.97 1213.97 1361.46 1213.95 1356.63L1213.72 1263.61C1213.75 1257.51 1215.56 1246.44 1213.48 1242.03C1209.56 1239.87 1207.5 1243.19 1204.07 1241.39L1204.62 1241.97L1204.08 1240.46C1208.88 1240.32 1213.68 1240.07 1218.48 1239.71Z"></path><path fill="#161616" d="M1154.48 1491.21C1157.64 1497.29 1155.03 1511.79 1156.34 1521.08C1148.89 1521.23 1143.27 1521.25 1135.86 1520.53C1138.86 1518.03 1147.53 1517.96 1151.11 1519.64C1151.77 1517.92 1153.89 1495.6 1154.48 1491.21Z"></path><path fill="#161616" d="M679.133 1023.97L679.151 1022.46L680.158 1022.59C690.736 1023.8 700.72 1022.3 711.44 1023.93C704.463 1025.41 693.689 1023.44 685.404 1023.98C683.147 1031.28 681.591 1036.61 679.827 1044.13C679.666 1038.29 679.604 1029.52 679.133 1023.97Z"></path><path fill="#161616" d="M678.52 1616.38C678.552 1612.9 678.493 1596.69 679.07 1594.51C681.933 1605.2 678.981 1610.8 685.244 1614.85L679.824 1615.92L678.52 1616.38Z"></path><path fill="#FCFCFB" d="M760.22 1055.16C828.932 1055.81 897.648 1055.75 966.36 1055.01L966.128 1093.72L1006.7 1093.62L1006.31 1134.16L1047.03 1134.07L1046.93 1198.85L926.179 1198.98C926.252 1183.15 926.188 1166.92 926.469 1151.13C903.392 1152.83 876.675 1151.66 853.283 1151.97C840.542 1152.15 813.875 1152.94 802.426 1151.03C802.858 1187.41 802.797 1223.79 802.241 1260.16L966.979 1260L966.936 1294.15L1008.11 1293.9C1008.05 1307.14 1008.17 1321.68 1007.77 1334.81L1050.26 1334.25C1049.53 1389.71 1049.39 1445.17 1049.82 1500.64C1036.07 1500.69 1021.94 1500.96 1008.22 1500.65L1008.2 1542.49L966.802 1542.17L966.844 1583.72C897.961 1582.89 829.074 1582.93 760.192 1583.84C760.274 1575.84 761.498 1546.59 759.237 1542.5L758.938 1543.17C748.227 1550.69 747.444 1550.59 734.285 1550.93C730.14 1551.04 721.829 1550.59 718.971 1546.83L719.441 1544.77C721.931 1543.4 723.449 1543.44 726.098 1543.12C723.172 1542.78 720.543 1542.98 718.154 1541.13C716.179 1533.46 717.322 1510.3 717.548 1501.16C704.109 1501.56 690.666 1501.77 677.223 1501.78L677.675 1435.52L798.063 1435.16C797.969 1451.98 798.089 1469.93 797.54 1486.64C825.056 1486.24 852.573 1486.05 880.09 1486.06C893.095 1486.04 913.739 1485.3 926.109 1486.88C925.733 1448.45 925.1 1409.65 926.386 1371.27C870.969 1371.02 815.55 1371.18 760.134 1371.75L760.201 1334.09L717.94 1334.35L718.027 1294.67L677.375 1294.95C677.696 1241.93 678.49 1187.08 677.393 1134.18C689.929 1134.09 706.66 1133.44 718.783 1134.81C718.712 1121.28 718.45 1106.96 718.788 1093.5L760.332 1093.85L760.22 1055.16Z"></path><path fill="#20201F" d="M726.098 1543.12C731.384 1541.88 753.831 1541.71 759.237 1542.5L758.938 1543.17C748.227 1550.69 747.444 1550.59 734.285 1550.93C730.14 1551.04 721.829 1550.59 718.971 1546.83L719.441 1544.77C721.931 1543.4 723.449 1543.44 726.098 1543.12Z"></path><path fill="#FCFCFB" d="M779.465 1717.92L890.101 1717.16C903.856 1717.09 935.815 1715.85 947.951 1717.38C948.426 1720.87 948.374 1721.62 948.369 1725.07C950.386 1735.87 949.144 1786.5 949.101 1801C948.481 1810.66 949.1 1827.53 948.332 1834.8C947.563 1856.15 947.643 1875.12 947.947 1896.5C894.807 1896.55 832.086 1898.88 779.55 1895.61C779.931 1887.66 780.514 1849.87 779.697 1842.32C779.109 1828.12 779.971 1811.98 778.915 1798.4C778.796 1785.01 777.706 1728.02 779.465 1717.92Z"></path><defs><linearGradient id="gradient_3" gradientUnits="userSpaceOnUse" x1="863.28326" y1="1834.7424" x2="863.87457" y2="1894.795"><stop offset="0" stop-color="#969593"></stop><stop offset="1" stop-color="#BBBBBA"></stop></linearGradient></defs><path fill="url(#gradient_3)" d="M778.915 1798.4C778.796 1785.01 777.706 1728.02 779.465 1717.92C780.465 1727.8 780.171 1748.08 780.223 1758.59L780.543 1834.7L947.337 1834.89L947.848 1764.82C947.938 1753.17 947.712 1736.29 948.369 1725.07C950.386 1735.87 949.144 1786.5 949.101 1801C948.481 1810.66 949.1 1827.53 948.332 1834.8C947.563 1856.15 947.643 1875.12 947.947 1896.5C894.807 1896.55 832.086 1898.88 779.55 1895.61C779.931 1887.66 780.514 1849.87 779.697 1842.32C779.109 1828.12 779.971 1811.98 778.915 1798.4Z"></path><path fill="#333332" d="M1115.49 1754.43C1129.76 1753.97 1144.04 1753.83 1158.31 1754.02L1158.52 1774.77C1148.12 1777.62 1128.29 1776.58 1117.06 1776.47L1116.98 1796.44C1104.82 1795.82 1092.65 1795.63 1080.48 1795.88C1080.48 1801.74 1080.56 1808.06 1080.46 1813.88C1059.55 1813.97 1039.73 1813.61 1018.93 1813.3C1019.7 1822.17 1019.77 1826.67 1019.68 1835.64C1013.29 1835.64 949.132 1834.22 948.332 1834.8C949.1 1827.53 948.481 1810.66 949.101 1801C949.394 1807.32 949.622 1813.64 949.784 1819.96C950.088 1817.14 950.333 1814.69 950.539 1811.84C973.046 1810.58 996.15 1811.01 1018.72 1811.31L1018.61 1790.78C1039.06 1790.48 1059.51 1790.54 1079.95 1790.96L1079.9 1773.44C1091.89 1773.22 1103.88 1773.12 1115.87 1773.14L1115.49 1754.43Z"></path><path fill="#333332" d="M570.377 1754.95C584.683 1753.56 600.32 1754.11 614.783 1754.3L614.096 1773.42C626.054 1773.24 638.012 1773.27 649.969 1773.52L649.755 1790.93L711.032 1790.56L710.64 1811.2C731.491 1811.06 758.313 1807.94 778.438 1812.91C778.535 1808.07 778.694 1803.23 778.915 1798.4C779.971 1811.98 779.109 1828.12 779.697 1842.32L778.008 1834.67C755.3 1834.96 732.591 1835.05 709.883 1834.94C709.985 1827.59 710.137 1820.24 710.339 1812.9C689.853 1813.53 669.359 1813.68 648.869 1813.35L648.956 1795.18C637.216 1795.79 624.676 1795.62 612.865 1795.7L613.359 1775.98C599.041 1776.22 584.721 1776.12 570.406 1775.68C570.487 1768.89 570.389 1761.77 570.377 1754.95Z"></path><path fill="#F0BE4A" d="M1412.39 1741.82C1427.06 1740.23 1445 1741.86 1459.94 1742.26C1460.56 1742.96 1461.18 1743.67 1461.8 1744.37C1462.2 1763.36 1464.05 1808.96 1462.81 1826.28C1463.06 1828.95 1462.94 1828.08 1463.82 1830.6C1466.56 1831.27 1466.68 1831.5 1469.52 1830.86C1474.2 1824.56 1471.72 1809.07 1473.47 1798.8C1473.58 1796.64 1473.44 1797.69 1474.54 1795.6C1478.02 1793.92 1488.53 1794.07 1492.84 1793.89C1493.23 1776.87 1493.05 1777.13 1506.31 1777.31C1528.18 1777.6 1550.26 1776.43 1572.09 1778.05C1572.59 1778.64 1573.1 1779.24 1573.6 1779.83C1575.24 1785.54 1574.89 1790.74 1574.93 1796.93C1580.86 1796.83 1586.8 1796.89 1592.74 1797.1C1593.98 1803.56 1595.18 1863.16 1594.62 1871.43L1596.42 1887.73C1591.69 1893.39 1588.74 1896.86 1583.54 1901.57C1576.56 1907.87 1566.69 1912.43 1561.29 1920.35C1554.86 1920.77 1545.96 1921.99 1539.81 1920.49C1533.77 1919.01 1536.36 1911.37 1528.7 1917.73C1525.53 1916.62 1527.53 1917.27 1525.17 1915.56C1520.78 1912.4 1513.53 1913.49 1508.49 1911.21C1503.51 1908.97 1498.86 1904.97 1494.36 1901.45C1488.6 1901.86 1472.44 1901.34 1467.65 1903.05C1456.65 1906.97 1439.05 1923.06 1430.21 1902.79C1425.74 1903.38 1415.76 1904.88 1412.37 1900.95C1411.28 1895.03 1411.19 1887.83 1411.27 1881.71C1411.87 1835.16 1411.36 1788.34 1412.39 1741.82Z"></path><path fill="#744107" d="M1412.39 1741.82C1427.06 1740.23 1445 1741.86 1459.94 1742.26C1460.56 1742.96 1461.18 1743.67 1461.8 1744.37C1462.2 1763.36 1464.05 1808.96 1462.81 1826.28C1459.5 1841.34 1464.57 1894.79 1458.56 1899.9L1456.45 1899.88C1444.58 1900.09 1425.11 1899.54 1413.92 1900.91C1420.38 1902.65 1426.26 1901.59 1430.21 1902.79C1425.74 1903.38 1415.76 1904.88 1412.37 1900.95C1411.28 1895.03 1411.19 1887.83 1411.27 1881.71C1411.87 1835.16 1411.36 1788.34 1412.39 1741.82Z"></path><path fill="#F0BE4A" d="M1425.13 1800.03C1435.41 1797.33 1450.67 1790 1451.44 1810.73C1451.64 1816.02 1452 1820.81 1451.35 1826.12C1452.57 1825.88 1451.93 1826.24 1452.97 1824.41L1453.18 1841.96C1453.1 1850.64 1453.31 1864.56 1452.79 1872.8L1451.38 1873.67C1452.15 1879.3 1453.29 1882.38 1450.56 1886.98C1443.42 1890.98 1432.39 1885.9 1425.01 1883.02C1425.18 1856.66 1423.93 1825.61 1425.13 1800.03Z"></path><path fill="#653705" d="M1460.06 1744.9L1461.8 1744.37C1462.2 1763.36 1464.05 1808.96 1462.81 1826.28C1459.5 1841.34 1464.57 1894.79 1458.56 1899.9L1456.45 1899.88C1455.97 1898.26 1456.61 1896.9 1457.11 1895.47C1453.53 1879.2 1454.64 1845.15 1453.18 1841.96L1452.97 1824.41C1453.08 1812.1 1452.6 1798.48 1453.97 1786.48L1452.41 1784.67C1453.57 1781.92 1453.78 1781.36 1454.02 1778.22C1455.95 1770.93 1454.36 1765.24 1455.44 1761.25C1457.84 1752.41 1459.67 1757.39 1460.06 1744.9Z"></path><path fill="#F0BE4A" d="M1421.69 1757.29C1422.18 1755.35 1422.35 1753.14 1423.39 1752.79C1431.07 1750.25 1445.05 1751.77 1453.04 1751.64C1453.07 1754.96 1453.53 1775.43 1453.24 1777.43C1442.16 1776.88 1433.66 1776.21 1422.47 1776.68C1422.26 1770.22 1422 1763.75 1421.69 1757.29Z"></path><path fill="#F5C459" d="M1437.64 1756.56C1443.84 1756.76 1447.06 1756.91 1449.82 1765.03C1449.57 1772.97 1446.23 1773.03 1441.05 1773.77C1436.29 1772.55 1431.89 1770.74 1428.71 1765.66C1428.02 1761.82 1427.81 1763.56 1429.32 1760.24C1432.47 1757.46 1433.8 1757.52 1437.64 1756.56Z"></path><path fill="#F5C459" d="M1421.94 1786.37C1432.62 1786.74 1443.3 1786.78 1453.97 1786.48C1452.6 1798.48 1453.08 1812.1 1452.97 1824.41C1451.93 1826.24 1452.57 1825.88 1451.35 1826.12C1452 1820.81 1451.64 1816.02 1451.44 1810.73C1450.67 1790 1435.41 1797.33 1425.13 1800.03C1423.93 1825.61 1425.18 1856.66 1425.01 1883.02C1432.39 1885.9 1443.42 1890.98 1450.56 1886.98C1453.29 1882.38 1452.15 1879.3 1451.38 1873.67L1452.79 1872.8L1453.19 1890.25C1442.8 1890.05 1432.02 1890.32 1421.6 1890.43C1422.26 1861.3 1422.54 1832.17 1422.44 1803.03C1422.04 1797.93 1422.05 1791.6 1421.94 1786.37Z"></path><path fill="#824E07" d="M1421.69 1757.29C1421.3 1749.46 1422.21 1752.51 1417.48 1745.93L1417.53 1744.92C1429.73 1744.01 1447.45 1744.83 1460.06 1744.9C1459.67 1757.39 1457.84 1752.41 1455.44 1761.25C1454.36 1765.24 1455.95 1770.93 1454.02 1778.22L1453.24 1777.43C1453.53 1775.43 1453.07 1754.96 1453.04 1751.64C1445.05 1751.77 1431.07 1750.25 1423.39 1752.79C1422.35 1753.14 1422.18 1755.35 1421.69 1757.29Z"></path><path fill="#653705" d="M1423.12 1777.92C1428.94 1777.97 1441.43 1776.59 1445.97 1779.6L1446.1 1781.41L1443.28 1784.84C1439.06 1785.58 1426.04 1786.51 1422.43 1783.34C1421.76 1779.87 1421.72 1781.64 1423.12 1777.92Z"></path><path fill="#C4C4C2" d="M1592.74 1797.1C1593.98 1803.56 1595.18 1863.16 1594.62 1871.43L1596.42 1887.73C1591.69 1893.39 1588.74 1896.86 1583.54 1901.57C1576.56 1907.87 1566.69 1912.43 1561.29 1920.35C1554.86 1920.77 1545.96 1921.99 1539.81 1920.49C1533.77 1919.01 1536.36 1911.37 1528.7 1917.73C1525.53 1916.62 1527.53 1917.27 1525.17 1915.56C1520.78 1912.4 1513.53 1913.49 1508.49 1911.21C1503.51 1908.97 1498.86 1904.97 1494.36 1901.45C1488.6 1901.86 1472.44 1901.34 1467.65 1903.05C1456.65 1906.97 1439.05 1923.06 1430.21 1902.79C1426.26 1901.59 1420.38 1902.65 1413.92 1900.91C1425.11 1899.54 1444.58 1900.09 1456.45 1899.88L1458.56 1899.9C1464.57 1894.79 1459.5 1841.34 1462.81 1826.28C1463.06 1828.95 1462.94 1828.08 1463.82 1830.6C1466.56 1831.27 1466.68 1831.5 1469.52 1830.86C1474.2 1824.56 1471.72 1809.07 1473.47 1798.8C1477.73 1810.21 1469.32 1876.92 1477.26 1881.05C1477.78 1881.32 1478.68 1881.38 1479.24 1881.44C1479.6 1877.71 1479.44 1873.72 1481.07 1871.48L1482.67 1873.6L1500.84 1873.04L1501.89 1876.01C1507.4 1881.36 1506 1885.4 1514.33 1885.67C1529.34 1886.15 1544.59 1886.68 1559.59 1885.75C1559.9 1885.73 1562.67 1882 1563.12 1881.38C1565.05 1882.92 1565.01 1882.86 1566.52 1885.08L1566.24 1879.78C1565.17 1877.32 1565.51 1876.51 1566.24 1874.46C1569.29 1872.38 1571.69 1872.82 1575.21 1872.76L1581.4 1873.73C1581.72 1874.02 1583.36 1874.65 1583.8 1874.83L1585.38 1873.56C1589.67 1860.83 1584.85 1809.6 1588.24 1805.53L1590.69 1807.59C1592.52 1804.56 1592.28 1801.47 1592.74 1797.1Z"></path><path fill="#744107" d="M1500.84 1873.04L1501.89 1876.01C1507.4 1881.36 1506 1885.4 1514.33 1885.67C1529.34 1886.15 1544.59 1886.68 1559.59 1885.75C1559.9 1885.73 1562.67 1882 1563.12 1881.38C1565.05 1882.92 1565.01 1882.86 1566.52 1885.08L1566.24 1879.78C1567.93 1888.66 1568.93 1891.18 1567.02 1899.98C1555.24 1897.37 1498.35 1903.18 1494.14 1898.36C1493.74 1894.02 1493.91 1893.92 1494.6 1889.81C1497.91 1884.81 1499.06 1879.27 1500.84 1873.04Z"></path><path fill="#F5C459" d="M1501.89 1876.01C1507.4 1881.36 1506 1885.4 1514.33 1885.67C1529.34 1886.15 1544.59 1886.68 1559.59 1885.75C1559.9 1885.73 1562.67 1882 1563.12 1881.38C1565.05 1882.92 1565.01 1882.86 1566.52 1885.08C1566.04 1886.47 1565.56 1887.15 1564.88 1888.41C1558.9 1891.19 1510.73 1890 1501.16 1889.96L1501.89 1876.01Z"></path><path fill="#653705" d="M1592.74 1797.1C1593.98 1803.56 1595.18 1863.16 1594.62 1871.43C1593.45 1864.37 1593.58 1854.96 1593.44 1847.58C1593.34 1858.38 1593.2 1869.19 1593.02 1879.99L1572.45 1880.98C1572.58 1889.49 1574.06 1896.84 1567.02 1899.98C1568.93 1891.18 1567.93 1888.66 1566.24 1879.78C1565.17 1877.32 1565.51 1876.51 1566.24 1874.46C1569.29 1872.38 1571.69 1872.82 1575.21 1872.76L1581.4 1873.73C1581.72 1874.02 1583.36 1874.65 1583.8 1874.83L1585.38 1873.56C1589.67 1860.83 1584.85 1809.6 1588.24 1805.53L1590.69 1807.59C1592.52 1804.56 1592.28 1801.47 1592.74 1797.1Z"></path><path fill="#653705" d="M1479.24 1881.44C1479.6 1877.71 1479.44 1873.72 1481.07 1871.48L1482.67 1873.6L1500.84 1873.04C1499.06 1879.27 1497.91 1884.81 1494.6 1889.81C1493.37 1884.08 1494.28 1885.47 1491.4 1881.69C1487.48 1879.67 1483.55 1880.86 1479.24 1881.44Z"></path><path fill="#744107" d="M1492.84 1793.89C1493.23 1776.87 1493.05 1777.13 1506.31 1777.31C1528.18 1777.6 1550.26 1776.43 1572.09 1778.05C1572.59 1778.64 1573.1 1779.24 1573.6 1779.83C1575.24 1785.54 1574.89 1790.74 1574.93 1796.93C1580.86 1796.83 1586.8 1796.89 1592.74 1797.1C1592.28 1801.47 1592.52 1804.56 1590.69 1807.59L1588.24 1805.53C1584.85 1809.6 1589.67 1860.83 1585.38 1873.56L1583.8 1874.83C1583.36 1874.65 1581.72 1874.02 1581.4 1873.73L1575.21 1872.76L1581.03 1864.39C1580.55 1846.69 1580.21 1828.99 1579.99 1811.28C1576.1 1810.71 1574.02 1811.32 1571.39 1808.43C1572.19 1806.73 1571.96 1806.56 1572.03 1804.55L1567.65 1803.08C1565.7 1800.34 1566.27 1801.97 1566.2 1797.86L1565.15 1792.79L1563.96 1791.94C1563.16 1793.94 1563.14 1794 1562.5 1796.22C1553.7 1796.9 1511.18 1788.64 1505.29 1796.14C1504.31 1799.85 1504.3 1803.51 1501.42 1804.59C1495.17 1802.91 1489.34 1802.91 1482.98 1802.97C1483.15 1820.92 1484.11 1856.9 1482.67 1873.6L1481.07 1871.48C1479.44 1873.72 1479.6 1877.71 1479.24 1881.44C1478.68 1881.38 1477.78 1881.32 1477.26 1881.05C1469.32 1876.92 1477.73 1810.21 1473.47 1798.8C1473.58 1796.64 1473.44 1797.69 1474.54 1795.6C1478.02 1793.92 1488.53 1794.07 1492.84 1793.89Z"></path><path fill="#F5C459" d="M1500.95 1787.51C1511.21 1787.51 1558.39 1786.69 1565.27 1788.91C1566.57 1792.37 1566.16 1793.69 1566.2 1797.86L1565.15 1792.79L1563.96 1791.94C1563.16 1793.94 1563.14 1794 1562.5 1796.22C1553.7 1796.9 1511.18 1788.64 1505.29 1796.14C1504.31 1799.85 1504.3 1803.51 1501.42 1804.59C1501 1799.69 1501.03 1792.6 1500.95 1787.51Z"></path><path fill="#F5C459" d="M1572.03 1804.55C1576.99 1803.29 1579.54 1803.43 1584.5 1803.45C1584.31 1811.93 1584.57 1867.77 1583.4 1872.74L1581.4 1873.73L1575.21 1872.76L1581.03 1864.39C1580.55 1846.69 1580.21 1828.99 1579.99 1811.28C1576.1 1810.71 1574.02 1811.32 1571.39 1808.43C1572.19 1806.73 1571.96 1806.56 1572.03 1804.55Z"></path><path fill="#653705" d="M1522.98 1813.99C1532.85 1813.62 1543.2 1813.73 1553.12 1813.67C1553.14 1823.66 1553.66 1853.47 1552.21 1861.97C1549.68 1863.63 1545.99 1862.98 1543.01 1862.85L1513.74 1863.09C1513.86 1855.16 1513.21 1820.77 1514.14 1815.78C1516.81 1813.82 1519.87 1814.13 1522.98 1813.99Z"></path><path fill="#C4C4C2" d="M1522.5 1823.31L1544.9 1823.28L1544.93 1856.41L1522.06 1856.33L1522.5 1823.31Z"></path><path fill="#744107" d="M1343.03 1901.22C1340.73 1896.5 1341.15 1861.21 1341.89 1855.3C1345.41 1850.52 1388.67 1851.86 1394.87 1854.57C1397.33 1860.99 1396.15 1886.86 1396.02 1895.39C1395.48 1896.27 1392.54 1901.2 1392.13 1901.68C1381.91 1913.17 1372.69 1908.85 1362.47 1902.55C1361.48 1901.94 1346.96 1902.29 1343.03 1901.22Z"></path><path fill="#C4C4C2" d="M1343.03 1901.22C1348.82 1899.75 1388.02 1898.75 1392.13 1901.68C1381.91 1913.17 1372.69 1908.85 1362.47 1902.55C1361.48 1901.94 1346.96 1902.29 1343.03 1901.22Z"></path><path fill="#F0BE4A" d="M1351.67 1860.86L1383.78 1860.83L1383.91 1890.05L1351.52 1890.06C1351.81 1880.66 1351.66 1870.34 1351.67 1860.86Z"></path><path fill="#F5C459" d="M1363.83 1867.56C1370.2 1867.49 1374.03 1868.98 1380.2 1870.93C1379.61 1875.57 1379.48 1876.53 1379.92 1881.24L1380.01 1882.59C1380.22 1885.28 1380.34 1884.28 1379.54 1886.89L1375.81 1887.18C1368.45 1887.72 1360.35 1888.76 1354.82 1880.56C1353.47 1873.12 1359.47 1870.1 1363.83 1867.56Z"></path></svg>