<svg xmlns="http://www.w3.org/2000/svg" height="1024" preserveAspectRatio="none" style="display: block;" version="1.1" viewBox="0 0 2048 2048" width="1024">
<defs>
	<linearGradient gradientUnits="userSpaceOnUse" id="Gradient1" x1="669.451" x2="233.564" y1="1393.31" y2="1787.22">
		<stop class="stop0" offset="0" stop-color="rgb(108,195,250)" stop-opacity="1"></stop>
		<stop class="stop1" offset="1" stop-color="rgb(200,231,253)" stop-opacity="1"></stop>
	</linearGradient>
	<linearGradient gradientUnits="userSpaceOnUse" id="Gradient2" x1="1146.94" x2="1377.21" y1="975.093" y2="1262.15">
		<stop class="stop0" offset="0" stop-color="rgb(20,147,231)" stop-opacity="1"></stop>
		<stop class="stop1" offset="1" stop-color="rgb(64,180,255)" stop-opacity="1"></stop>
	</linearGradient>
</defs>
<path d="M 910.301 561.338 C 926.095 549.869 941.511 535.993 957.541 523.912 C 994.07 496.224 1032.22 470.746 1071.79 447.616 C 1232.17 353.418 1418.35 295.099 1605.44 306.885 C 1642.38 309.212 1683.28 313.17 1719.15 322.484 C 1721.88 323.42 1721.04 322.754 1722.81 324.789 C 1723.87 332.695 1731.45 357.818 1733.81 367.873 C 1734.69 371.845 1735.54 375.823 1736.37 379.807 L 1739.01 395.676 C 1741.47 410.463 1742.39 423.559 1744.53 437.597 L 1744.26 441.719 C 1745.2 448.102 1745.14 454.267 1745.25 460.711 C 1745.98 471.156 1745.83 480.184 1745.71 490.606 C 1746.11 496.28 1745.48 502.385 1745.34 508.159 L 1745.08 514.151 C 1744.94 520.578 1744.99 529.148 1744.41 535.37 C 1742.02 580.113 1734.86 624.581 1725.8 668.448 C 1725.04 672.096 1721.13 689.67 1720.14 692.007 C 1691.32 813.881 1630.42 950.91 1559.47 1054.3 C 1544.62 1075.84 1529.12 1096.93 1513 1117.54 C 1507.59 1124.42 1483.9 1151.65 1481.64 1156.5 L 1485.82 1172.97 C 1513.45 1294.82 1490.95 1422.67 1423.38 1527.77 C 1320.5 1688.59 1117.66 1780.42 937.49 1821.31 C 935.041 1821.85 932.582 1822.35 930.116 1822.81 C 991.974 1757.73 1040.27 1666.93 1055.36 1578.09 C 1064.09 1546.33 1066.58 1484.69 1068.08 1451.37 C 972.369 1480 894.17 1498.51 792.085 1491.08 C 767.28 1489.27 752.23 1485.97 728.889 1482.75 C 684.5 1474.08 644.892 1458.82 607.564 1431.76 C 602.269 1427.93 601.861 1426.4 601.364 1421.46 C 604.965 1420.79 604.662 1424.51 608.978 1424.63 C 647.584 1425.69 687.426 1416.37 725.161 1411.73 C 727.387 1405.37 728.971 1353.1 729.892 1342.03 C 732.373 1312.63 736.363 1283.38 741.845 1254.38 C 771.437 1103.02 845.156 946.142 934.824 821.147 C 953.781 794.722 973.857 770.946 994.831 746.235 C 996.48 745.081 1002.09 738.516 1003.83 736.646 L 1008.3 732.087 C 1010.7 729.674 1021.62 718.213 1023.32 716.045 C 1026.52 713.208 1028.03 711.692 1030.82 708.439 C 1033.8 706.301 1037.72 701.621 1040.76 698.872 C 1040.02 695.108 1039.39 693.96 1039.65 690.122 C 1034.61 694.515 1028.8 698.486 1023.45 702.824 C 1022.67 703.416 1022.5 703.582 1021.84 704.304 C 1019.02 706.395 1008.47 714.664 1006.64 716.802 C 1004.75 718.194 1003.28 719.174 1001.68 720.908 C 999.091 723.104 995.449 725.638 993.563 728.26 C 975.655 742.914 958.706 759.115 941.893 775.024 C 805.096 905.021 700.39 1065.04 636.044 1242.44 C 616.574 1297.28 598.462 1361.66 599.314 1420 C 593.024 1409.59 587.106 1393.85 582.772 1382.33 C 535.209 1255.98 558.331 1112.61 599.871 988.144 C 558.768 983.949 518.849 988.832 478.417 992.371 C 387.755 1007.75 298.163 1038.08 226.123 1097.12 C 230.683 1075.19 244.537 1033.04 251.961 1011.96 C 301.742 870.621 384.157 723.705 508.89 635.923 C 593.235 577.196 694.053 546.777 796.803 549.052 C 832.111 549.64 870.25 554.519 904.993 560.519 L 910.301 561.338 z" fill="rgb(70,195,255)" transform="translate(0,0)"></path>
<path d="M 1722.81 324.789 C 1723.87 332.695 1731.45 357.818 1733.81 367.873 C 1734.69 371.845 1735.54 375.823 1736.37 379.807 L 1739.01 395.676 C 1741.47 410.463 1742.39 423.559 1744.53 437.597 L 1744.26 441.719 C 1745.2 448.102 1745.14 454.267 1745.25 460.711 C 1745.98 471.156 1745.83 480.184 1745.71 490.606 C 1746.11 496.28 1745.48 502.385 1745.34 508.159 L 1745.08 514.151 C 1744.94 520.578 1744.99 529.148 1744.41 535.37 C 1742.02 580.113 1734.86 624.581 1725.8 668.448 C 1725.04 672.096 1721.13 689.67 1720.14 692.007 C 1691.32 813.881 1630.42 950.91 1559.47 1054.3 C 1544.62 1075.84 1529.12 1096.93 1513 1117.54 C 1507.59 1124.42 1483.9 1151.65 1481.64 1156.5 L 1485.82 1172.97 C 1513.45 1294.82 1490.95 1422.67 1423.38 1527.77 C 1320.5 1688.59 1117.66 1780.42 937.49 1821.31 C 935.041 1821.85 932.582 1822.35 930.116 1822.81 C 991.974 1757.73 1040.27 1666.93 1055.36 1578.09 C 1064.09 1546.33 1066.58 1484.69 1068.08 1451.37 C 972.369 1480 894.17 1498.51 792.085 1491.08 C 767.28 1489.27 752.23 1485.97 728.889 1482.75 C 729.258 1474.62 728.032 1464.03 727.665 1455.68 C 727.025 1441.14 726.418 1426.61 725.85 1412.07 C 728.126 1411.3 737.429 1409.43 740.551 1408.65 L 779.147 1398.8 C 1048.55 1328.47 1298.58 1131.31 1456.73 905.529 C 1512.49 825.929 1558.63 741.811 1600.39 654.24 C 1600.68 653.842 1600.97 653.445 1601.26 653.047 C 1611.74 631.314 1621.64 607.763 1631.3 585.534 C 1642.44 560.062 1650.74 538.642 1660.26 512.385 L 1660.23 511.545 C 1661.85 508.534 1663.99 502.567 1665.33 499.17 C 1665.82 497.579 1666.83 495.465 1667.52 493.883 L 1671.33 484.261 L 1673.62 478.37 L 1674.02 475.927 C 1676.15 470.453 1678.18 464.711 1680.21 459.177 C 1681.29 456.56 1682.44 452.68 1683.35 449.889 L 1686.22 442.107 C 1687.98 436.987 1689.27 432.955 1690.69 427.691 C 1692.49 423.442 1693.61 421.504 1694.17 417.001 C 1696.03 413.261 1701.64 394.372 1703.36 389.134 C 1710.07 367.753 1716.55 346.303 1722.81 324.789 z" fill="url(#Gradient2)" transform="translate(0,0)"></path>
<path d="M 1068.08 1451.37 C 1179.87 1412.54 1291.57 1340.11 1379.6 1261.17 C 1415.22 1229.22 1449.02 1191.53 1481.64 1156.5 L 1485.82 1172.97 C 1513.45 1294.82 1490.95 1422.67 1423.38 1527.77 C 1320.5 1688.59 1117.66 1780.42 937.49 1821.31 C 935.041 1821.85 932.582 1822.35 930.116 1822.81 C 991.974 1757.73 1040.27 1666.93 1055.36 1578.09 C 1064.09 1546.33 1066.58 1484.69 1068.08 1451.37 z" fill="rgb(70,195,255)" transform="translate(0,0)"></path>
<path d="M 1068.08 1451.37 C 1179.87 1412.54 1291.57 1340.11 1379.6 1261.17 C 1415.22 1229.22 1449.02 1191.53 1481.64 1156.5 L 1485.82 1172.97 L 1485.05 1174.03 C 1475.02 1188.03 1466.6 1205.85 1458 1220.97 C 1420.18 1287.43 1372.77 1347.86 1319.21 1402.32 C 1315.6 1405.99 1311.34 1409.92 1307.94 1413.72 L 1306.9 1414.45 C 1267.79 1451.54 1225.31 1484.9 1180 1514.1 C 1164.79 1523.81 1148.61 1532.39 1133.05 1541.58 C 1108.24 1556.22 1083.12 1569.95 1055.36 1578.09 C 1064.09 1546.33 1066.58 1484.69 1068.08 1451.37 z" fill="rgb(31,127,209)" transform="translate(0,0)"></path>
<path d="M 1722.81 324.789 C 1723.87 332.695 1731.45 357.818 1733.81 367.873 C 1734.69 371.845 1735.54 375.823 1736.37 379.807 L 1739.01 395.676 C 1741.47 410.463 1742.39 423.559 1744.53 437.597 L 1744.26 441.719 C 1745.2 448.102 1745.14 454.267 1745.25 460.711 C 1745.98 471.156 1745.83 480.184 1745.71 490.606 C 1746.11 496.28 1745.48 502.385 1745.34 508.159 L 1745.08 514.151 C 1744.94 520.578 1744.99 529.148 1744.41 535.37 C 1742.02 580.113 1734.86 624.581 1725.8 668.448 C 1725.04 672.096 1721.13 689.67 1720.14 692.007 L 1719.01 690.901 C 1718.91 686.801 1721.18 683.337 1721.7 677.98 L 1720.15 677.039 L 1717.36 674.473 C 1714.13 674.653 1715 674.762 1711.91 677.366 C 1708.29 671.469 1712.56 669.636 1714.28 661.714 L 1713.04 660.628 C 1710.15 660.691 1710.1 660.988 1707.43 662.288 C 1704.72 664.765 1707.01 667.264 1703.93 667.514 C 1699.86 663.483 1697.4 661.299 1694.09 656.555 L 1692.12 656.334 C 1690.81 653.685 1691.22 655.144 1692.2 651.378 C 1688.39 650.869 1690 650.44 1687.07 651.948 C 1685.89 658.858 1690.7 658.268 1692.61 664.01 C 1686.9 662.935 1689.46 662.348 1682.73 663.404 C 1681.64 659.878 1683.81 658.342 1683.66 652.716 C 1680.72 653.281 1676.51 654.596 1674.03 653.756 C 1670.52 657.166 1674.75 656.141 1671.32 658.604 L 1670.88 656.01 L 1668.76 655.13 C 1669.04 652.442 1669.01 653.568 1671.83 650.82 C 1665.78 644.705 1666.29 650.448 1659.51 641.701 C 1659.35 635.784 1658.65 637.512 1656.77 632.349 C 1657.77 629.438 1656.93 630.59 1659.3 628.722 C 1661.95 630.772 1661.4 631.242 1662.77 635.039 L 1664.04 635.165 C 1667.18 633.429 1668.8 632.218 1672.38 631.758 L 1673.96 634.029 C 1676.62 634.603 1678.06 635.468 1680.82 635.79 C 1689.44 632.207 1686.97 624.862 1683.32 618.208 C 1679.72 617.613 1681.13 620.732 1676 621.65 C 1680.06 618.073 1680.47 620.2 1682.5 615.971 L 1681.42 614.808 L 1677.65 615.406 L 1674.85 612.988 C 1669.93 614.375 1663.5 615.6 1660.13 611.241 C 1660.32 608.808 1660.3 608.984 1661.78 607.02 L 1661.76 606.02 C 1662.03 600.883 1663.98 602.13 1663.75 598.057 C 1663.51 593.818 1662.7 591.232 1661.75 587.163 C 1657.93 588.623 1657.65 588.039 1655.46 590.747 C 1657.04 592.15 1657.76 592.618 1659.55 593.789 C 1658 596.944 1657.82 596.263 1654.23 598.461 C 1650.97 597.666 1645.83 597.134 1642.26 596.506 C 1644.47 591.648 1643.51 596.941 1646.51 590.411 C 1643.57 584.775 1644.17 585.85 1638.26 584.822 L 1635.42 587.052 C 1633.19 586.595 1633.26 586.66 1631.3 585.534 C 1642.44 560.062 1650.74 538.642 1660.26 512.385 L 1660.23 511.545 C 1661.85 508.534 1663.99 502.567 1665.33 499.17 C 1665.82 497.579 1666.83 495.465 1667.52 493.883 L 1671.33 484.261 L 1673.62 478.37 L 1674.02 475.927 C 1676.15 470.453 1678.18 464.711 1680.21 459.177 C 1681.29 456.56 1682.44 452.68 1683.35 449.889 L 1686.22 442.107 C 1687.98 436.987 1689.27 432.955 1690.69 427.691 C 1692.49 423.442 1693.61 421.504 1694.17 417.001 C 1696.03 413.261 1701.64 394.372 1703.36 389.134 C 1710.07 367.753 1716.55 346.303 1722.81 324.789 z" fill="rgb(31,127,209)" transform="translate(0,0)"></path>
<path d="M 1725.79 495.892 C 1719.7 484.334 1731.06 492.855 1732.73 486.127 C 1732.98 485.111 1740.52 483.15 1740.12 483.159 C 1748.69 482.976 1737.8 473.273 1744.36 475.049 C 1744.74 475.562 1744.51 486.361 1745.71 490.606 C 1746.11 496.28 1745.48 502.385 1745.34 508.159 C 1736.72 502.505 1745.99 503.585 1733.75 499.051 C 1733.19 497.859 1732.59 496.679 1731.97 495.513 C 1729.99 491.86 1728.45 493.916 1725.79 495.892 z" fill="rgb(70,195,255)" transform="translate(0,0)"></path>
<path d="M 1661.75 587.163 C 1663.45 582.103 1664.56 584.31 1667.4 580.914 C 1667.52 580.77 1666.03 575.359 1668.65 576.519 C 1674.96 579.308 1666.87 586.924 1665.78 589.462 C 1662.61 596.878 1666.31 592.151 1669.96 595.223 C 1671.43 597.554 1674.29 603.431 1670.18 605.943 L 1669.2 606.05 L 1668.23 605.044 C 1665.67 602.364 1664.77 604.231 1661.76 606.02 C 1662.03 600.883 1663.98 602.13 1663.75 598.057 C 1663.51 593.818 1662.7 591.232 1661.75 587.163 z" fill="rgb(70,195,255)" transform="translate(0,0)"></path>
<path d="M 1704.87 657.449 C 1706.53 659.689 1706.47 659.597 1707.43 662.288 C 1704.72 664.765 1707.01 667.264 1703.93 667.514 C 1706.34 662.906 1702.84 662.227 1704.87 657.449 z" fill="rgb(70,195,255)" transform="translate(0,0)"></path>
<path d="M 1682.97 565.893 C 1684.1 566.037 1683.57 565.837 1684.15 566.477 C 1683.21 570.745 1674.06 566.79 1681.47 579.562 C 1681.71 579.976 1678.17 586.132 1677.39 588.872 C 1675.65 585.867 1675.46 585.589 1672.77 583.167 C 1672.71 579.211 1677.64 577.838 1676.23 574.909 C 1675.17 572.686 1674.85 568.619 1676.09 566.556 C 1676.24 566.303 1682.2 565.999 1682.97 565.893 z" fill="rgb(70,195,255)" transform="translate(0,0)"></path>
<path d="M 1663.04 541.235 L 1666.43 540.717 C 1668.02 541.881 1669.26 542.765 1670.93 543.834 L 1667.98 545.645 C 1666.47 546.517 1666.52 547.325 1665.92 548.932 L 1663.69 549.381 L 1663.35 548.773 C 1661.47 545.485 1660.49 544.348 1663.04 541.235 z" fill="rgb(70,195,255)" transform="translate(0,0)"></path>
<path d="M 1689.03 443.902 C 1692.55 442.181 1692.61 443.361 1694.24 446.837 L 1693.64 448.207 L 1691.82 448.213 C 1689.34 448.179 1688.86 449.258 1687.39 451.053 L 1685.62 450.402 C 1686.9 448.088 1687.67 446.206 1689.03 443.902 z" fill="rgb(70,195,255)" transform="translate(0,0)"></path>
<path d="M 1725.02 388.097 C 1726.86 386.809 1727.19 387.194 1729.36 387.729 L 1730.43 390.936 L 1730.08 393.49 C 1724.99 394.25 1726.6 392.784 1725.02 388.097 z" fill="rgb(70,195,255)" transform="translate(0,0)"></path>
<path d="M 1656.87 548.072 C 1654.75 547.655 1652.86 547.57 1654.26 544.999 L 1654.84 543.869 L 1655.92 544.801 C 1657.37 545.996 1657.23 546.315 1656.87 548.072 z" fill="rgb(70,195,255)" transform="translate(0,0)"></path>
<path d="M 1673.98 559.987 C 1675.85 560.83 1676.65 560.663 1675.65 562.411 C 1675.14 562.861 1675.02 563.179 1674.48 563.164 C 1674.04 562.787 1674.01 560.371 1673.98 559.987 z" fill="rgb(70,195,255)" transform="translate(0,0)"></path>
<path d="M 1601.26 653.047 C 1602.35 654.37 1609.55 654.646 1605.68 658.083 C 1605.3 658.421 1604.78 658.572 1604.28 658.495 C 1602.8 658.264 1602.14 657.081 1601.45 655.9 C 1601.11 655.338 1600.75 654.784 1600.39 654.24 C 1600.68 653.842 1600.97 653.445 1601.26 653.047 z" fill="rgb(31,127,209)" transform="translate(0,0)"></path>
<path d="M 1675.3 669.766 C 1679.25 675.021 1675.2 672.6 1681.99 678.476 C 1678.38 681.126 1680.92 682.362 1679.48 683.139 L 1679.2 683.035 C 1677.91 681.181 1679.57 678.792 1678.32 678.473 C 1677.74 679.143 1677.93 679.777 1676.99 680.063 C 1676 679.734 1676.05 678.776 1675.39 678.091 L 1675.22 678.106 C 1673.16 681.584 1680.7 680.977 1677.21 687.901 L 1676.47 689.418 C 1676.99 692.558 1674.98 694.076 1671.99 693.573 C 1668.02 692.903 1671.41 683.065 1669.32 680.759 C 1668.71 680.086 1666.38 677.019 1666.37 676.095 C 1671.61 674.101 1670.41 673.996 1675.3 669.766 z" fill="rgb(31,127,209)" transform="translate(0,0)"></path>
<path d="M 1618.33 649.105 C 1624.54 623.827 1628.11 658.001 1633.1 640.666 L 1633.53 639.288 L 1634.13 642.724 L 1633.64 644.313 C 1632.63 647.756 1629.69 653.259 1625.5 652.825 C 1619.8 656.726 1615.02 656.488 1618.33 649.105 z" fill="rgb(31,127,209)" transform="translate(0,0)"></path>
<path d="M 1675.56 737.267 C 1681.55 737.349 1679.44 747.452 1676.66 748.546 C 1670.29 751.045 1667.33 751.039 1661.5 749.016 C 1659.08 748.18 1658.36 750.077 1657.39 751.052 L 1657.36 751.035 C 1657.76 749.647 1658.32 749.038 1659.13 747.834 C 1660.5 747.772 1664.3 748.229 1664.78 747.494 C 1665.68 746.126 1662.23 745.496 1662.22 742.897 C 1663.13 741.602 1666.1 740.42 1666.37 742.528 C 1666.42 742.968 1664.59 742.973 1664.16 743.53 C 1664.35 743.946 1665.64 745.395 1666.03 745.491 C 1674.02 747.447 1672.18 740.369 1672.21 740.174 C 1673.59 738.595 1673.66 739.653 1675.56 737.267 z" fill="rgb(31,127,209)" transform="translate(0,0)"></path>
<path d="M 1644.41 616.142 C 1645.94 615.025 1654.97 617.742 1653.82 620.06 C 1652.69 620.463 1650.9 619.534 1650.19 620.504 C 1649.48 626.925 1659.33 630.058 1649.72 634.714 C 1649.42 636.381 1648.96 640.026 1646.74 640.455 L 1646.26 640.023 C 1645.13 636.516 1649.46 625.068 1647.6 620.764 C 1646.07 617.21 1643.47 619.856 1644.41 616.142 z" fill="rgb(31,127,209)" transform="translate(0,0)"></path>
<path d="M 1633.53 639.288 C 1638.82 638.823 1640.44 637.609 1640.79 642.965 C 1642.54 649.262 1643.38 647.775 1641.78 656.359 C 1641.35 658.717 1633.94 653.64 1634.49 654.513 C 1644.09 644.832 1638.08 650.807 1635.3 643.241 L 1634.13 642.724 L 1633.53 639.288 z" fill="rgb(31,127,209)" transform="translate(0,0)"></path>
<path d="M 1633.53 639.288 C 1638.82 638.823 1640.44 637.609 1640.79 642.965 C 1639.42 643.404 1638.25 643.578 1636.8 643.398 L 1635.3 643.241 L 1634.13 642.724 L 1633.53 639.288 z" fill="rgb(70,195,255)" transform="translate(0,0)"></path>
<path d="M 1681.26 715.607 C 1686.69 717.726 1679.4 722.338 1678.59 725.539 C 1678.06 727.598 1677.93 731.468 1677.39 733.226 C 1677.07 733.52 1676.57 733.552 1676.15 733.677 C 1675.78 733.788 1675.12 733.935 1674.71 734.123 C 1674.14 734.382 1673.58 734.662 1673.02 734.931 C 1668.02 735.714 1675.34 728.243 1674.96 726.506 C 1673.9 721.744 1678.02 719.001 1681.26 715.607 z" fill="rgb(31,127,209)" transform="translate(0,0)"></path>
<path d="M 1094.72 1272.79 C 1102.05 1274.8 1107.1 1272.72 1102.84 1281.19 C 1097.91 1280.61 1092.77 1278.58 1094.72 1272.79 z" fill="rgb(70,195,255)" transform="translate(0,0)"></path>
<path d="M 1568.72 754.155 C 1569.6 754.054 1570.86 753.528 1571.58 754.253 C 1571.87 755.98 1569.32 757.382 1569.67 758.479 C 1574.19 761.24 1573.05 755.457 1575.92 764.941 C 1565.59 759.327 1558.59 761.456 1568.72 754.155 z" fill="rgb(31,127,209)" transform="translate(0,0)"></path>
<path d="M 1651.05 657.383 C 1656.52 660.852 1654.84 664.132 1653.64 669.524 C 1646.41 665.775 1646.94 664.918 1651.05 657.383 z" fill="rgb(31,127,209)" transform="translate(0,0)"></path>
<path d="M 1592.95 789.542 C 1601.66 792.468 1592.67 793.035 1592.9 796.915 C 1593.01 798.793 1592.72 800.039 1592.4 801.807 C 1582.6 798.516 1589.01 796.698 1592.95 789.542 z" fill="rgb(31,127,209)" transform="translate(0,0)"></path>
<path d="M 785.25 1462.47 C 789.836 1461.66 789.072 1467.54 783.734 1470.55 C 774.915 1465.6 779.203 1465.32 785.25 1462.47 z" fill="rgb(31,127,209)" transform="translate(0,0)"></path>
<path d="M 1345.9 1075.73 C 1351.04 1076.05 1356.62 1075.7 1356.51 1081.41 L 1354.49 1081.74 C 1350.31 1082.39 1345.95 1082.48 1345.93 1077.14 L 1345.9 1075.73 z" fill="rgb(70,195,255)" transform="translate(0,0)"></path>
<path d="M 756.148 1429.1 C 762.144 1431.53 769.192 1428.49 759.129 1436.4 C 753.533 1444.53 755.909 1432.81 756.148 1429.1 z" fill="rgb(70,195,255)" transform="translate(0,0)"></path>
<path d="M 1633.58 658.31 C 1637.93 659.045 1647.58 661.847 1637.84 664.27 C 1635.92 664.957 1635.84 667.179 1634.06 666.416 L 1634.07 666.298 L 1633.06 665.381 C 1632.8 664.093 1632.78 662.767 1633.02 661.474 L 1633.58 658.31 z" fill="rgb(31,127,209)" transform="translate(0,0)"></path>
<path d="M 1589.36 758.15 C 1593.21 761.403 1595.54 762.766 1591.44 767.761 C 1584.42 764.12 1585.27 764.893 1589.36 758.15 z" fill="rgb(31,127,209)" transform="translate(0,0)"></path>
<path d="M 1629.28 600.162 C 1634.45 598.204 1635.89 605.076 1636.16 608.995 C 1634.72 608.546 1630.8 607.791 1630.97 605.511 C 1631.24 601.759 1627.58 602.822 1629.28 600.162 z" fill="rgb(31,127,209)" transform="translate(0,0)"></path>
<path d="M 1361.56 1059.52 C 1366.01 1062.74 1363.91 1065.14 1360.13 1067.62 C 1354.99 1063.05 1355.44 1062.65 1361.56 1059.52 z" fill="rgb(31,127,209)" transform="translate(0,0)"></path>
<path d="M 1659.65 701.72 C 1662.66 703.095 1668.19 708.702 1669.19 712.032 C 1665.05 710.644 1659.83 708.296 1659.72 703.567 L 1659.65 701.72 z" fill="rgb(31,127,209)" transform="translate(0,0)"></path>
<path d="M 1660.53 681.784 C 1663.33 684.65 1660.26 684.808 1660.38 685.684 C 1660.73 688.195 1660.65 692.792 1660 696.312 C 1654.86 690.725 1657.47 687.686 1660.53 681.784 z" fill="rgb(31,127,209)" transform="translate(0,0)"></path>
<path d="M 767.997 1463.26 C 773.914 1464.74 776.55 1463.06 775.401 1469.86 C 771.82 1468.79 765.945 1467.87 767.997 1463.26 z" fill="rgb(31,127,209)" transform="translate(0,0)"></path>
<path d="M 1608.37 661.512 C 1613.59 661.928 1614.78 662.4 1614.48 668.203 L 1613.2 667.946 C 1609.85 667.301 1606.07 667.027 1607.91 662.662 L 1608.37 661.512 z" fill="rgb(70,195,255)" transform="translate(0,0)"></path>
<path d="M 771.053 1413.48 C 778.098 1414.68 777.279 1416.17 781.346 1422.57 C 774.124 1420.92 775.68 1420.1 771.053 1413.48 z" fill="rgb(70,195,255)" transform="translate(0,0)"></path>
<path d="M 1594.18 699.842 C 1598.51 705.179 1598.75 703.842 1593.6 708.132 C 1592.93 709.967 1592.79 709.992 1592.04 708.61 C 1591.33 706.3 1591.66 703.795 1592.93 701.74 C 1593.1 701.487 1593.27 701.234 1593.44 700.981 L 1594.18 699.842 z" fill="rgb(31,127,209)" transform="translate(0,0)"></path>
<path d="M 1591.61 715.364 C 1598.98 715.592 1598.69 713.56 1600.45 720.345 C 1594.63 720.386 1594.24 720.779 1591.61 715.364 z" fill="rgb(31,127,209)" transform="translate(0,0)"></path>
<path d="M 767.185 1424.49 C 774.848 1425.79 773.863 1424.65 769.764 1431.84 C 767.021 1434.4 767.156 1425.72 767.185 1424.49 z" fill="rgb(70,195,255)" transform="translate(0,0)"></path>
<path d="M 1656.47 723.713 C 1659.93 724.274 1665.81 726.505 1667.47 729.804 C 1659.77 729.004 1658.75 729.803 1656.47 723.713 z" fill="rgb(31,127,209)" transform="translate(0,0)"></path>
<path d="M 1619.41 620.315 C 1624.4 621.193 1628.65 621.12 1622.67 625.569 C 1616.6 628.4 1618.32 625.94 1619.41 620.315 z" fill="rgb(31,127,209)" transform="translate(0,0)"></path>
<path d="M 946.759 1388.85 L 947.365 1388.82 C 951.656 1388.58 953.98 1388.42 955.5 1392.88 C 949.588 1394.19 949.801 1394.27 946.759 1388.85 z" fill="rgb(31,127,209)" transform="translate(0,0)"></path>
<path d="M 1652.64 671.986 C 1654.45 673.456 1652.28 681.487 1651.48 683.717 C 1647.28 679.197 1649.67 677.079 1652.64 671.986 z" fill="rgb(31,127,209)" transform="translate(0,0)"></path>
<path d="M 1588.51 827.718 C 1589.24 827.904 1596.47 830.98 1597.21 831.468 L 1596.5 831.449 C 1590.34 834.324 1589.01 835.79 1588.51 827.718 z" fill="rgb(31,127,209)" transform="translate(0,0)"></path>
<path d="M 1610.01 710.183 C 1611.46 709.777 1612.97 710.621 1613.38 712.071 C 1613.79 713.521 1612.95 715.03 1611.5 715.444 C 1610.05 715.859 1608.53 715.015 1608.12 713.56 C 1607.71 712.104 1608.56 710.591 1610.01 710.183 z" fill="rgb(70,195,255)" transform="translate(0,0)"></path>
<path d="M 1541.02 812.552 C 1541.97 812.276 1542.18 812.352 1542.73 812.277 C 1543.07 812.785 1542.58 813.454 1542.96 813.986 C 1543.85 815.245 1545.68 814.477 1546.82 815.292 C 1546.05 816.048 1544.97 816.583 1544.06 817.155 C 1544.33 817.44 1544.53 817.528 1544.65 817.903 C 1543.65 818.498 1539.41 815.611 1541.02 812.552 z" fill="rgb(31,127,209)" transform="translate(0,0)"></path>
<path d="M 1589.87 746.211 C 1592.22 750.772 1587.09 752.143 1583.43 752.009 C 1579.4 745.693 1584.94 752.739 1589.87 746.211 z" fill="rgb(31,127,209)" transform="translate(0,0)"></path>
<path d="M 769.945 1442.61 C 772.842 1444.86 772.547 1449.13 772.709 1452.75 C 767.982 1449.71 768.784 1448.32 769.945 1442.61 z" fill="rgb(31,127,209)" transform="translate(0,0)"></path>
<path d="M 1553.12 762.89 C 1554.45 764.424 1557.02 768.011 1557.62 769.858 C 1551.6 769.743 1550.56 769.252 1553.12 762.89 z" fill="rgb(31,127,209)" transform="translate(0,0)"></path>
<path d="M 753.376 1422.65 C 754.253 1421.62 755.775 1421.44 756.868 1422.24 C 757.96 1423.04 758.254 1424.54 757.541 1425.69 C 757.03 1426.51 756.101 1426.98 755.134 1426.9 C 754.167 1426.83 753.326 1426.21 752.955 1425.32 C 752.585 1424.42 752.747 1423.39 753.376 1422.65 z" fill="rgb(70,195,255)" transform="translate(0,0)"></path>
<path d="M 1665.96 664.764 C 1666.56 664.096 1667.48 663.811 1668.35 664.022 C 1669.22 664.233 1669.91 664.906 1670.14 665.774 C 1670.36 666.643 1670.09 667.565 1669.44 668.175 C 1668.48 669.061 1667 669.04 1666.07 668.127 C 1665.14 667.215 1665.1 665.734 1665.96 664.764 z" fill="rgb(31,127,209)" transform="translate(0,0)"></path>
<path d="M 1643.73 729.383 C 1648.21 730.945 1647.55 731.685 1647.5 736.507 C 1643.78 736.476 1644.3 733.125 1643.73 729.383 z" fill="rgb(31,127,209)" transform="translate(0,0)"></path>
<path d="M 919.424 1368.86 C 920.927 1370.5 921.613 1373.4 919.514 1374.85 C 915.975 1375.16 917.285 1372.85 918.509 1370.61 L 919.424 1368.86 z" fill="rgb(70,195,255)" transform="translate(0,0)"></path>
<path d="M 970.111 1389.89 C 974.98 1390.66 975.236 1391.25 978.035 1395.16 L 977.526 1395.06 C 974.505 1394.52 972.405 1394.19 970.892 1391.31 L 970.111 1389.89 z" fill="rgb(31,127,209)" transform="translate(0,0)"></path>
<path d="M 1666.18 716.791 C 1666.98 716.531 1667.86 716.728 1668.47 717.304 C 1669.08 717.88 1669.32 718.743 1669.11 719.553 C 1668.89 720.364 1668.25 720.992 1667.43 721.189 C 1666.24 721.48 1665.03 720.774 1664.69 719.592 C 1664.36 718.409 1665.02 717.173 1666.18 716.791 z" fill="rgb(31,127,209)" transform="translate(0,0)"></path>
<path d="M 1609.87 642.511 C 1610.69 641.641 1612.05 641.579 1612.94 642.372 C 1613.84 643.165 1613.94 644.525 1613.17 645.442 C 1612.66 646.059 1611.85 646.347 1611.06 646.193 C 1610.27 646.04 1609.62 645.469 1609.38 644.703 C 1609.13 643.937 1609.32 643.097 1609.87 642.511 z" fill="rgb(70,195,255)" transform="translate(0,0)"></path>
<path d="M 1669.49 618.697 C 1672.66 620.017 1672.36 619.971 1672.83 623.474 C 1668.23 624.144 1668.39 623.062 1669.49 618.697 z" fill="rgb(70,195,255)" transform="translate(0,0)"></path>
<path d="M 1681.01 698.34 C 1684.17 699.368 1685.23 699.166 1684.87 702.771 L 1684.72 704.761 L 1683.98 704.661 C 1681.26 704.152 1681.75 701.195 1681.01 698.34 z" fill="rgb(31,127,209)" transform="translate(0,0)"></path>
<path d="M 1545.12 794.741 C 1547.83 796.233 1548.87 796.451 1546.16 798.308 C 1545.46 798.756 1545.13 799.508 1544.34 799.093 C 1543.98 797.926 1544.79 795.891 1545.12 794.741 z" fill="rgb(70,195,255)" transform="translate(0,0)"></path>
<path d="M 780.447 1411.5 C 781.131 1411.17 781.857 1410.54 782.559 1410.92 C 782.544 1411.58 781.946 1412.02 781.524 1412.49 C 780.77 1412.78 780.191 1413.4 779.486 1412.98 C 779.509 1412.36 780.044 1411.96 780.447 1411.5 z" fill="rgb(70,195,255)" transform="translate(0,0)"></path>
<path d="M 1626.58 719.541 C 1627.2 719.252 1627.89 718.496 1628.56 718.881 C 1628.51 719.545 1627.86 719.992 1627.42 720.436 C 1626.95 720.7 1625.9 721.452 1625.45 721.016 C 1625.48 720.375 1626.16 719.945 1626.58 719.541 z" fill="rgb(31,127,209)" transform="translate(0,0)"></path>
<path d="M 1551.91 799.191 C 1553.32 798.495 1554.18 798.19 1553.72 800.221 C 1553.58 800.367 1552.67 801.542 1552.12 801.465 C 1552.01 801.449 1551.92 801.373 1551.87 801.278 C 1551.59 800.778 1551.86 799.574 1551.91 799.191 z" fill="rgb(31,127,209)" transform="translate(0,0)"></path>
<path d="M 759.022 1461.09 C 761.063 1460.93 760.978 1462.14 760.549 1463.69 C 760.005 1463.98 759.317 1464.58 758.644 1464.34 C 758.297 1463.71 758.888 1461.74 759.022 1461.09 z" fill="rgb(31,127,209)" transform="translate(0,0)"></path>
<path d="M 1655.53 766.917 C 1658.66 767.281 1660.29 766.549 1659.68 769.925 C 1657.55 771.019 1656.84 768.644 1655.53 766.917 z" fill="rgb(31,127,209)" transform="translate(0,0)"></path>
<path d="M 1623.36 631.059 C 1623.89 630.773 1624.14 630.508 1624.64 630.546 C 1624.91 630.971 1624.8 631.315 1624.8 631.923 C 1624.47 632.089 1623.38 632.498 1623.19 632.572 C 1622.99 632.09 1623.23 631.619 1623.36 631.059 z" fill="rgb(31,127,209)" transform="translate(0,0)"></path>
<path d="M 1684.19 758.391 C 1684.87 758.429 1684.93 758.337 1685.36 758.604 C 1685.79 759.4 1685.41 761.021 1685.36 761.916 C 1683.63 762.099 1684.19 759.831 1684.19 758.391 z" fill="rgb(31,127,209)" transform="translate(0,0)"></path>
<path d="M 1498.19 893.091 C 1498.4 892.986 1498.61 892.882 1498.83 892.777 C 1498.92 892.774 1499.01 892.772 1499.1 892.769 C 1499.09 893.143 1499.12 892.897 1498.93 893.57 C 1498.32 894.073 1498.56 893.928 1498.18 894.108 L 1498.12 894.063 C 1498.08 893.679 1498.08 893.955 1498.19 893.091 z" fill="rgb(70,195,255)" transform="translate(0,0)"></path>
<path d="M 1662.31 617.196 C 1662.61 617.048 1662.91 616.9 1663.21 616.752 C 1663.42 617.119 1663.31 617.52 1663.3 617.996 C 1662.99 618.008 1662.68 618.02 1662.37 618.031 C 1662.35 617.753 1662.33 617.475 1662.31 617.196 z" fill="rgb(31,127,209)" transform="translate(0,0)"></path>
<path d="M 1579.78 713.242 C 1580.05 713.264 1580.32 713.287 1580.58 713.309 C 1580.56 713.873 1580.45 714.387 1580.34 714.959 C 1579.93 714.91 1579.93 714.991 1579.66 714.758 C 1579.61 714.238 1579.69 713.782 1579.78 713.242 z" fill="rgb(31,127,209)" transform="translate(0,0)"></path>
<path d="M 1143.07 1249.32 C 1143.51 1249.15 1143.94 1248.99 1144.38 1248.82 C 1144.37 1249.54 1144.23 1250.2 1144.09 1250.93 C 1143.08 1250.57 1143.47 1250.31 1143.07 1249.32 z" fill="rgb(70,195,255)" transform="translate(0,0)"></path>
<path d="M 1525.8 838.159 C 1526.29 838.217 1526.12 838.15 1526.37 838.307 C 1526.42 838.615 1526.42 838.388 1526.19 839.126 C 1525.82 839.105 1525.46 839.084 1525.09 839.063 L 1525.07 838.979 C 1525.29 838.605 1525.11 838.855 1525.8 838.159 z" fill="rgb(70,195,255)" transform="translate(0,0)"></path>
<path d="M 1519.1 1009.98 C 1519.39 1009.85 1519.69 1009.71 1519.98 1009.58 C 1519.76 1009.77 1519.54 1009.96 1519.32 1010.15 C 1519.04 1010.31 1518.77 1010.46 1518.49 1010.62 C 1518.69 1010.41 1518.9 1010.19 1519.1 1009.98 z" fill="rgb(70,195,255)" transform="translate(0,0)"></path>
<path d="M 226.123 1097.12 C 230.683 1075.19 244.537 1033.04 251.961 1011.96 C 301.742 870.621 384.157 723.705 508.89 635.923 C 593.235 577.196 694.053 546.777 796.803 549.052 C 832.111 549.64 870.25 554.519 904.993 560.519 L 910.301 561.338 C 830.513 629.81 756.973 708.852 698.526 796.378 C 686.3 814.686 672.865 837.791 661.599 856.966 C 661.269 857.504 659.154 861.024 658.92 861.26 C 634.608 905.206 618.182 941.464 599.871 988.144 C 558.768 983.949 518.849 988.832 478.417 992.371 C 387.755 1007.75 298.163 1038.08 226.123 1097.12 z" fill="rgb(70,195,255)" transform="translate(0,0)"></path>
<path d="M 904.993 560.519 L 910.301 561.338 C 830.513 629.81 756.973 708.852 698.526 796.378 C 686.3 814.686 672.865 837.791 661.599 856.966 C 661.269 857.504 659.154 861.024 658.92 861.26 C 634.608 905.206 618.182 941.464 599.871 988.144 C 558.768 983.949 518.849 988.832 478.417 992.371 C 477.978 976.416 540.149 876.704 553.078 858.53 L 556.723 852.969 C 643.456 732.593 738.226 641.178 871.77 575.994 C 876.341 573.763 903.567 561.844 904.993 560.519 z" fill="rgb(31,127,209)" transform="translate(0,0)"></path>
<path d="M 1053.21 679.475 C 1070.73 666.257 1088.55 652.513 1106.39 639.636 C 1106.73 639.385 1108.75 640.221 1108.79 640.235 C 1090.05 655.488 1073.52 669.456 1055.34 685.185 C 1053.12 687.625 1043.33 696.932 1040.76 698.872 C 1040.02 695.108 1039.39 693.96 1039.65 690.122 C 1041.41 688.167 1050.84 681.196 1053.21 679.475 z" fill="rgb(234,247,255)" transform="translate(0,0)"></path>
<path d="M 1173.46 856.479 C 1147.39 824.725 1137.4 786.122 1141.48 745.556 C 1145.62 703.906 1166.4 665.692 1199.11 639.57 C 1234.8 610.53 1285.64 599.633 1330.29 609.749 C 1405.25 626.73 1460.33 700.221 1451.25 777.204 C 1446.62 818.978 1425.36 857.129 1392.29 883.06 C 1358.37 909.684 1316.43 920.361 1273.8 914.888 C 1236.41 910.087 1202.23 891.287 1178.16 862.278 L 1173.46 856.479 z" fill="rgb(31,127,209)" transform="translate(0,0)"></path>
<path d="M 548.242 1254.9 C 523.147 1285.46 514.926 1293 500.29 1331.86 L 500.068 1332.65 L 497.266 1346.81 C 496.254 1356.66 495.162 1369.35 495.343 1379.34 L 495.195 1380.81 C 495.397 1388.14 495.805 1395.46 496.42 1402.76 C 496.784 1404.08 496.959 1404.99 497.217 1406.34 C 499.132 1418.98 502.707 1428.7 506.576 1440.83 C 507.491 1442.67 514.977 1457.68 515.37 1458.96 C 537.868 1493.59 560.536 1519.74 600.28 1534.62 C 606.606 1536.99 622.684 1544.56 628.625 1543.78 C 629.613 1544.28 630.427 1544.86 631.356 1545.47 C 687.986 1555.45 729.084 1544.96 772.957 1507.91 L 775.049 1509.95 C 667.669 1687.38 462.019 1784.48 257.505 1774.26 C 246.937 1773.74 224.675 1774.29 216.169 1771.8 L 215.611 1770.69 C 218.606 1766.56 233.627 1754.82 238.955 1749.92 C 277.773 1714.21 302.319 1676.99 327.507 1630.66 C 364.394 1562.81 368.271 1484.35 405.415 1416.85 C 406.215 1414.23 409.682 1407.49 411.277 1405.2 C 412.519 1402.6 415.743 1396.19 417.244 1394.13 C 422.543 1383.68 430.184 1372.45 436.642 1362.53 C 463.744 1322.67 507.739 1280.8 548.242 1254.9 z" fill="url(#Gradient1)" transform="translate(0,0)"></path>
<path d="M 548.242 1254.9 C 523.147 1285.46 514.926 1293 500.29 1331.86 L 500.068 1332.65 L 497.266 1346.81 C 496.254 1356.66 495.162 1369.35 495.343 1379.34 L 495.195 1380.81 C 491.269 1386.12 488.372 1390.73 481.36 1391.22 L 479.861 1392.84 C 478.406 1397.78 475.598 1400.53 472.089 1404.34 L 475.554 1405.74 C 476.881 1411.67 477.504 1410.41 475.856 1415.38 C 473.24 1416.87 470.998 1416.05 468.988 1413.91 L 467.013 1408.93 L 462.866 1411.92 L 459.76 1412.53 L 456.712 1414.16 L 455.753 1413.64 C 454.859 1410.27 454.029 1406.36 450.54 1405.06 C 443.504 1411.86 448.466 1411.53 445.67 1418.58 L 444.565 1418.42 C 442.084 1414.04 444.11 1411.84 442.822 1406.03 C 440.087 1404.17 439.267 1404.01 436.17 1403.26 C 438.104 1403.07 438.83 1402.95 440.721 1402.51 L 436.13 1401.5 L 435.303 1400.03 C 436.923 1397.21 435.824 1398.39 439.073 1396.76 C 443.294 1396.58 448.383 1397.88 451.755 1400.32 C 449.506 1401.92 449.745 1401.1 449.107 1403.01 L 452.013 1403.02 C 453.932 1401.32 454.17 1400.21 455.415 1397.84 L 456.65 1397.77 L 457.803 1401.2 L 459.529 1404.32 L 461.718 1402.46 C 461.199 1398.86 461.385 1397.77 458.777 1395.25 L 456.007 1392.36 C 454.542 1390.78 455.314 1391.48 452.975 1390.69 L 452.035 1387.43 L 451.945 1385.68 L 450.693 1383.86 C 439.783 1382.57 434.935 1371.75 444.856 1367.54 L 444.82 1366.91 L 436.642 1362.53 C 463.744 1322.67 507.739 1280.8 548.242 1254.9 z" fill="rgb(70,195,255)" transform="translate(0,0)"></path>
<path d="M 499.34 1311.1 C 499.954 1310.95 500.567 1310.79 501.181 1310.64 C 500.788 1311.04 500.394 1311.44 500.001 1311.84 C 499.599 1311.97 499.372 1312.12 499.095 1312 C 499.137 1311.56 499.081 1311.84 499.34 1311.1 z" fill="rgb(234,247,255)" transform="translate(0,0)"></path>
<path d="M 417.244 1394.13 C 421.093 1399.05 434.419 1396.54 431.154 1405.1 C 431.592 1409.28 434.106 1410.52 437.866 1412.46 C 440.668 1420.8 437.617 1422.23 429.898 1424.48 C 429.222 1424.4 428.546 1424.31 427.87 1424.22 L 424.04 1424.72 C 413.545 1416.47 419.147 1431.22 410.268 1427.5 L 410.274 1427.5 C 410.476 1426.32 411.693 1425.4 412.539 1424.46 C 412.504 1423.97 405.986 1417.3 405.415 1416.85 C 406.215 1414.23 409.682 1407.49 411.277 1405.2 C 412.519 1402.6 415.743 1396.19 417.244 1394.13 z" fill="rgb(70,195,255)" transform="translate(0,0)"></path>
<path d="M 628.625 1543.78 C 629.613 1544.28 630.427 1544.86 631.356 1545.47 C 630.159 1547.58 633.241 1555.65 631.495 1559 C 631.423 1559.14 631.058 1565.92 631.635 1566.59 C 633.529 1566.57 636.998 1564.37 638.927 1565.96 C 639.013 1567.38 637.962 1568.32 637.062 1569.23 C 635.128 1571.17 635.185 1571.18 632.53 1571.73 C 630.756 1572.1 629.39 1572.96 627.425 1572.02 C 626.527 1571.59 625.406 1571.56 624.647 1572.4 C 624.185 1573.25 624.276 1575.39 624.533 1576.28 C 625.468 1578.49 627.14 1576.91 628.43 1576.58 C 629.779 1576.25 631.196 1579.42 633.504 1578.83 C 634.704 1578.53 637.539 1579.29 638.373 1580.27 C 639.231 1581.29 638.526 1582.64 637.444 1583.3 C 634.067 1583.71 630.861 1581.43 627.503 1581 C 625.33 1580.63 621.987 1581.94 621.327 1579.01 C 620.688 1576.17 620.157 1567.86 624.019 1566.92 C 624.542 1566.77 625.066 1566.61 625.589 1566.46 C 627.816 1566.02 628.16 1562.08 625.961 1561.59 C 625.488 1561.47 625.015 1561.35 624.541 1561.22 C 622.516 1560.01 618.72 1559.57 616.699 1561.59 C 614.733 1563.55 611.285 1564.19 609.166 1561.64 C 608.271 1560.56 610.017 1559.21 610.983 1559.23 C 611.713 1559.01 612.443 1558.8 613.174 1558.58 C 617.207 1556.62 626.631 1557.19 626.459 1550.64 C 626.359 1546.81 626.398 1546.57 628.625 1543.78 z" fill="rgb(70,195,255)" transform="translate(0,0)"></path>
<path d="M 499.474 1452.17 C 499.094 1450.33 495.347 1437.74 496.994 1437.89 C 507.436 1438.82 500.084 1445.14 499.774 1446.31 C 504.868 1448.28 504.153 1446.58 508.548 1450.44 L 508.716 1450.27 C 508.435 1451.45 506.612 1441.32 506.576 1440.83 C 507.491 1442.67 514.977 1457.68 515.37 1458.96 C 511.465 1459.94 513.193 1456.29 510.62 1453.26 C 509.997 1454.25 510.213 1457.55 507.77 1453.73 C 506.766 1452.17 502.457 1447.39 500.157 1449.53 C 500.363 1449.93 503.113 1452.39 503.849 1453.53 C 505.742 1456.46 505.696 1459.33 506.506 1461.6 C 506.723 1462.21 509.977 1459.87 511.361 1460.21 C 511.704 1460.67 512.013 1460.88 511.531 1461.55 C 510.74 1462.86 506.386 1463.34 505.297 1463.36 C 499.897 1463.47 503.166 1468.49 500.416 1469.94 C 498.163 1471.13 498.044 1473.93 496.598 1473.65 C 493.829 1473.13 497.369 1468.28 497.202 1466.61 C 493.845 1462.87 479.946 1462.67 477.91 1464.14 C 477.811 1464.61 477.202 1470.85 475.487 1469.72 C 474.179 1466.57 477.056 1466.05 475.728 1463.41 C 475.48 1462.91 473.238 1459.81 473.671 1459.13 C 476.458 1459.04 485.914 1463.51 491.342 1462.67 C 493.035 1462.4 502.058 1464.34 503.924 1461.96 C 507.362 1457.57 499.548 1452.72 499.474 1452.17 z" fill="rgb(70,195,255)" transform="translate(0,0)"></path>
<path d="M 496.42 1402.76 C 496.784 1404.08 496.959 1404.99 497.217 1406.34 C 493.253 1408.14 490.655 1409.26 487.568 1412.48 L 486.796 1413.27 C 491.322 1414.95 493.254 1414.56 493.076 1419.54 C 490.438 1422.97 482.883 1415.46 483.818 1409.33 C 490.33 1403.32 492.442 1405.47 496.42 1402.76 z" fill="rgb(70,195,255)" transform="translate(0,0)"></path>
<path d="M 658.037 1587.91 C 660.468 1587.46 664.9 1590.08 668.975 1587.17 C 669.438 1586.84 671.063 1590.42 671.091 1591.51 C 671.378 1602.46 678.687 1593.25 683.783 1598.31 C 683.45 1599.42 679.984 1603.38 684.278 1605.73 C 688.475 1608.03 685.169 1613.09 683.554 1611.65 C 685.686 1604.59 682.955 1609.63 680.846 1602.05 C 680.425 1599.73 680.71 1599.28 678.444 1600.5 C 676.135 1601.72 672.953 1603.21 670.561 1604.29 C 663.015 1607.7 670.66 1610.76 661.729 1613.51 L 661.277 1614.22 C 658.628 1618.33 658.406 1627.03 655.505 1624.49 C 652.823 1622.15 656.418 1615.29 656.349 1612.49 C 655.072 1610.46 653.05 1611.29 651.218 1612.24 C 650.235 1612.76 649.69 1613.16 648.549 1612.72 C 647.867 1612.52 647.184 1612.32 646.501 1612.11 C 645.327 1611.72 638.496 1610.72 642.16 1608.3 C 644.858 1606.52 648.319 1609.02 650.848 1609.4 C 651.872 1609.51 651.993 1607.95 651.682 1607.52 C 650.388 1605.71 651.722 1602.53 653.997 1603.87 C 659.457 1607.07 658.172 1601.44 662.002 1599.88 C 662.402 1599.72 664.677 1599.69 664.66 1598.4 C 663.98 1595.63 665.946 1594.28 665.563 1591.4 C 665.248 1589.04 660.177 1590.77 658.608 1588.49 C 658.418 1588.29 658.227 1588.1 658.037 1587.91 z" fill="rgb(70,195,255)" transform="translate(0,0)"></path>
<path d="M 677.391 1579.14 C 679.423 1579.75 682.541 1581.56 681.761 1583.02 C 678.634 1588.87 699.281 1582.61 692.454 1588.34 L 689.597 1590.78 C 685.842 1592.73 682.819 1595.75 678.314 1593.45 C 674.048 1591.27 681.236 1587.83 676.188 1585.72 C 672.237 1584.07 674.876 1582.34 676.742 1579.97 L 677.391 1579.14 z" fill="rgb(70,195,255)" transform="translate(0,0)"></path>
<path d="M 481.167 1427.56 C 483.663 1428.1 491.793 1428.77 493.015 1430.99 C 494.475 1433.64 496.502 1434.92 493.725 1436.72 C 486.819 1436.12 476.799 1438.8 481.167 1427.56 z" fill="rgb(70,195,255)" transform="translate(0,0)"></path>
<path d="M 662.265 1567.74 C 664.368 1569.38 667.024 1570.5 668.583 1571.79 C 670.989 1573.77 664.535 1574.1 662.406 1577.08 C 662.056 1577.41 659.433 1580.08 659.001 1580.13 C 653.3 1580.79 661.509 1569.74 661.567 1569.59 L 662.265 1567.74 z" fill="rgb(70,195,255)" transform="translate(0,0)"></path>
<path d="M 598.094 1566.99 C 599.648 1568.19 600.917 1569.5 598.817 1571.44 C 595.196 1574.8 596.216 1579.96 595.407 1584.76 C 593.852 1583.66 593.163 1583.45 592.837 1581.52 C 591.194 1571.79 591.258 1572.9 598.094 1566.99 z" fill="rgb(70,195,255)" transform="translate(0,0)"></path>
<path d="M 593.255 1550.63 C 596.713 1553.26 594.983 1552.49 594.898 1556.49 C 594.709 1565.41 604.125 1556.98 603.542 1564.27 C 594.096 1564.05 594.21 1565.5 590.228 1553.6 C 590.105 1553.23 591.548 1552.04 591.819 1551.82 L 593.255 1550.63 z" fill="rgb(70,195,255)" transform="translate(0,0)"></path>
<path d="M 478.704 1418.27 C 486.648 1422.17 477.898 1427.58 472.491 1428.51 L 470.603 1428.85 C 466.142 1421.61 470.446 1423.73 474.477 1423.75 C 475.942 1423.75 477.345 1420.4 478.164 1419.11 L 478.704 1418.27 z" fill="rgb(70,195,255)" transform="translate(0,0)"></path>
<path d="M 456.267 1453.64 C 458.623 1454.32 466.23 1458.1 467.077 1460.7 C 460.01 1463.13 458.768 1460.86 456.267 1453.64 z" fill="rgb(70,195,255)" transform="translate(0,0)"></path>
<path d="M 456.575 1417.71 C 461.695 1423.45 463.683 1424.13 456.259 1424.66 C 455.201 1424.96 452.34 1426.36 451.727 1424.58 C 451.766 1424.38 455.524 1419.9 456.575 1417.71 z" fill="rgb(70,195,255)" transform="translate(0,0)"></path>
<path d="M 463.201 1426.57 C 465.898 1427.96 468.341 1433.65 469.265 1436.37 C 462.457 1434.45 460.722 1433.23 463.201 1426.57 z" fill="rgb(70,195,255)" transform="translate(0,0)"></path>
<path d="M 512.376 1499.39 C 508.252 1494.42 512.374 1492.91 515.31 1497.37 L 516.206 1498.67 C 516.934 1499.71 519.599 1501.45 519.395 1502.43 C 518.512 1506.7 512.379 1499.4 512.376 1499.39 z" fill="rgb(70,195,255)" transform="translate(0,0)"></path>
<path d="M 570.636 1540.54 C 576.725 1544.7 573.07 1550.68 569.38 1555.2 C 567.017 1550.77 572.162 1551.15 570.938 1546.58 C 570.25 1544.01 570.4 1543.04 570.636 1540.54 z" fill="rgb(70,195,255)" transform="translate(0,0)"></path>
<path d="M 417.142 1438.98 C 423.253 1443.12 414.166 1445.71 411.382 1446.7 C 410.414 1446.21 409.554 1446.11 409.638 1445.08 C 409.681 1444.55 410.448 1444.15 410.853 1444.04 C 413.646 1443.24 415.295 1441.09 417.142 1438.98 z" fill="rgb(70,195,255)" transform="translate(0,0)"></path>
<path d="M 435.677 1424.63 C 440.979 1428.23 439.568 1429.37 437.759 1432.84 C 437.975 1433.86 439.071 1434.76 439.75 1436.24 C 431.863 1437.89 439.727 1433.52 436.222 1430.79 C 434.422 1429.39 434.546 1428.04 435.214 1426.09 L 435.677 1424.63 z" fill="rgb(70,195,255)" transform="translate(0,0)"></path>
<path d="M 654.42 1559.84 C 657.117 1562.35 660.967 1563.37 658.41 1566.63 L 657.65 1567.64 C 652.131 1567.69 651.977 1563.74 654.42 1559.84 z" fill="rgb(70,195,255)" transform="translate(0,0)"></path>
<path d="M 529.655 1499.42 C 533.374 1502.24 532.727 1505.66 530.731 1509.52 C 527.431 1504.5 527.202 1504.67 529.655 1499.42 z" fill="rgb(70,195,255)" transform="translate(0,0)"></path>
<path d="M 534.152 1505.94 C 539.192 1506.27 541.248 1507.19 542.618 1512.25 C 538.192 1510.63 535.019 1510.57 534.152 1505.94 z" fill="rgb(70,195,255)" transform="translate(0,0)"></path>
<path d="M 643.049 1596.39 C 645.94 1598.73 645.065 1603.1 644.029 1606.55 C 638.671 1603.23 640.792 1604.05 643.049 1596.39 z" fill="rgb(70,195,255)" transform="translate(0,0)"></path>
<path d="M 441.616 1457.27 C 446.272 1459.4 445.632 1460.33 443.7 1465.07 C 439.304 1463.48 440.58 1461.39 441.616 1457.27 z" fill="rgb(70,195,255)" transform="translate(0,0)"></path>
<path d="M 456.806 1427.72 C 460.193 1430.88 457.695 1431.94 454.756 1434.52 C 450.713 1431.65 452.553 1431.12 456.087 1428.34 L 456.806 1427.72 z" fill="rgb(70,195,255)" transform="translate(0,0)"></path>
<path d="M 470.244 1439.62 C 472.958 1441.79 472.392 1444.82 472.446 1448.38 C 467.282 1446.64 468.843 1444.68 470.244 1439.62 z" fill="rgb(70,195,255)" transform="translate(0,0)"></path>
<path d="M 527.886 1491.61 C 531.38 1489.08 530.679 1493.58 531.517 1497.35 C 528.45 1495.51 526.881 1495.12 527.886 1491.61 z" fill="rgb(70,195,255)" transform="translate(0,0)"></path>
<path d="M 483.665 1419.99 C 486.442 1421.07 487.746 1421.23 488.08 1424.36 L 488.308 1426.01 C 483.084 1425.37 483.711 1425.43 483.665 1419.99 z" fill="rgb(70,195,255)" transform="translate(0,0)"></path>
<path d="M 623.187 1588.67 C 623.758 1587.94 624.713 1587.61 625.617 1587.84 C 626.521 1588.07 627.201 1588.82 627.346 1589.74 C 627.491 1590.66 627.074 1591.58 626.285 1592.08 C 625.326 1592.69 624.07 1592.51 623.307 1591.68 C 622.544 1590.84 622.494 1589.57 623.187 1588.67 z" fill="rgb(70,195,255)" transform="translate(0,0)"></path>
<path d="M 607.004 1576.42 C 609.349 1575.1 609.462 1575.56 609.097 1578.49 C 606.268 1580.42 606.111 1579.13 607.004 1576.42 z" fill="rgb(70,195,255)" transform="translate(0,0)"></path>
<path d="M 551.259 1535.77 C 553.533 1537.89 553.343 1538.93 552.371 1541.91 C 548.902 1541.4 550.527 1538.69 551.259 1535.77 z" fill="rgb(70,195,255)" transform="translate(0,0)"></path>
<path d="M 480.19 1407.28 C 482.816 1405.5 481.955 1406.98 481.531 1408.5 C 479.289 1411.08 478.769 1410.2 480.19 1407.28 z" fill="rgb(70,195,255)" transform="translate(0,0)"></path>
<path d="M 522.249 1506.64 C 525.281 1508.19 526.17 1508.68 526.463 1512.13 C 523.748 1511.44 522.267 1511.1 522.279 1508.01 L 522.249 1506.64 z" fill="rgb(70,195,255)" transform="translate(0,0)"></path>
<path d="M 495.113 1422.67 C 495.657 1422.77 496.199 1422.88 496.744 1422.97 C 497.32 1423.07 497.905 1423.13 498.47 1423.27 C 498.764 1423.35 499.405 1423.49 499.531 1423.85 C 499.557 1423.93 499.552 1424.03 499.511 1424.1 C 499.175 1424.69 498.112 1424.91 497.664 1425.09 C 494.15 1426.37 494.078 1426.2 495.113 1422.67 z" fill="rgb(70,195,255)" transform="translate(0,0)"></path>
<path d="M 482.029 1446.31 C 485.566 1444.53 484.625 1445.8 482.761 1447.64 C 482.118 1448.1 481.56 1448.7 480.783 1448.26 C 480.492 1447.28 481.275 1446.93 482.029 1446.31 z" fill="rgb(70,195,255)" transform="translate(0,0)"></path>
<path d="M 494.366 1494.25 C 494.542 1494.11 495.394 1493.29 495.863 1493.44 C 496.001 1493.48 496.062 1493.57 496.102 1493.7 C 496.271 1494.28 495.749 1495.29 495.598 1495.69 C 495.074 1496.08 494.665 1496.57 494.021 1496.55 C 493.42 1495.95 494.208 1494.86 494.366 1494.25 z" fill="rgb(70,195,255)" transform="translate(0,0)"></path>
<path d="M 553.947 1521.78 C 556.552 1523.41 557.533 1523.49 555.24 1525.67 C 552.694 1526.76 552.98 1525.26 553.584 1523.16 L 553.947 1521.78 z" fill="rgb(70,195,255)" transform="translate(0,0)"></path>
<path d="M 569.632 1534.29 C 570.19 1534.1 570.798 1533.73 571.344 1534.11 L 571.347 1534.29 C 571.029 1534.77 570.581 1534.84 569.992 1535.12 C 569.578 1535.14 568.159 1535.44 567.721 1534.94 L 567.728 1534.83 C 568.258 1534.38 568.915 1534.42 569.632 1534.29 z" fill="rgb(70,195,255)" transform="translate(0,0)"></path>
<path d="M 458.066 1475.34 C 460.29 1475.24 460.052 1475.57 459.1 1477.61 C 457.667 1477.04 457.324 1476.8 458.066 1475.34 z" fill="rgb(70,195,255)" transform="translate(0,0)"></path>
<path d="M 508.186 1480.49 C 509.109 1480.24 509.22 1480.04 509.714 1480.36 C 509.683 1481.19 509.512 1481.95 509.332 1482.79 C 508.558 1482.94 508.876 1482.96 508.381 1482.88 C 507.925 1482.38 508.161 1481.07 508.186 1480.49 z" fill="rgb(70,195,255)" transform="translate(0,0)"></path>
<path d="M 526.445 1525.21 C 526.794 1525.23 527.126 1525.18 527.353 1525.38 C 527.246 1525.58 527.138 1525.79 527.03 1526 L 526.654 1526.54 C 525.931 1526.75 525.562 1526.95 525.228 1526.81 C 525.564 1526.21 525.976 1525.75 526.445 1525.21 z" fill="rgb(70,195,255)" transform="translate(0,0)"></path>
<path d="M 443.344 1442.78 C 443.87 1442.52 444.086 1442.26 444.532 1442.4 C 444.771 1442.77 444.645 1442.51 444.884 1443.25 C 444.135 1443.57 444.428 1443.48 443.958 1443.58 C 443.554 1443.42 443.614 1443.32 443.344 1442.78 z" fill="rgb(70,195,255)" transform="translate(0,0)"></path>
<path d="M 1021.84 704.304 C 1022.97 707.585 1020.49 707.803 1024.1 710.27 C 1025.48 711.209 1023.72 714.709 1023.32 716.045 C 1021.62 718.213 1010.7 729.674 1008.3 732.087 C 1007.5 725.972 1008.7 721.307 1006.64 716.802 C 1008.47 714.664 1019.02 706.395 1021.84 704.304 z" fill="rgb(234,247,255)" fill-opacity="0.278431" transform="translate(0,0)"></path>
<path d="M 1001.68 720.908 C 1002.61 723.841 1003.77 723.792 1002.65 727.492 C 1002.58 727.722 1003.81 728.73 1004.49 729.454 C 1001.67 732.59 1002.23 732.903 1003.83 736.646 C 1002.09 738.516 996.48 745.081 994.831 746.235 C 993.808 745.932 992.664 745.841 991.846 745.119 C 991.57 743.958 991.61 743.752 991.729 742.588 C 992.348 741.714 994.021 740.892 993.499 739.994 C 989.953 733.892 990.516 746.178 987.493 741.273 C 986.866 740.255 990.721 737.128 991.144 735.358 C 991.941 732.021 993.466 731.982 993.563 728.26 C 995.449 725.638 999.091 723.104 1001.68 720.908 z" fill="rgb(234,247,255)" fill-opacity="0.207843" transform="translate(0,0)"></path>
<path d="M 1039.65 690.122 C 1039.39 693.96 1040.02 695.108 1040.76 698.872 C 1037.72 701.621 1033.8 706.301 1030.82 708.439 C 1024.43 705.457 1026.66 708.089 1023.45 702.824 C 1028.8 698.486 1034.61 694.515 1039.65 690.122 z" fill="rgb(234,247,255)" fill-opacity="0.419608" transform="translate(0,0)"></path>
<path d="M 1001.68 720.908 C 1003.28 719.174 1004.75 718.194 1006.64 716.802 C 1008.7 721.307 1007.5 725.972 1008.3 732.087 L 1003.83 736.646 C 1002.23 732.903 1001.67 732.59 1004.49 729.454 C 1003.81 728.73 1002.58 727.722 1002.65 727.492 C 1003.77 723.792 1002.61 723.841 1001.68 720.908 z" fill="rgb(234,247,255)" fill-opacity="0.301961" transform="translate(0,0)"></path>
<path d="M 1023.45 702.824 C 1026.66 708.089 1024.43 705.457 1030.82 708.439 C 1028.03 711.692 1026.52 713.208 1023.32 716.045 C 1023.72 714.709 1025.48 711.209 1024.1 710.27 C 1020.49 707.803 1022.97 707.585 1021.84 704.304 C 1022.5 703.582 1022.67 703.416 1023.45 702.824 z" fill="rgb(234,247,255)" fill-opacity="0.372549" transform="translate(0,0)"></path>
<path d="M 772.957 1507.91 C 778.932 1502.79 779.134 1503.52 775.049 1509.95 L 772.957 1507.91 z" fill="rgb(70,195,255)" transform="translate(0,0)"></path>
<metadata><recraft-signature>{"signed_by": "recraft", "signature_b64": "pWGjjmYgwHdCy7qEUYEPNdPU+bshMH9EeRgbJikLT+H1TxHlGL/ADTNkIsGRXoEuPYmpzX1x1tPwSr6gcvaJCg==", "signing_algo": "Ed25519", "generation_timestamp": 1781580614, "identifier": "7347c0f6-0d93-4771-8adb-1466850f8f1c"}</recraft-signature></metadata></svg>