<svg xmlns="http://www.w3.org/2000/svg" height="1024" preserveAspectRatio="none" style="display: block;" version="1.1" viewBox="0 0 2048 2048" width="1024">
<defs>
	<linearGradient gradientUnits="userSpaceOnUse" id="Gradient1" x1="1076.18" x2="1553.03" y1="754.681" y2="1547.37">
		<stop class="stop0" offset="0" stop-color="rgb(10,76,38)" stop-opacity="1"></stop>
		<stop class="stop1" offset="1" stop-color="rgb(9,106,47)" stop-opacity="1"></stop>
	</linearGradient>
	<linearGradient gradientUnits="userSpaceOnUse" id="Gradient2" x1="1490.87" x2="1310.94" y1="879.542" y2="796.047">
		<stop class="stop0" offset="0" stop-color="rgb(230,242,241)" stop-opacity="0.498039"></stop>
		<stop class="stop1" offset="1" stop-color="rgb(225,242,241)" stop-opacity="0.729412"></stop>
	</linearGradient>
</defs>
<path d="M 609.065 346.877 C 622.347 344.978 639.28 345.668 653.025 345.771 C 671.844 345.927 690.664 345.967 709.484 345.89 L 929.134 345.434 L 1253.12 345.802 L 1365.96 345.983 C 1388.44 346.043 1413.78 345.396 1435.97 347.197 C 1472.48 346.175 1507.85 359.962 1534.04 385.423 C 1548.5 399.23 1570.9 428.477 1580.97 446.661 L 1753.61 706.099 L 1813.02 795.805 C 1819.66 805.812 1837.38 831.025 1842.26 840.593 C 1825.42 862.806 1804.36 887.095 1786.46 909.238 L 1660.6 1065.8 L 1338.14 1475.75 C 1283.27 1544.15 1228.82 1612.89 1174.78 1681.95 C 1126.32 1742.94 1075.74 1805.86 1028.86 1867.98 C 1027.03 1870.53 1027.2 1870.69 1024.51 1872.15 C 1019.48 1868.32 1002.28 1844.55 997.016 1837.72 L 952.885 1781.5 L 715.225 1481.52 L 352.583 1025.55 L 254.762 902.706 L 227.088 868.072 C 220.414 859.863 211.222 849.311 205.699 840.835 C 210.607 840.323 215.914 840.237 220.873 840.045 C 224.554 840.244 227.252 840.037 230.917 839.954 L 232.994 835.523 C 236.416 828.355 231.338 825.124 223.941 823.987 L 220.544 823.488 C 221.213 821.778 227.523 810.795 228.833 808.557 C 246.33 778.667 267.597 751.105 286.822 722.031 L 467.533 448.958 C 470.155 441.073 487.033 419.348 492.925 411.965 C 528.894 366.891 552.97 353.44 609.065 346.877 z M 1304.95 805.673 C 1298.58 808.364 1285.71 812.715 1280.28 815.395 C 1271.29 818.238 1262.19 820.69 1252.99 822.743 C 1249.24 823.549 1222.04 827.595 1221.41 828.643 C 1221.34 830.61 1222.43 828.784 1221.54 833.38 C 1226.07 835.267 1238.67 836.505 1243.99 837.159 C 1247.97 837.659 1251.92 838.338 1255.84 839.192 L 1257.13 839.472 C 1261.41 839.68 1268.06 841.495 1272.22 842.568 C 1276.64 844.568 1283.34 845.882 1288.27 847.655 C 1305.13 854.315 1312.88 858.707 1328.29 868.271 C 1344.62 881.641 1351.25 887.242 1364.84 903.825 L 1367.24 907.139 C 1369.05 909.806 1370.72 912.501 1372.53 915.16 C 1378.17 926.07 1383.2 935.328 1387.26 946.979 C 1389.4 952.636 1394.52 966.059 1395.07 971.961 C 1395.65 973.483 1396.16 974.66 1396.82 976.133 C 1402.53 1003.8 1405.82 1040.03 1406.13 1068.45 C 1406.06 1072.69 1406.05 1077.04 1405.92 1081.27 C 1405.83 1090.85 1405.99 1100.43 1406.39 1110 C 1406.39 1111.02 1406.11 1112.8 1406.97 1113.59 C 1407.8 1113.35 1407.62 1110.65 1407.66 1110 L 1407.79 1108 C 1408.23 1100.42 1408.24 1090.61 1408.14 1083.02 C 1408.06 1079.8 1408.12 1076.79 1407.81 1073.58 C 1408.01 1036.18 1412.18 998.92 1420.27 962.413 C 1422.19 958.522 1422.75 955.22 1424.06 951.102 L 1424.36 950.202 C 1435.82 925.797 1435.88 922.33 1452.33 898.748 C 1462.17 887.2 1468.58 880.763 1480.72 871.363 C 1480.96 871.199 1481.2 871.034 1481.44 870.869 C 1488.61 865.74 1496.19 861.207 1504.11 857.316 C 1507.59 855.609 1515.4 852.404 1518 850.805 L 1521.84 849.031 L 1523.02 848.432 C 1532.8 845.32 1542.94 842.207 1553.01 840.223 L 1560.49 838.823 C 1575.77 836.031 1608.95 831.122 1624.21 832.306 L 1626.04 832.229 L 1630.08 832.243 L 1630.9 829.874 C 1629.56 829.909 1628.21 829.953 1626.87 830.008 L 1623.17 830.096 C 1611.87 829.499 1600.25 828.273 1589 827.112 C 1582.36 826.386 1575.74 825.533 1569.14 824.555 C 1551.03 821.707 1541.53 818.825 1524.12 814.533 C 1520.77 812.751 1517.64 811.89 1514.09 810.496 C 1511.2 808.992 1505.99 806.67 1502.97 805.411 C 1499.19 803.085 1495.98 801.283 1491.96 799.432 C 1490.27 798.107 1488.75 797.186 1486.9 796.08 C 1473.67 787.372 1463.7 777.614 1453.47 765.725 L 1452.56 764.857 C 1450.77 762.159 1446.52 756.967 1444.32 753.981 C 1443.69 752.106 1442.06 749.435 1440.75 747.948 C 1439.56 745.665 1438.34 743.397 1437.09 741.144 C 1436.72 740.06 1436.34 738.981 1435.94 737.908 L 1432.8 732.315 C 1431.38 729.193 1430.03 726.043 1428.74 722.867 L 1424.65 710.914 L 1423.67 708.263 L 1421.62 701.208 C 1420.43 696.695 1419.55 692.103 1418 687.693 C 1417.81 686.467 1417.81 686.106 1417.43 684.966 C 1413.35 653.048 1408.8 625.851 1407.9 593.098 L 1408.33 588.993 L 1405.93 588.143 L 1406.25 592.92 C 1403.67 615.314 1403.43 638.151 1399.86 660.494 C 1398.66 668.022 1396.48 676.031 1395.7 683.469 C 1394.46 686.65 1394.23 688.437 1393.62 691.796 C 1392.27 695.048 1391.47 699.206 1390.36 702.807 L 1389.59 705.828 C 1387.52 710.502 1385.2 717.845 1383.56 722.836 C 1371.16 749.329 1357.4 771.343 1333.07 788.723 C 1323.79 795.68 1315.14 800.224 1304.95 805.673 z M 1397.46 975.034 C 1397.46 969.709 1414.42 966.641 1418.85 964.433 C 1416.63 969.622 1416.4 968.888 1411.52 970.244 C 1404.59 972.169 1405.43 973.833 1397.46 975.034 z" fill="rgb(10,143,85)" transform="translate(0,0)"></path>
<path d="M 1383.56 722.836 C 1391.05 721.681 1389.32 715.836 1391.1 711.024 C 1392.74 706.572 1399.39 712.202 1401.94 712.613 C 1410.26 713.955 1411.11 700.95 1416.13 715.08 C 1419.41 723.069 1422.84 713.899 1424.65 710.914 L 1428.74 722.867 C 1426.81 725.95 1423.46 728.062 1424.74 732.514 C 1426.47 738.504 1430.01 735.645 1432.8 732.315 L 1435.94 737.908 C 1430.95 742.566 1430.47 740.876 1430.37 747.983 L 1430.41 751.567 C 1430.46 756.446 1435.58 758.725 1433.65 764.674 C 1431.87 770.154 1450.15 782.65 1453.23 787.918 C 1454.95 790.852 1465.23 796.835 1466.87 799.849 C 1468.71 804.116 1471.98 803.33 1476.29 804.502 C 1476.9 804.619 1477.5 804.735 1478.11 804.851 L 1479.02 804.493 C 1480.34 803.97 1484.47 801.868 1485.41 801.716 C 1486.72 802.475 1483.13 811.131 1493.51 809.528 C 1503.86 807.541 1498.9 814.467 1505.39 815.938 C 1514.09 817.908 1512.62 821.422 1517.64 827.653 C 1522.68 833.924 1515.78 839.81 1512.96 845.702 C 1511.41 846.101 1493.49 849.748 1494.07 849.032 C 1491.5 852.184 1484.09 856.483 1480.41 856.513 C 1479.39 856.487 1478.26 856.339 1477.24 856.531 C 1477.02 856.788 1477.13 856.572 1477.19 857.459 C 1475.93 859.175 1474.1 860.546 1472.42 861.744 C 1469.37 863.932 1469.02 869.04 1464.62 870.593 C 1463.4 871.068 1461.9 873.239 1461.21 874.353 C 1459.3 877.435 1454.78 878.812 1453.21 882.352 C 1451.24 886.81 1446.54 884.508 1446.03 889.508 C 1445.88 890.963 1444.05 893.064 1444.8 894.674 C 1445.94 895.488 1447.48 892.057 1449.62 891.965 C 1451 893.44 1449.52 895.366 1452.33 898.748 C 1435.88 922.33 1435.82 925.797 1424.36 950.202 C 1422.05 948.54 1414.74 958.379 1412.68 960.594 C 1403.99 962.637 1398.64 962.72 1395.07 971.961 C 1394.52 966.059 1389.4 952.636 1387.26 946.979 C 1383.2 935.328 1378.17 926.07 1372.53 915.16 C 1377.99 913.407 1375.75 906.016 1372.72 903 C 1370.62 900.912 1368.41 905.73 1367.24 907.139 L 1364.84 903.825 C 1366.81 898.975 1363.26 900.253 1362.61 896.86 L 1363.05 896.292 C 1365.58 895.85 1365.85 900.325 1366.41 900.653 C 1370.52 903.068 1370.29 895.984 1367.53 894.874 C 1364.31 893.578 1362.95 890.715 1360.34 888.798 C 1358.16 887.734 1355.54 884.185 1353.44 883.264 C 1348.31 881.012 1343.31 871.201 1338.44 871.762 C 1336.86 871.944 1331.57 865.116 1330.32 864.701 C 1329.98 864.774 1330.04 864.732 1329.81 864.963 C 1329.27 866.418 1329.16 866.789 1328.29 868.271 C 1312.88 858.707 1305.13 854.315 1288.27 847.655 C 1295.6 844.194 1288.46 837.384 1289.46 831.98 C 1290.07 828.715 1295.23 824.537 1297.93 820.943 L 1298.99 819.502 C 1302.86 817.968 1306.93 816.784 1310.44 814.477 C 1310.66 814.335 1312.88 812.625 1312.09 812.133 C 1311.72 811.903 1310.79 812.223 1310.35 812.365 C 1308.97 812.772 1307.04 813.486 1305.62 813.468 C 1304.58 813.454 1304.28 812.433 1304.51 811.608 C 1305.59 810.938 1306.9 811.884 1308.03 811.339 C 1308.49 810.363 1310.16 808.01 1310.23 807.595 L 1310.07 807.466 C 1305.51 808.276 1308.92 807.279 1304.95 805.673 C 1315.14 800.224 1323.79 795.68 1333.07 788.723 C 1357.4 771.343 1371.16 749.329 1383.56 722.836 z" fill="url(#Gradient2)" transform="translate(0,0)"></path>
<path d="M 1304.95 805.673 C 1308.92 807.279 1305.51 808.276 1310.07 807.466 L 1310.23 807.595 C 1310.16 808.01 1308.49 810.363 1308.03 811.339 C 1306.9 811.884 1305.59 810.938 1304.51 811.608 C 1304.28 812.433 1304.58 813.454 1305.62 813.468 C 1307.04 813.486 1308.97 812.772 1310.35 812.365 C 1310.79 812.223 1311.72 811.903 1312.09 812.133 C 1312.88 812.625 1310.66 814.335 1310.44 814.477 C 1306.93 816.784 1302.86 817.968 1298.99 819.502 L 1297.93 820.943 C 1295.23 824.537 1290.07 828.715 1289.46 831.98 C 1288.46 837.384 1295.6 844.194 1288.27 847.655 C 1283.34 845.882 1276.64 844.568 1272.22 842.568 C 1273.42 842.52 1274.72 842.777 1275.13 841.499 C 1274.55 840.417 1273.18 840.429 1273 840.002 C 1272.52 838.202 1271.4 829.94 1271.53 828.359 C 1271.79 825.287 1290.61 820.447 1280.28 815.395 C 1285.71 812.715 1298.58 808.364 1304.95 805.673 z" fill="rgb(230,242,242)" fill-opacity="0.423529" transform="translate(0,0)"></path>
<path d="M 1478.11 804.851 C 1476.5 802.969 1472.79 798.63 1474.16 795.872 C 1475.28 795.36 1476.89 796.213 1477.91 796.763 C 1480.4 798.107 1480.97 796.776 1483.49 796.47 L 1486.9 796.08 C 1488.75 797.186 1490.27 798.107 1491.96 799.432 C 1490.03 807.58 1497.45 805.571 1502.97 805.411 C 1505.99 806.67 1511.2 808.992 1514.09 810.496 C 1513.36 813.244 1515.6 813.167 1518.07 814.015 C 1520.35 814.798 1521.29 818.944 1522.05 820.981 C 1523.98 826.131 1530.64 824.584 1534.36 826.567 C 1539.21 836.012 1513.1 839.102 1521.84 849.031 L 1518 850.805 C 1517.28 850.185 1513.58 846.433 1512.96 845.702 C 1515.78 839.81 1522.68 833.924 1517.64 827.653 C 1512.62 821.422 1514.09 817.908 1505.39 815.938 C 1498.9 814.467 1503.86 807.541 1493.51 809.528 C 1483.13 811.131 1486.72 802.475 1485.41 801.716 C 1484.47 801.868 1480.34 803.97 1479.02 804.493 L 1478.11 804.851 z" fill="rgb(230,242,242)" fill-opacity="0.313725" transform="translate(0,0)"></path>
<path d="M 1476.29 804.502 C 1471.98 803.33 1468.71 804.116 1466.87 799.849 C 1465.23 796.835 1454.95 790.852 1453.23 787.918 C 1450.15 782.65 1431.87 770.154 1433.65 764.674 C 1435.58 758.725 1430.46 756.446 1430.41 751.567 L 1430.37 747.983 C 1430.47 740.876 1430.95 742.566 1435.94 737.908 C 1436.34 738.981 1436.72 740.06 1437.09 741.144 L 1436.1 742.562 C 1434.22 744.861 1432.13 749.804 1437.41 750.905 C 1437.62 750.95 1439.72 748.639 1440.75 747.948 C 1442.06 749.435 1443.69 752.106 1444.32 753.981 C 1439.11 761.11 1444.23 763.664 1446.43 770.088 L 1446.8 771.126 C 1445.84 775.237 1472.54 800.474 1476.29 804.502 z" fill="rgb(230,242,242)" fill-opacity="0.529412" transform="translate(0,0)"></path>
<path d="M 1452.33 898.748 C 1449.52 895.366 1451 893.44 1449.62 891.965 C 1447.48 892.057 1445.94 895.488 1444.8 894.674 C 1444.05 893.064 1445.88 890.963 1446.03 889.508 C 1446.54 884.508 1451.24 886.81 1453.21 882.352 C 1454.78 878.812 1459.3 877.435 1461.21 874.353 C 1461.9 873.239 1463.4 871.068 1464.62 870.593 C 1469.02 869.04 1469.37 863.932 1472.42 861.744 C 1474.1 860.546 1475.93 859.175 1477.19 857.459 C 1477.13 856.572 1477.02 856.788 1477.24 856.531 C 1478.26 856.339 1479.39 856.487 1480.41 856.513 C 1479.56 857.572 1475.27 862.786 1475.33 864.021 C 1476.12 865.042 1479.12 863.684 1480 865.029 C 1480.84 866.308 1480.6 869.761 1480.72 871.363 C 1468.58 880.763 1462.17 887.2 1452.33 898.748 z" fill="rgb(230,242,242)" fill-opacity="0.45098" transform="translate(0,0)"></path>
<path d="M 1446.8 771.126 C 1452.96 772.228 1449.21 769.095 1452.56 764.857 L 1453.47 765.725 C 1463.7 777.614 1473.67 787.372 1486.9 796.08 L 1483.49 796.47 C 1480.97 796.776 1480.4 798.107 1477.91 796.763 C 1476.89 796.213 1475.28 795.36 1474.16 795.872 C 1472.79 798.63 1476.5 802.969 1478.11 804.851 C 1477.5 804.735 1476.9 804.619 1476.29 804.502 C 1472.54 800.474 1445.84 775.237 1446.8 771.126 z" fill="rgb(242,246,248)" fill-opacity="0.145098" transform="translate(0,0)"></path>
<path d="M 1480.41 856.513 C 1484.09 856.483 1491.5 852.184 1494.07 849.032 C 1493.49 849.748 1511.41 846.101 1512.96 845.702 C 1513.58 846.433 1517.28 850.185 1518 850.805 C 1515.4 852.404 1507.59 855.609 1504.11 857.316 C 1496.19 861.207 1488.61 865.74 1481.44 870.869 C 1481.2 871.034 1480.96 871.199 1480.72 871.363 C 1480.6 869.761 1480.84 866.308 1480 865.029 C 1479.12 863.684 1476.12 865.042 1475.33 864.021 C 1475.27 862.786 1479.56 857.572 1480.41 856.513 z" fill="rgb(230,242,242)" fill-opacity="0.498039" transform="translate(0,0)"></path>
<path d="M 1418 687.693 C 1419.55 692.103 1420.43 696.695 1421.62 701.208 C 1419.8 701.505 1415.8 705.989 1416.97 708.503 C 1418.2 711.162 1419.48 714.305 1421.61 710.429 C 1422.04 710.562 1422.48 710.695 1422.91 710.828 C 1423.59 710.094 1423.51 709.354 1423.67 708.263 L 1424.65 710.914 C 1422.84 713.899 1419.41 723.069 1416.13 715.08 C 1411.11 700.95 1410.26 713.955 1401.94 712.613 C 1399.39 712.202 1392.74 706.572 1391.1 711.024 C 1389.32 715.836 1391.05 721.681 1383.56 722.836 C 1385.2 717.845 1387.52 710.502 1389.59 705.828 C 1392.95 705.246 1392.47 702.71 1394.94 704.233 C 1396.53 705.213 1399.77 705.191 1401.39 704.218 C 1404.46 702.648 1405.69 701.801 1408.31 699.552 C 1410.94 697.29 1415.55 695.652 1417.26 691.993 L 1417.82 690.914 L 1418 687.693 z" fill="rgb(230,242,242)" fill-opacity="0.541176" transform="translate(0,0)"></path>
<path d="M 1328.29 868.271 C 1329.16 866.789 1329.27 866.418 1329.81 864.963 C 1330.04 864.732 1329.98 864.774 1330.32 864.701 C 1331.57 865.116 1336.86 871.944 1338.44 871.762 C 1343.31 871.201 1348.31 881.012 1353.44 883.264 C 1355.54 884.185 1358.16 887.734 1360.34 888.798 C 1362.95 890.715 1364.31 893.578 1367.53 894.874 C 1370.29 895.984 1370.52 903.068 1366.41 900.653 C 1365.85 900.325 1365.58 895.85 1363.05 896.292 L 1362.61 896.86 C 1363.26 900.253 1366.81 898.975 1364.84 903.825 C 1351.25 887.242 1344.62 881.641 1328.29 868.271 z" fill="rgb(230,242,242)" fill-opacity="0.580392" transform="translate(0,0)"></path>
<path d="M 1390.36 702.807 C 1392.53 701.137 1397.7 698.905 1398.46 697.031 C 1403.17 685.531 1402.01 690.925 1410.49 691.568 C 1412.14 691.692 1415.37 690.746 1417.82 690.914 L 1417.26 691.993 C 1415.55 695.652 1410.94 697.29 1408.31 699.552 C 1405.69 701.801 1404.46 702.648 1401.39 704.218 C 1399.77 705.191 1396.53 705.213 1394.94 704.233 C 1392.47 702.71 1392.95 705.246 1389.59 705.828 L 1390.36 702.807 z" fill="rgb(230,242,242)" fill-opacity="0.462745" transform="translate(0,0)"></path>
<path d="M 1412.68 960.594 C 1414.74 958.379 1422.05 948.54 1424.36 950.202 L 1424.06 951.102 C 1422.75 955.22 1422.19 958.522 1420.27 962.413 C 1419.29 963.047 1419.07 963.289 1418.85 964.433 C 1414.42 966.641 1397.46 969.709 1397.46 975.034 L 1396.82 976.133 C 1396.16 974.66 1395.65 973.483 1395.07 971.961 C 1398.64 962.72 1403.99 962.637 1412.68 960.594 z" fill="rgb(230,242,242)" fill-opacity="0.27451" transform="translate(0,0)"></path>
<path d="M 1514.09 810.496 C 1517.64 811.89 1520.77 812.751 1524.12 814.533 C 1523.15 816.589 1528.73 822.831 1529.99 822.819 C 1543.32 822.693 1536.17 839.535 1527.99 840.777 C 1524.57 841.383 1523.4 844.931 1523.02 848.432 L 1521.84 849.031 C 1513.1 839.102 1539.21 836.012 1534.36 826.567 C 1530.64 824.584 1523.98 826.131 1522.05 820.981 C 1521.29 818.944 1520.35 814.798 1518.07 814.015 C 1515.6 813.167 1513.36 813.244 1514.09 810.496 z" fill="rgb(242,246,248)" fill-opacity="0.156863" transform="translate(0,0)"></path>
<path d="M 1393.62 691.796 C 1396.54 692.96 1394.83 687.729 1397.51 684.946 C 1402.91 679.322 1406.67 687.934 1412.5 687.188 C 1414.79 686.894 1415.94 687.09 1418 687.693 L 1417.82 690.914 C 1415.37 690.746 1412.14 691.692 1410.49 691.568 C 1402.01 690.925 1403.17 685.531 1398.46 697.031 C 1397.7 698.905 1392.53 701.137 1390.36 702.807 C 1391.47 699.206 1392.27 695.048 1393.62 691.796 z" fill="rgb(242,246,248)" fill-opacity="0.270588" transform="translate(0,0)"></path>
<path d="M 1446.8 771.126 L 1446.43 770.088 C 1444.23 763.664 1439.11 761.11 1444.32 753.981 C 1446.52 756.967 1450.77 762.159 1452.56 764.857 C 1449.21 769.095 1452.96 772.228 1446.8 771.126 z" fill="rgb(230,242,242)" fill-opacity="0.321569" transform="translate(0,0)"></path>
<path d="M 1395.7 683.469 C 1400.47 680.271 1398.89 676.617 1407.26 682.636 C 1410.01 684.61 1414.06 685.971 1417.43 684.966 C 1417.81 686.106 1417.81 686.467 1418 687.693 C 1415.94 687.09 1414.79 686.894 1412.5 687.188 C 1406.67 687.934 1402.91 679.322 1397.51 684.946 C 1394.83 687.729 1396.54 692.96 1393.62 691.796 C 1394.23 688.437 1394.46 686.65 1395.7 683.469 z" fill="rgb(242,246,248)" fill-opacity="0.152941" transform="translate(0,0)"></path>
<path d="M 1367.24 907.139 C 1368.41 905.73 1370.62 900.912 1372.72 903 C 1375.75 906.016 1377.99 913.407 1372.53 915.16 C 1370.72 912.501 1369.05 909.806 1367.24 907.139 z" fill="rgb(230,242,242)" fill-opacity="0.482353" transform="translate(0,0)"></path>
<path d="M 1432.8 732.315 C 1430.01 735.645 1426.47 738.504 1424.74 732.514 C 1423.46 728.062 1426.81 725.95 1428.74 722.867 C 1430.03 726.043 1431.38 729.193 1432.8 732.315 z" fill="rgb(230,242,242)" fill-opacity="0.360784" transform="translate(0,0)"></path>
<path d="M 1405.92 1081.27 L 1408.14 1083.02 C 1408.24 1090.61 1408.23 1100.42 1407.79 1108 L 1407.66 1110 C 1407.62 1110.65 1407.8 1113.35 1406.97 1113.59 C 1406.11 1112.8 1406.39 1111.02 1406.39 1110 C 1405.99 1100.43 1405.83 1090.85 1405.92 1081.27 z" fill="rgb(112,165,148)" fill-opacity="0.988235" transform="translate(0,0)"></path>
<path d="M 1423.67 708.263 C 1423.51 709.354 1423.59 710.094 1422.91 710.828 C 1422.48 710.695 1422.04 710.562 1421.61 710.429 C 1419.48 714.305 1418.2 711.162 1416.97 708.503 C 1415.8 705.989 1419.8 701.505 1421.62 701.208 L 1423.67 708.263 z" fill="rgb(242,246,248)" fill-opacity="0.396078" transform="translate(0,0)"></path>
<path d="M 1437.09 741.144 C 1438.34 743.397 1439.56 745.665 1440.75 747.948 C 1439.72 748.639 1437.62 750.95 1437.41 750.905 C 1432.13 749.804 1434.22 744.861 1436.1 742.562 L 1437.09 741.144 z" fill="rgb(230,242,242)" fill-opacity="0.372549" transform="translate(0,0)"></path>
<path d="M 1491.96 799.432 C 1495.98 801.283 1499.19 803.085 1502.97 805.411 C 1497.45 805.571 1490.03 807.58 1491.96 799.432 z" fill="rgb(242,246,248)" fill-opacity="0.27451" transform="translate(0,0)"></path>
<path d="M 1406.13 1068.45 L 1407.81 1073.58 C 1408.12 1076.79 1408.06 1079.8 1408.14 1083.02 L 1405.92 1081.27 C 1406.05 1077.04 1406.06 1072.69 1406.13 1068.45 z" fill="rgb(175,204,204)" fill-opacity="0.619608" transform="translate(0,0)"></path>
<path d="M 1626.87 830.008 C 1628.21 829.953 1629.56 829.909 1630.9 829.874 L 1630.08 832.243 L 1626.04 832.229 L 1626.87 830.008 z" fill="rgb(230,242,242)" fill-opacity="0.666667" transform="translate(0,0)"></path>
<path d="M 1405.93 588.143 L 1408.33 588.993 L 1407.9 593.098 L 1406.25 592.92 L 1405.93 588.143 z" fill="rgb(216,255,240)" fill-opacity="0.607843" transform="translate(0,0)"></path>
<path d="M 1623.17 830.096 L 1626.87 830.008 L 1626.04 832.229 L 1624.21 832.306 L 1623.17 830.096 z" fill="rgb(230,242,242)" fill-opacity="0.411765" transform="translate(0,0)"></path>
<path d="M 609.065 346.877 C 622.347 344.978 639.28 345.668 653.025 345.771 C 671.844 345.927 690.664 345.967 709.484 345.89 L 929.134 345.434 L 1253.12 345.802 L 1365.96 345.983 C 1388.44 346.043 1413.78 345.396 1435.97 347.197 C 1472.48 346.175 1507.85 359.962 1534.04 385.423 C 1548.5 399.23 1570.9 428.477 1580.97 446.661 C 1565.31 480.035 1549.83 522.033 1536.24 556.613 L 1483.21 690.204 C 1477.04 706.114 1470.66 721.942 1464.07 737.685 C 1461.44 744.083 1454.86 759.429 1453.47 765.725 L 1452.56 764.857 C 1450.77 762.159 1446.52 756.967 1444.32 753.981 C 1443.69 752.106 1442.06 749.435 1440.75 747.948 C 1439.56 745.665 1438.34 743.397 1437.09 741.144 C 1436.72 740.06 1436.34 738.981 1435.94 737.908 L 1432.8 732.315 C 1431.38 729.193 1430.03 726.043 1428.74 722.867 L 1424.65 710.914 L 1423.67 708.263 L 1421.62 701.208 C 1420.43 696.695 1419.55 692.103 1418 687.693 C 1417.81 686.467 1417.81 686.106 1417.43 684.966 C 1413.35 653.048 1408.8 625.851 1407.9 593.098 L 1408.33 588.993 L 1405.93 588.143 L 1406.25 592.92 C 1403.67 615.314 1403.43 638.151 1399.86 660.494 C 1398.66 668.022 1396.48 676.031 1395.7 683.469 C 1394.46 686.65 1394.23 688.437 1393.62 691.796 C 1392.27 695.048 1391.47 699.206 1390.36 702.807 L 1389.59 705.828 C 1387.52 710.502 1385.2 717.845 1383.56 722.836 C 1371.16 749.329 1357.4 771.343 1333.07 788.723 C 1323.79 795.68 1315.14 800.224 1304.95 805.673 C 1298.58 808.364 1285.71 812.715 1280.28 815.395 C 1271.29 818.238 1262.19 820.69 1252.99 822.743 C 1249.24 823.549 1222.04 827.595 1221.41 828.643 C 1221.34 830.61 1222.43 828.784 1221.54 833.38 C 1226.07 835.267 1238.67 836.505 1243.99 837.159 C 1247.97 837.659 1251.92 838.338 1255.84 839.192 L 1257.13 839.472 C 1256.24 840.02 1255.35 840.568 1254.46 841.116 C 1222.89 841.057 1191.32 841.167 1159.75 841.155 L 761.315 841.09 L 674.918 841.486 C 660.71 841.596 635.187 842.356 621.789 840.977 L 620.778 841.037 L 361.156 840.755 C 321.065 840.714 269.785 842.159 230.917 839.954 L 232.994 835.523 C 236.416 828.355 231.338 825.124 223.941 823.987 L 220.544 823.488 C 221.213 821.778 227.523 810.795 228.833 808.557 C 246.33 778.667 267.597 751.105 286.822 722.031 L 467.533 448.958 C 470.155 441.073 487.033 419.348 492.925 411.965 C 528.894 366.891 552.97 353.44 609.065 346.877 z" fill="rgb(16,180,109)" transform="translate(0,0)"></path>
<path d="M 467.533 448.958 C 470.155 441.073 487.033 419.348 492.925 411.965 C 528.894 366.891 552.97 353.44 609.065 346.877 C 643.726 361.082 679.712 380.091 713.543 396.642 L 833.203 454.224 L 970.561 521.192 C 986.966 529.205 1007.64 538.18 1023.29 546.519 C 950.185 600.967 874.317 654.416 802.027 708.907 C 762.664 738.717 722.91 768.006 682.774 796.767 C 665.626 809.292 638.595 830.476 621.789 840.977 L 620.778 841.037 L 361.156 840.755 C 321.065 840.714 269.785 842.159 230.917 839.954 L 232.994 835.523 C 236.416 828.355 231.338 825.124 223.941 823.987 L 220.544 823.488 C 221.213 821.778 227.523 810.795 228.833 808.557 C 246.33 778.667 267.597 751.105 286.822 722.031 L 467.533 448.958 z" fill="rgb(216,255,240)" transform="translate(0,0)"></path>
<path d="M 1435.97 347.197 C 1472.48 346.175 1507.85 359.962 1534.04 385.423 C 1548.5 399.23 1570.9 428.477 1580.97 446.661 C 1565.31 480.035 1549.83 522.033 1536.24 556.613 L 1483.21 690.204 C 1477.04 706.114 1470.66 721.942 1464.07 737.685 C 1461.44 744.083 1454.86 759.429 1453.47 765.725 L 1452.56 764.857 C 1450.77 762.159 1446.52 756.967 1444.32 753.981 C 1443.69 752.106 1442.06 749.435 1440.75 747.948 C 1439.56 745.665 1438.34 743.397 1437.09 741.144 C 1436.72 740.06 1436.34 738.981 1435.94 737.908 L 1432.8 732.315 C 1431.38 729.193 1430.03 726.043 1428.74 722.867 L 1424.65 710.914 L 1423.67 708.263 L 1421.62 701.208 C 1420.43 696.695 1419.55 692.103 1418 687.693 C 1417.81 686.467 1417.81 686.106 1417.43 684.966 C 1413.35 653.048 1408.8 625.851 1407.9 593.098 L 1408.33 588.993 L 1405.93 588.143 L 1406.25 592.92 C 1403.67 615.314 1403.43 638.151 1399.86 660.494 C 1398.66 668.022 1396.48 676.031 1395.7 683.469 C 1394.46 686.65 1394.23 688.437 1393.62 691.796 C 1392.27 695.048 1391.47 699.206 1390.36 702.807 L 1389.59 705.828 C 1387.52 710.502 1385.2 717.845 1383.56 722.836 C 1371.16 749.329 1357.4 771.343 1333.07 788.723 C 1244.93 721.385 1158.68 650.915 1070.89 583.039 C 1055.21 570.908 1040.24 557.935 1023.78 546.774 C 1119.91 498.727 1216.61 451.812 1313.85 406.039 L 1396.38 366.779 C 1405.24 362.557 1428.47 352.092 1435.97 347.197 z" fill="rgb(10,143,85)" transform="translate(0,0)"></path>
<path d="M 1405.93 588.143 C 1405.71 584.514 1405.91 549.597 1406.87 547.653 L 1407.05 547.55 C 1407.78 547.896 1407.5 550.55 1407.52 551.022 C 1408.16 563.675 1408.02 576.341 1408.33 588.993 L 1405.93 588.143 z" fill="rgb(16,180,109)" transform="translate(0,0)"></path>
<path d="M 1213.76 828.411 C 1218.19 827.902 1216.38 827.332 1219.61 829.227 L 1219.94 831.389 C 1218.01 833.06 1216.65 834.041 1213.85 833.792 C 1184.19 831.143 1154.31 831.727 1124.5 831.51 C 1120.98 831.61 1119.68 831.42 1116.29 830.966 C 1119.2 830.037 1128.37 830.252 1132.09 830.205 C 1159.37 829.857 1186.51 830.002 1213.76 828.411 z" fill="rgb(140,247,214)" transform="translate(0,0)"></path>
<path d="M 1580.97 446.661 L 1753.61 706.099 L 1813.02 795.805 C 1819.66 805.812 1837.38 831.025 1842.26 840.593 C 1825.42 862.806 1804.36 887.095 1786.46 909.238 L 1660.6 1065.8 L 1338.14 1475.75 C 1283.27 1544.15 1228.82 1612.89 1174.78 1681.95 C 1126.32 1742.94 1075.74 1805.86 1028.86 1867.98 L 1027.54 1860.54 C 1030.88 1846.51 1038.51 1827.93 1043.76 1814.17 C 1053.63 1788.16 1063.8 1762.27 1074.26 1736.5 L 1151.41 1542.01 L 1320.58 1112.39 C 1337.49 1068.43 1354.91 1024.66 1372.83 981.102 C 1375.53 974.458 1384.2 950.814 1387.26 946.979 C 1389.4 952.636 1394.52 966.059 1395.07 971.961 C 1395.65 973.483 1396.16 974.66 1396.82 976.133 C 1402.53 1003.8 1405.82 1040.03 1406.13 1068.45 C 1406.06 1072.69 1406.05 1077.04 1405.92 1081.27 C 1405.83 1090.85 1405.99 1100.43 1406.39 1110 C 1406.39 1111.02 1406.11 1112.8 1406.97 1113.59 C 1407.8 1113.35 1407.62 1110.65 1407.66 1110 L 1407.79 1108 C 1408.23 1100.42 1408.24 1090.61 1408.14 1083.02 C 1408.06 1079.8 1408.12 1076.79 1407.81 1073.58 C 1408.01 1036.18 1412.18 998.92 1420.27 962.413 C 1422.19 958.522 1422.75 955.22 1424.06 951.102 L 1424.36 950.202 C 1435.82 925.797 1435.88 922.33 1452.33 898.748 C 1462.17 887.2 1468.58 880.763 1480.72 871.363 C 1480.96 871.199 1481.2 871.034 1481.44 870.869 C 1488.61 865.74 1496.19 861.207 1504.11 857.316 C 1507.59 855.609 1515.4 852.404 1518 850.805 L 1521.84 849.031 L 1523.02 848.432 C 1532.8 845.32 1542.94 842.207 1553.01 840.223 L 1560.49 838.823 C 1575.77 836.031 1608.95 831.122 1624.21 832.306 L 1626.04 832.229 L 1630.08 832.243 L 1630.9 829.874 C 1629.56 829.909 1628.21 829.953 1626.87 830.008 L 1623.17 830.096 C 1611.87 829.499 1600.25 828.273 1589 827.112 C 1582.36 826.386 1575.74 825.533 1569.14 824.555 C 1551.03 821.707 1541.53 818.825 1524.12 814.533 C 1520.77 812.751 1517.64 811.89 1514.09 810.496 C 1511.2 808.992 1505.99 806.67 1502.97 805.411 C 1499.19 803.085 1495.98 801.283 1491.96 799.432 C 1490.27 798.107 1488.75 797.186 1486.9 796.08 C 1473.67 787.372 1463.7 777.614 1453.47 765.725 C 1454.86 759.429 1461.44 744.083 1464.07 737.685 C 1470.66 721.942 1477.04 706.114 1483.21 690.204 L 1536.24 556.613 C 1549.83 522.033 1565.31 480.035 1580.97 446.661 z" fill="url(#Gradient1)" transform="translate(0,0)"></path>
<path d="M 1630.9 829.874 C 1641.6 829.321 1678.45 829.673 1689.15 830.491 L 1689.11 830.462 C 1673.81 832.975 1646.19 832.283 1630.08 832.243 L 1630.9 829.874 z" fill="rgb(112,165,148)" transform="translate(0,0)"></path>
<path d="M 230.917 839.954 C 269.785 842.159 321.065 840.714 361.156 840.755 L 620.778 841.037 C 630.169 873.052 652.634 924.778 665.436 956.624 C 690.341 1019.95 715.684 1083.11 741.463 1146.09 L 932.592 1622.59 C 960.733 1691.38 988.01 1760.51 1014.41 1829.98 C 1018.23 1840.02 1024.13 1851.04 1027.54 1860.54 L 1028.86 1867.98 C 1027.03 1870.53 1027.2 1870.69 1024.51 1872.15 C 1019.48 1868.32 1002.28 1844.55 997.016 1837.72 L 952.885 1781.5 L 715.225 1481.52 L 352.583 1025.55 L 254.762 902.706 L 227.088 868.072 C 220.414 859.863 211.222 849.311 205.699 840.835 C 210.607 840.323 215.914 840.237 220.873 840.045 C 224.554 840.244 227.252 840.037 230.917 839.954 z" fill="rgb(16,180,109)" transform="translate(0,0)"></path>
<path d="M 220.544 823.488 L 223.941 823.987 C 231.338 825.124 236.416 828.355 232.994 835.523 L 230.917 839.954 C 227.252 840.037 224.554 840.244 220.873 840.045 C 219.709 834.061 220.515 829.442 220.544 823.488 z" fill="rgb(230,242,242)" fill-opacity="0.258824" transform="translate(0,0)"></path>
<path d="M 1397.46 975.034 C 1397.46 969.709 1414.42 966.641 1418.85 964.433 C 1416.63 969.622 1416.4 968.888 1411.52 970.244 C 1404.59 972.169 1405.43 973.833 1397.46 975.034 z" fill="rgb(230,242,242)" fill-opacity="0.109804" transform="translate(0,0)"></path>
<metadata><recraft-signature>{"signed_by": "recraft", "signature_b64": "SlmUcGMOW5Vkt2PBmMJIwmxqPJv1/n6OSfpe1iZZaEK0bsdHRiEJywZZdlutnbk2ep8uZAJWoFHvU4CdjfZ3CQ==", "signing_algo": "Ed25519", "generation_timestamp": 1781580612, "identifier": "4353a8d9-52b4-4475-b4b8-8afe21c37469"}</recraft-signature></metadata></svg>