<svg xmlns="http://www.w3.org/2000/svg" height="1024" preserveAspectRatio="none" style="display: block;" version="1.1" viewBox="0 0 2048 2048" width="1024">
<path d="M 485.274 593.593 L 485.329 582.791 C 486.128 506.334 535.659 488.711 593.398 452.865 L 759.715 350.833 L 893.46 268.092 C 941.165 238.578 970.499 212.781 1029.65 214.021 C 1083.79 215.155 1112.98 241.587 1156.27 268.298 L 1287.51 349.275 C 1347.47 385.65 1407.16 422.445 1466.6 459.655 C 1513.96 489.533 1565.61 510.739 1564.18 576.629 C 1565.5 598.186 1564.46 624.248 1564.64 645.823 C 1565.15 706.944 1567.6 723.988 1527.47 770.269 C 1562.35 774.874 1593.88 793.407 1614.87 821.644 C 1645.24 861.684 1643.41 897.756 1643.03 943.95 L 1643.45 1258.76 L 1643.7 1347.51 C 1643.74 1370.74 1644.78 1398.3 1640.37 1420.58 C 1634.43 1450.5 1614.5 1487.3 1592 1508.21 C 1561.22 1536.8 1516.51 1560.49 1480.57 1582.37 L 1314.34 1683.66 L 1162.12 1776.53 C 1139.76 1790.06 1109.58 1810.21 1087.21 1820.77 C 1067.12 1830.15 1045.24 1835.06 1023.07 1835.19 C 989.604 1835.21 956.858 1821.96 930.055 1802.46 L 616.008 1611.92 C 583.708 1592.33 550.706 1573.67 518.668 1553.72 C 497.786 1540.72 474.334 1528.07 457.228 1510.38 C 434.881 1487.28 418.098 1456.61 411.866 1425.03 C 407.243 1401.59 408.187 1375.65 408.148 1351.76 L 408.004 1269.7 L 408.01 926.869 C 407.481 896.061 408.713 864.562 425.449 837.668 C 442.746 797.767 479.242 776.238 517.829 761.359 C 484.61 726.587 485.626 701.108 485.458 656.176 L 485.274 593.593 z M 930.055 1802.46 C 937.466 1804.14 945.034 1805.04 952.632 1805.13 C 970.912 1805.3 988.465 1797.98 1001.2 1784.87 C 1027.08 1758.57 1024.04 1724.98 1024.05 1691.03 L 1024.06 1612.49 C 1024.46 1520.83 1024.39 1429.16 1023.86 1337.49 C 1022.83 1329.28 1023.16 1320.92 1021.86 1311.56 C 1013.71 1253.15 982.883 1200.3 936.053 1164.46 C 913.739 1147.54 879.766 1127.98 854.826 1112.76 L 720.903 1030.87 C 667.745 997.655 614.23 965.012 560.367 932.951 C 543.172 922.917 528.577 910.898 509.959 903.122 C 469.771 886.337 434.589 891.348 408.01 926.869 L 408.004 1269.7 L 408.148 1351.76 C 408.187 1375.65 407.243 1401.59 411.866 1425.03 C 418.098 1456.61 434.881 1487.28 457.228 1510.38 C 474.334 1528.07 497.786 1540.72 518.668 1553.72 C 550.706 1573.67 583.708 1592.33 616.008 1611.92 L 930.055 1802.46 z M 1030.19 418.744 C 1052.2 416.719 1079.98 410.012 1093.21 391.342 C 1129.1 340.718 1063.48 305.508 1021.69 309.403 C 1005.88 310.985 996.096 312.566 981.56 318.767 C 954.939 330.123 936.128 360.324 953.899 387.335 C 969.862 411.598 1002.96 419.818 1030.19 418.744 z M 1033.12 838.963 C 1057 835.899 1077.57 828.947 1092.94 809.758 C 1110.93 787.297 1100.75 760.959 1079.37 745.967 C 1062.45 734.103 1038.96 726.865 1018.54 729.387 C 996.177 731.677 973.244 738.56 958.237 756.269 C 939.828 777.992 946.413 805.557 968.437 821.577 C 987.023 835.096 1010.51 839.8 1033.12 838.963 z M 1037.24 627.994 C 1051.94 625.463 1061.41 623.288 1074.37 615.869 C 1109.63 595.688 1111.91 555.367 1076.54 533.609 C 1056.66 521.38 1034.26 517.73 1011.17 520.315 C 991.004 523.61 967.92 531.373 955.554 548.643 C 938.72 572.153 949.02 599.581 971.825 614.043 C 992.145 626.928 1013.7 629.889 1037.24 627.994 z M 1485.98 1334.25 C 1412.78 1348.84 1369.74 1489.29 1448.04 1478.26 C 1477.51 1469.37 1497.79 1446.09 1512.9 1419.53 C 1525.23 1397.85 1537.84 1352.61 1508.84 1337.64 C 1502.73 1334.49 1492.85 1333.15 1485.98 1334.25 z M 1225 1219.23 C 1153.01 1234.06 1106.21 1371.64 1185.04 1364.42 C 1211.09 1359.22 1228.49 1340.23 1243.79 1318.16 C 1260.03 1294.74 1279.82 1245.74 1248.97 1224.55 C 1242.76 1220.29 1232.6 1218.62 1225 1219.23 z M 1353.25 628.479 C 1374 627.094 1403.95 618.525 1415.81 601.142 C 1452.24 547.751 1383.88 516.791 1342.81 519.406 C 1327.23 520.762 1319.12 522.741 1305.06 529.361 C 1269.76 545.975 1257.32 585.388 1291.83 611.5 C 1308.94 624.255 1331.58 629.421 1353.25 628.479 z M 689.709 520.371 C 669.453 522.954 646.575 530.654 633.77 547.205 C 616.832 569.098 623.143 595.887 644.706 611.408 C 665.027 626.034 689.476 630.282 713.779 627.585 C 735.374 624.061 755.587 617.954 769.344 599.949 C 786.973 576.875 777.515 549.998 755.087 534.968 C 737.448 523.147 710.526 517.253 689.709 520.371 z M 1223.1 1489.18 C 1180.6 1500.11 1150.7 1544.63 1143.99 1586.41 C 1139.63 1613.57 1154.41 1638.71 1184.83 1633.86 C 1252.47 1618.81 1304.79 1483.28 1223.1 1489.18 z M 1448.85 1205.07 C 1480.77 1196.17 1496.18 1172.4 1513.23 1145.98 C 1532.5 1116.11 1538.78 1054.12 1485.86 1060.27 C 1416.1 1073.06 1365.3 1214.89 1448.85 1205.07 z" fill="rgb(201,127,18)" transform="translate(0,0)"></path>
<path d="M 408.01 926.869 C 434.589 891.348 469.771 886.337 509.959 903.122 C 528.577 910.898 543.172 922.917 560.367 932.951 C 614.23 965.012 667.745 997.655 720.903 1030.87 L 854.826 1112.76 C 879.766 1127.98 913.739 1147.54 936.053 1164.46 C 982.883 1200.3 1013.71 1253.15 1021.86 1311.56 C 1023.16 1320.92 1022.83 1329.28 1023.86 1337.49 C 1024.39 1429.16 1024.46 1520.83 1024.06 1612.49 L 1024.05 1691.03 C 1024.04 1724.98 1027.08 1758.57 1001.2 1784.87 C 988.465 1797.98 970.912 1805.3 952.632 1805.13 C 945.034 1805.04 937.466 1804.14 930.055 1802.46 L 616.008 1611.92 C 583.708 1592.33 550.706 1573.67 518.668 1553.72 C 497.786 1540.72 474.334 1528.07 457.228 1510.38 C 434.881 1487.28 418.098 1456.61 411.866 1425.03 C 407.243 1401.59 408.187 1375.65 408.148 1351.76 L 408.004 1269.7 L 408.01 926.869 z M 885.913 1635.07 C 956.409 1616.74 887.707 1485.34 822.022 1486.33 C 749.398 1497.19 814.854 1637.17 885.913 1635.07 z M 889.138 1363.21 C 922.953 1350.93 917.988 1316.48 906.758 1289.59 C 892.2 1254.73 858.459 1212.2 816.319 1216.27 C 783.243 1227.12 786.668 1260.35 796.551 1287.03 C 807.377 1316.25 831.157 1345.18 859.192 1359.42 C 869.466 1364.44 878.197 1364.6 889.138 1363.21 z M 756.759 1426.39 C 825.223 1404.45 752.695 1274.94 688.891 1278.24 C 616.934 1291.02 691.783 1436.51 756.759 1426.39 z M 619.16 1206.31 C 685.06 1183.68 616.136 1054.39 549.762 1059.15 C 494.838 1076.39 533.173 1153.5 560.057 1179.15 C 577.665 1195.96 593.343 1209.38 619.16 1206.31 z M 619.418 1479.39 C 683.698 1458.19 619.009 1327.88 550.742 1333.16 C 483.358 1354.39 552.269 1485.32 619.418 1479.39 z" fill="rgb(245,165,36)" transform="translate(0,0)"></path>
<path d="M 485.274 593.593 C 485.714 591.457 486.102 588.955 486.843 586.958 C 494.127 605.566 498.372 617.796 514.489 631.607 C 532.712 647.221 553.23 658.519 573.647 670.927 C 594.85 683.867 615.969 696.944 637.003 710.157 L 923.231 886.728 C 954.083 906.097 997.265 930.384 1025.44 950.383 C 1024.96 992.02 1026.55 1040.89 1024.91 1081.35 C 1018.69 1078.74 1002.7 1068.29 996.552 1064.42 C 981.787 1055.14 966.963 1045.96 952.081 1036.87 L 666.187 860.245 C 646.278 848.146 626.479 835.868 606.793 823.411 C 595.433 816.189 553.917 787.708 543.745 788.164 C 508.384 789.555 474.208 801.288 445.448 821.908 C 442.634 823.911 426.701 837.401 425.449 837.668 C 442.746 797.767 479.242 776.238 517.829 761.359 C 484.61 726.587 485.626 701.108 485.458 656.176 L 485.274 593.593 z" fill="rgb(245,165,36)" transform="translate(0,0)"></path>
<metadata><recraft-signature>{"signed_by": "recraft", "signature_b64": "xMuItBlH99QzPMx+f+jwGY5xduvTy3dceslbCsDnjpTqk5SS65hgLHPfFxK7iiSuGdRRvkuqFIQ1v/P0I2JuBQ==", "signing_algo": "Ed25519", "generation_timestamp": 1781580619, "identifier": "b46406b8-c901-44f7-bde6-5f7905c0eb72"}</recraft-signature></metadata></svg>