<svg xmlns="http://www.w3.org/2000/svg" height="1024" preserveAspectRatio="none" style="display: block;" version="1.1" viewBox="0 0 2048 2048" width="1024">
<path d="M 867.688 270.159 C 896.48 262.616 940.188 257.489 969.695 255.263 C 1124.84 243.403 1279.9 279.385 1413.96 358.36 C 1591.72 462.703 1720.78 633.347 1772.79 832.797 C 1816.9 1000.15 1802.84 1177.53 1732.93 1335.85 C 1707.44 1393.59 1676.44 1444.99 1638.04 1494.91 C 1532.51 1632.09 1384.3 1730.21 1216.8 1773.79 C 1016.87 1824.45 804.984 1793.12 628.265 1686.78 C 456.07 1583.43 330.897 1417.09 279.286 1223.01 C 256.802 1135.44 246.824 1049.38 256.58 959.356 C 257.216 953.489 259.774 923.837 261.676 920.225 C 263.212 899.189 269.802 869.086 274.639 848.715 C 299.314 744.385 345.329 646.297 409.785 560.63 C 502.117 436.268 646.236 334.446 794.056 288.948 C 816.073 282.171 844.932 273.52 867.688 270.159 z" fill="rgb(34,211,238)" transform="translate(0,0)"></path>
<path d="M 867.688 270.159 C 896.48 262.616 940.188 257.489 969.695 255.263 C 1124.84 243.403 1279.9 279.385 1413.96 358.36 C 1591.72 462.703 1720.78 633.347 1772.79 832.797 C 1816.9 1000.15 1802.84 1177.53 1732.93 1335.85 C 1707.44 1393.59 1676.44 1444.99 1638.04 1494.91 C 1532.51 1632.09 1384.3 1730.21 1216.8 1773.79 C 1016.87 1824.45 804.984 1793.12 628.265 1686.78 C 456.07 1583.43 330.897 1417.09 279.286 1223.01 C 256.802 1135.44 246.824 1049.38 256.58 959.356 C 257.216 953.489 259.774 923.837 261.676 920.225 L 262.735 920.961 C 262.422 927.913 260.785 935.58 259.912 942.642 C 239.158 1110.47 281.834 1286.8 370.837 1429.91 C 381.873 1447.66 410.634 1494.42 425.533 1507.05 C 427.729 1505.37 427.708 1505.57 428.65 1503.01 C 426.76 1498.93 423.601 1498 419.3 1495.71 L 420.094 1494.75 C 425.09 1494.07 476.363 1525.63 486.163 1530.68 C 559.58 1568.87 639.017 1594.15 721.002 1605.42 C 920.975 1631.55 1123.24 1578.49 1284.63 1457.56 C 1318.65 1431.64 1353.28 1402.5 1383.25 1371.83 C 1497.8 1256.06 1574.95 1108.57 1604.71 948.453 C 1615.64 889.644 1620.24 834.063 1616.46 774.177 C 1611.5 701.391 1595.53 629.78 1569.08 561.789 C 1553.61 521.135 1531.95 481.847 1509.75 444.414 C 1507.02 439.795 1494.57 423.106 1495.09 419.237 L 1496.79 419.373 C 1509.28 430.863 1529.16 480.983 1546.78 488.335 C 1545.99 484.79 1543.31 476.367 1544.08 473.689 L 1545.54 473.173 C 1552.9 474.878 1575.13 496.276 1579.63 502.631 L 1580.45 502.035 C 1574.58 489.001 1559.97 483.741 1556.09 470.455 L 1559.74 471.982 L 1559.63 470.843 C 1554.69 465.817 1549.8 464.524 1542.19 456.507 C 1524.53 437.901 1499.51 418.32 1478.57 403.039 C 1370.56 323.934 1243.77 274.412 1110.74 259.375 C 1056.21 252.666 1001.07 252.584 946.526 259.13 C 937.531 260.167 870.726 270.979 867.688 270.159 z" fill="rgb(14,159,184)" transform="translate(0,0)"></path>
<path d="M 1018.41 774.045 C 1156.68 770.084 1272.04 878.854 1276.21 1017.12 C 1280.38 1155.39 1171.78 1270.91 1033.52 1275.28 C 894.967 1279.66 779.15 1170.79 774.973 1032.23 C 770.797 893.67 879.847 778.015 1018.41 774.045 z" fill="rgb(230,251,255)" transform="translate(0,0)"></path>
<path d="M 757.583 417.404 C 780.829 413.746 818.889 422.201 836.476 438.28 C 903.42 499.479 837.684 607.663 791.939 661.836 C 737.16 726.708 642.965 791.609 557.244 799.917 L 555.936 800.062 C 529.604 802.798 495.913 797.036 475.149 779.028 C 415.479 727.604 462.679 631.775 499.516 580.245 C 556.594 500.401 657.953 426.793 757.583 417.404 z" fill="rgb(230,251,255)" transform="translate(0,0)"></path>
<metadata><recraft-signature>{"signed_by": "recraft", "signature_b64": "HBXr+nDLpGe4QOJyE1mp3RjNZvS48dAqEnfDIafa20D3g+D2gQg2peUZNes+xvjd+/kIcwAADfZag/GH7B5jAQ==", "signing_algo": "Ed25519", "generation_timestamp": 1781580662, "identifier": "00981fa6-ab6e-4054-994f-7d1bf8f156a4"}</recraft-signature></metadata></svg>