<svg xmlns="http://www.w3.org/2000/svg" height="1024" preserveAspectRatio="none" style="display: block;" version="1.1" viewBox="0 0 2048 2048" width="1024">
<path d="M 1040.71 714.871 C 1065.59 687.674 1097.97 658.827 1124.56 631.841 C 1206.52 549.003 1288.94 466.614 1371.8 384.677 L 1533.91 222.838 C 1553.98 202.87 1581 173.825 1601 155.786 C 1620.76 221.041 1643.87 288.89 1665.09 353.994 L 1737.49 579 L 1774.44 691.505 C 1781.15 711.744 1789.45 734.587 1795.3 754.904 C 1772.43 749.404 1749.05 745.621 1725.89 741.268 C 1691.12 734.603 1656.29 728.287 1621.39 722.321 C 1604.48 802.92 1583.46 882.383 1559.99 961.309 C 1507.02 1139.51 1446.08 1319.25 1360.75 1484.79 C 1319.27 1565.27 1263.67 1672.55 1174.8 1707.24 C 1161.68 1710.91 1151.49 1712.59 1137.99 1714.51 C 1092.5 1719.05 1028.86 1717 982.082 1716.99 L 918.445 1717.08 C 894.083 1717.11 872.125 1718.11 848.24 1712.69 C 793.566 1700.29 759.911 1668.97 724.94 1628.14 C 704.974 1604.88 686.798 1580.14 670.567 1554.14 C 660.146 1537.58 650.354 1520.63 641.212 1503.34 C 634.804 1491.04 628.866 1477.15 621.939 1465.42 C 677.549 1372.85 782.684 1257.55 899.663 1327.47 L 901.391 1326.68 C 927.405 1371.14 943.912 1426.31 956.301 1475.99 C 959.366 1488.28 964.603 1506.99 966.642 1519.16 C 979.156 1498.04 988.655 1477.17 1000.75 1456.29 C 1041.64 1384.21 1075.52 1310.16 1105.18 1232.89 C 1110.52 1218.97 1115.56 1204.98 1120.87 1191.06 C 1149.74 1116.19 1177.01 1040.72 1202.68 964.696 C 1218.1 920.186 1232.99 875.256 1246.83 830.234 C 1257.76 794.71 1273.15 751.174 1280.43 715.001 C 1201.61 715.183 1119.43 716.429 1040.71 714.871 z M 1216.95 665.089 C 1224.18 662.748 1226.57 660.765 1232.06 655.477 C 1245.56 642.464 1258.63 628.879 1271.91 615.626 C 1303.58 584.31 1335.08 552.828 1366.42 521.18 L 1546.92 341.639 C 1564.11 324.393 1584.92 305.351 1600.11 286.832 C 1609.37 275.547 1596.13 257.287 1579.07 257.171 C 1568.48 261.53 1535.57 296.507 1525.39 306.472 C 1485.1 345.854 1445.21 385.656 1405.75 425.871 L 1259.58 571.275 C 1241.16 589.617 1222.29 607.708 1203.86 626.117 C 1196.88 633.096 1190.46 643.202 1195.41 653.503 C 1199.87 662.766 1207.15 665.199 1216.95 665.089 z" fill="rgb(124,92,240)" transform="translate(0,0)"></path>
<path d="M 166.13 1716.89 C 171.055 1705.22 179.147 1690.84 184.862 1679.03 C 202.656 1642.25 222.219 1607.59 243.563 1572.64 C 322.906 1442.72 425.318 1297.28 559.869 1221.2 C 618.91 1187.82 696.589 1173.34 761.656 1193.46 C 830.504 1214.76 869.224 1266.81 901.391 1326.68 L 899.663 1327.47 C 782.684 1257.55 677.549 1372.85 621.939 1465.42 C 604.208 1496.63 586.805 1523.97 569.68 1556.92 C 541.664 1610.81 519.397 1661.73 495 1717.12 L 284 1717.11 C 245.169 1717.11 204.874 1717.67 166.13 1716.89 z M 330.913 1586.46 C 343.814 1563.95 356.913 1539.93 371.464 1518.62 C 440.631 1417.34 531.711 1311.44 653.974 1276.73 C 706.625 1261.78 759.314 1268.43 810.036 1283.67 C 812.16 1284.31 816.077 1283.6 818.175 1282.72 C 785.327 1251.13 717.261 1235.09 672.682 1240.42 C 488.361 1255.25 342.175 1475.27 266.223 1625.96 C 261.75 1635.4 254.09 1648.96 255.393 1659.58 C 257.194 1674.26 281.401 1679.6 288.873 1665.86 C 303.169 1639.58 315.97 1612.52 330.913 1586.46 z" fill="rgb(167,139,250)" transform="translate(0,0)"></path>
<path d="M 821.382 1283.45 C 822.007 1283.87 838.808 1295.8 832.566 1295.7 C 828.478 1293.67 824.363 1291.66 820.313 1289.57 C 820.136 1289.47 819.966 1289.37 819.785 1289.29 C 819.271 1289.05 818.527 1288.86 818.104 1288.42 C 818.491 1286.73 820.242 1284.67 821.382 1283.45 z" fill="rgb(240,234,255)" transform="translate(0,0)"></path>
<metadata><recraft-signature>{"signed_by": "recraft", "signature_b64": "pFn9zk6rIMozjGOCjBR7EcHamGfVqd2KdCUgJ6ljUGzr69hhHBgPTr9yu8Yh6/XAPE0/CqDopuGUTBfNq8MwCQ==", "signing_algo": "Ed25519", "generation_timestamp": 1781580622, "identifier": "0b94cc4d-7058-42e7-ae57-d816de1ce208"}</recraft-signature></metadata></svg>