<svg xmlns="http://www.w3.org/2000/svg" height="1024" preserveAspectRatio="none" style="display: block;" version="1.1" viewBox="0 0 2048 2048" width="1024">
<path d="M 950.984 483.276 C 873.574 442.317 844.425 346.089 886.094 269.059 C 927.764 192.03 1024.26 163.768 1100.9 206.144 C 1176.55 247.972 1204.37 342.947 1163.24 418.981 C 1122.11 495.014 1027.39 523.705 950.984 483.276 z M 917.21 351.986 C 920.492 356.826 923.754 360.704 929.926 361.854 C 934.058 362.624 938.329 361.888 941.966 359.78 C 950.337 350.311 947.779 338.466 951.691 324.084 C 960.254 292.602 988.004 269.058 1020.47 266.061 C 1030.25 265.158 1040.65 268.11 1048.38 259.799 C 1051.49 256.514 1053.04 252.051 1052.64 247.545 C 1051.35 232.865 1037.86 230.572 1025.84 231.42 C 966.541 235.812 911.491 284.435 916.67 346.727 C 916.821 348.483 917.001 350.236 917.21 351.986 z" fill="rgb(255,77,109)" transform="translate(0,0)"></path>
<path d="M 1100.9 206.144 C 1176.55 247.972 1204.37 342.947 1163.24 418.981 C 1122.11 495.014 1027.39 523.705 950.984 483.276 C 953.222 481.591 976.229 474.291 981.321 472.529 C 1019.67 459.264 1055.09 435.339 1079.14 402.236 C 1110.66 358.471 1122.83 303.679 1112.79 250.685 C 1110.04 236.225 1102.59 218.981 1100.9 206.144 z" fill="rgb(214,47,79)" transform="translate(0,0)"></path>
<path d="M 801.505 817.85 C 777.936 803.549 757.18 782.137 746.226 756.609 C 731.922 723.198 731.794 685.412 745.871 651.906 C 758.942 619.495 784.394 593.632 816.592 580.045 C 847.432 567.221 886.788 566.748 917.691 579.648 C 987.995 613.749 1020.69 690.042 985.569 762.097 C 970.339 793.576 943.043 817.571 909.871 828.639 C 875.996 840.013 838.969 837.282 807.129 821.06 C 805.028 819.992 803.493 819.087 801.505 817.85 z" fill="rgb(255,77,109)" transform="translate(0,0)"></path>
<path d="M 917.691 579.648 C 987.995 613.749 1020.69 690.042 985.569 762.097 C 970.339 793.576 943.043 817.571 909.871 828.639 C 875.996 840.013 838.969 837.282 807.129 821.06 C 805.028 819.992 803.493 819.087 801.505 817.85 C 805.002 815.388 815.128 812.132 819.59 811.038 C 913.292 788.058 971.049 686.083 925.892 596.948 C 923.367 591.963 920.236 585.961 918.034 580.515 L 917.691 579.648 z" fill="rgb(214,47,79)" transform="translate(0,0)"></path>
<path d="M 1117.61 817.596 C 972.662 721.129 1089.93 523.181 1232.95 579.196 C 1243.28 583.917 1251.73 588.087 1260.91 594.871 C 1345.89 657.695 1328.25 790.558 1227.76 827.55 C 1195.55 839.56 1159.85 838.018 1128.79 823.276 C 1124.93 821.461 1121.33 819.695 1117.61 817.596 z" fill="rgb(255,77,109)" transform="translate(0,0)"></path>
<path d="M 1232.95 579.196 C 1243.28 583.917 1251.73 588.087 1260.91 594.871 C 1345.89 657.695 1328.25 790.558 1227.76 827.55 C 1195.55 839.56 1159.85 838.018 1128.79 823.276 C 1124.93 821.461 1121.33 819.695 1117.61 817.596 C 1124.21 814.493 1138.5 810.079 1145.93 807.854 C 1227.2 783.515 1276.38 696.627 1248.33 615.244 C 1244.23 603.358 1237.36 591.878 1233.24 580.066 L 1232.95 579.196 z" fill="rgb(214,47,79)" transform="translate(0,0)"></path>
<path d="M 1274.69 1091.62 C 1213.58 1057.35 1189.93 981.272 1220.84 918.39 C 1251.75 855.509 1326.43 827.768 1390.89 855.222 C 1435.82 874.355 1466.5 916.745 1470.64 965.402 C 1474.77 1014.06 1451.69 1061.02 1410.64 1087.46 C 1369.59 1113.91 1317.28 1115.51 1274.69 1091.62 z" fill="rgb(255,77,109)" transform="translate(0,0)"></path>
<path d="M 1390.89 855.222 C 1435.82 874.355 1466.5 916.745 1470.64 965.402 C 1474.77 1014.06 1451.69 1061.02 1410.64 1087.46 C 1369.59 1113.91 1317.28 1115.51 1274.69 1091.62 C 1277.99 1089.99 1291.78 1086.06 1296.29 1084.61 C 1308.53 1080.77 1320.41 1075.86 1331.79 1069.93 C 1383.81 1042.87 1414.84 991.486 1413.76 932.791 C 1413.17 900.813 1405.56 882.687 1390.89 855.222 z" fill="rgb(214,47,79)" transform="translate(0,0)"></path>
<path d="M 959.083 1091.03 C 898.635 1056.45 875.5 980.826 906.257 918.346 C 937.014 855.866 1011.06 828.077 1075.33 854.894 C 1120.61 873.787 1151.65 916.26 1155.91 965.14 C 1160.17 1014.02 1136.93 1061.22 1095.6 1087.66 C 1054.27 1114.09 1001.67 1115.39 959.083 1091.03 z" fill="rgb(255,77,109)" transform="translate(0,0)"></path>
<path d="M 1075.33 854.894 C 1120.61 873.787 1151.65 916.26 1155.91 965.14 C 1160.17 1014.02 1136.93 1061.22 1095.6 1087.66 C 1054.27 1114.09 1001.67 1115.39 959.083 1091.03 C 967.185 1087.42 982.324 1083.36 991.395 1080.25 C 1071.11 1052.91 1119.18 966.182 1089.64 885.209 C 1085.81 874.72 1079.22 865.37 1075.33 854.894 z" fill="rgb(214,47,79)" transform="translate(0,0)"></path>
<path d="M 643.065 1091.17 C 620.396 1077.83 600.726 1057.17 589.549 1033.28 C 574.575 1001.04 573.157 964.143 585.614 930.849 C 612.746 857.51 690.269 827.782 761.826 855.181 C 832.509 891.211 860.79 968.825 823.411 1040.06 C 807.532 1070.23 780.239 1092.79 747.619 1102.71 C 713.63 1113.38 676.758 1109.71 645.545 1092.54 C 644.715 1092.09 643.889 1091.63 643.065 1091.17 z" fill="rgb(255,77,109)" transform="translate(0,0)"></path>
<path d="M 761.826 855.181 C 832.509 891.211 860.79 968.825 823.411 1040.06 C 807.532 1070.23 780.239 1092.79 747.619 1102.71 C 713.63 1113.38 676.758 1109.71 645.545 1092.54 C 644.715 1092.09 643.889 1091.63 643.065 1091.17 C 647.293 1088.79 671.075 1082.03 677.624 1079.72 C 756.336 1051.98 804.516 965.9 775.303 885.52 C 771.741 875.719 766.054 866.045 762.165 856.073 L 761.826 855.181 z" fill="rgb(214,47,79)" transform="translate(0,0)"></path>
<path d="M 802.971 1368.76 C 780.851 1355.6 760.153 1334.12 749.016 1310.81 C 733.747 1278.38 732.005 1241.21 744.175 1207.5 C 769.613 1137.4 845.953 1105.33 915.13 1130.74 C 983.727 1159.02 1016.34 1239 987.597 1307.53 C 974.192 1339.23 948.683 1364.27 916.735 1377.07 C 884.983 1389.84 849.454 1389.44 817.998 1375.96 C 813.25 1373.93 807.503 1371.25 802.971 1368.76 z" fill="rgb(255,77,109)" transform="translate(0,0)"></path>
<path d="M 915.13 1130.74 C 983.727 1159.02 1016.34 1239 987.597 1307.53 C 974.192 1339.23 948.683 1364.27 916.735 1377.07 C 884.983 1389.84 849.454 1389.44 817.998 1375.96 C 813.25 1373.93 807.503 1371.25 802.971 1368.76 C 810.58 1364.42 828.309 1359.5 837.628 1356.18 C 914.449 1328.85 962.762 1239.09 931.036 1161.53 C 927.425 1152.7 917.009 1138.71 915.13 1130.74 z" fill="rgb(214,47,79)" transform="translate(0,0)"></path>
<path d="M 1430.74 1367.53 C 1371.19 1332.42 1348.95 1257.23 1379.82 1195.37 C 1410.68 1133.51 1484.13 1106.07 1547.99 1132.53 C 1593.48 1151.37 1624.64 1194.02 1628.78 1243.08 C 1632.92 1292.13 1609.33 1339.4 1567.65 1365.6 C 1525.97 1391.79 1473.15 1392.54 1430.74 1367.53 z" fill="rgb(255,77,109)" transform="translate(0,0)"></path>
<path d="M 1547.99 1132.53 C 1593.48 1151.37 1624.64 1194.02 1628.78 1243.08 C 1632.92 1292.13 1609.33 1339.4 1567.65 1365.6 C 1525.97 1391.79 1473.15 1392.54 1430.74 1367.53 C 1435.26 1365.96 1442.03 1364.38 1446.75 1363.25 C 1535.22 1342.21 1592.19 1252.32 1562.72 1164.26 C 1559.13 1153.53 1552.71 1143.99 1548.37 1133.47 L 1547.99 1132.53 z" fill="rgb(214,47,79)" transform="translate(0,0)"></path>
<path d="M 1119.76 1368.94 C 1058.74 1335.15 1034.73 1259.59 1065.05 1196.77 C 1095.37 1133.95 1169.46 1105.74 1233.88 1132.48 C 1278.89 1151.17 1309.87 1193.23 1314.38 1241.75 C 1318.89 1290.28 1296.19 1337.32 1255.39 1363.98 C 1214.59 1390.65 1162.39 1392.55 1119.76 1368.94 z" fill="rgb(255,77,109)" transform="translate(0,0)"></path>
<path d="M 1233.88 1132.48 C 1278.89 1151.17 1309.87 1193.23 1314.38 1241.75 C 1318.89 1290.28 1296.19 1337.32 1255.39 1363.98 C 1214.59 1390.65 1162.39 1392.55 1119.76 1368.94 C 1130.65 1363.08 1152.48 1357.51 1165.76 1351.51 C 1237.2 1319.25 1276.1 1237.08 1248.45 1162.44 C 1244.57 1151.97 1238.75 1142.45 1233.88 1132.48 z" fill="rgb(214,47,79)" transform="translate(0,0)"></path>
<path d="M 487.874 1368.37 C 426.997 1333.8 403.907 1257.57 435.365 1195.03 C 466.824 1132.49 541.788 1105.58 605.84 1133.84 C 650.249 1153.44 680.243 1195.91 683.851 1244.32 C 687.459 1292.73 664.093 1339.18 623.08 1365.14 C 582.066 1391.1 530.082 1392.35 487.874 1368.37 z" fill="rgb(255,77,109)" transform="translate(0,0)"></path>
<path d="M 605.84 1133.84 C 650.249 1153.44 680.243 1195.91 683.851 1244.32 C 687.459 1292.73 664.093 1339.18 623.08 1365.14 C 582.066 1391.1 530.082 1392.35 487.874 1368.37 C 500.619 1362.62 513.11 1359.95 526.025 1354.85 C 567.151 1339.08 600.121 1307.31 617.392 1266.79 C 630.343 1236.12 632.593 1196.34 620.986 1164.83 C 616.985 1153.96 609.945 1144.57 605.84 1133.84 z" fill="rgb(214,47,79)" transform="translate(0,0)"></path>
<path d="M 1277.99 1644.18 C 1216.3 1610.14 1192.94 1533.16 1225.3 1470.58 C 1257.67 1408 1334 1382.58 1397.42 1413.26 C 1439.99 1433.85 1468.03 1475.92 1470.64 1523.14 C 1473.25 1570.36 1450.02 1615.27 1409.98 1640.42 C 1369.94 1665.58 1319.4 1667.02 1277.99 1644.18 z" fill="rgb(255,227,233)" transform="translate(0,0)"></path>
<path d="M 1397.42 1413.26 C 1439.99 1433.85 1468.03 1475.92 1470.64 1523.14 C 1473.25 1570.36 1450.02 1615.27 1409.98 1640.42 C 1369.94 1665.58 1319.4 1667.02 1277.99 1644.18 C 1293.78 1642.66 1322.66 1632.81 1336.91 1625.54 C 1373.69 1606.53 1401.42 1573.71 1414.03 1534.28 C 1423.71 1503.78 1422.69 1470.9 1411.13 1441.06 C 1407.48 1431.86 1402.04 1422.17 1397.42 1413.26 z" fill="rgb(255,77,109)" transform="translate(0,0)"></path>
<path d="M 964.293 1644.34 C 950.334 1632.83 935.798 1625.2 924.467 1610.11 C 844.078 1503.11 951.679 1359.14 1078.76 1409.53 C 1109.7 1423.6 1137.05 1455.29 1148.3 1486.7 C 1180.92 1577.71 1103.53 1674.5 1007.09 1659.47 C 994.964 1657.58 984.973 1654.99 973.814 1649.87 C 970.469 1648.34 967.281 1646.49 964.293 1644.34 z" fill="rgb(255,227,233)" transform="translate(0,0)"></path>
<path d="M 1078.76 1409.53 C 1109.7 1423.6 1137.05 1455.29 1148.3 1486.7 C 1180.92 1577.71 1103.53 1674.5 1007.09 1659.47 C 994.964 1657.58 984.973 1654.99 973.814 1649.87 C 970.469 1648.34 967.281 1646.49 964.293 1644.34 C 984.058 1640.62 1006.88 1633.3 1024.41 1623.8 C 1061.16 1603.95 1088.34 1570.09 1099.76 1529.92 C 1113.36 1482.68 1101.54 1450.42 1078.76 1409.53 z" fill="rgb(255,77,109)" transform="translate(0,0)"></path>
<path d="M 1595.88 1644.45 C 1533.79 1610.56 1510.27 1533.2 1542.98 1470.48 C 1575.69 1407.76 1652.59 1382.77 1715.92 1414.28 C 1757.97 1435.21 1785.44 1477.21 1787.75 1524.12 C 1790.06 1571.03 1766.85 1615.53 1727.06 1640.49 C 1687.27 1665.44 1637.1 1666.96 1595.88 1644.45 z" fill="rgb(255,227,233)" transform="translate(0,0)"></path>
<path d="M 1715.92 1414.28 C 1757.97 1435.21 1785.44 1477.21 1787.75 1524.12 C 1790.06 1571.03 1766.85 1615.53 1727.06 1640.49 C 1687.27 1665.44 1637.1 1666.96 1595.88 1644.45 C 1657.96 1630.59 1707.54 1601.47 1728.83 1538.33 C 1744.43 1492.08 1736.72 1456.51 1715.92 1414.28 z" fill="rgb(255,77,109)" transform="translate(0,0)"></path>
<path d="M 647.015 1644.02 C 585.879 1610.38 562.295 1534.42 593.63 1472.07 C 624.966 1409.72 699.999 1383.32 763.471 1412.31 C 806.688 1432.05 835.661 1473.83 838.998 1521.22 C 842.336 1568.62 819.504 1614.05 779.48 1639.65 C 739.456 1665.25 688.641 1666.92 647.015 1644.02 z" fill="rgb(255,227,233)" transform="translate(0,0)"></path>
<path d="M 763.471 1412.31 C 806.688 1432.05 835.661 1473.83 838.998 1521.22 C 842.336 1568.62 819.504 1614.05 779.48 1639.65 C 739.456 1665.25 688.641 1666.92 647.015 1644.02 C 703.028 1638.28 753.125 1602.56 775.757 1550.93 C 791.177 1516.11 791.878 1476.55 777.701 1441.21 C 774.411 1432.96 765.265 1418.54 763.471 1412.31 z" fill="rgb(255,77,109)" transform="translate(0,0)"></path>
<path d="M 328.984 1644.15 C 305.674 1628 287.156 1613.08 275.325 1586.42 C 245.759 1519.78 273.052 1441.13 340.286 1410.91 C 376.642 1394.57 408.661 1397.34 444.705 1410.6 C 473.718 1423.43 501.245 1455.48 512.619 1485.13 C 524.968 1516.78 524.024 1552.07 510.003 1583.01 C 480.053 1649.05 406.618 1678.33 339.271 1649.94 C 335.726 1648.44 332.222 1646.22 328.984 1644.15 z" fill="rgb(255,227,233)" transform="translate(0,0)"></path>
<path d="M 444.705 1410.6 C 473.718 1423.43 501.245 1455.48 512.619 1485.13 C 524.968 1516.78 524.024 1552.07 510.003 1583.01 C 480.053 1649.05 406.618 1678.33 339.271 1649.94 C 335.726 1648.44 332.222 1646.22 328.984 1644.15 C 421.884 1629.15 490.349 1549.75 464.465 1452.7 C 460.367 1437.33 452.994 1424.1 444.705 1410.6 z" fill="rgb(255,77,109)" transform="translate(0,0)"></path>
<metadata><recraft-signature>{"signed_by": "recraft", "signature_b64": "JQzSaKlTyVxJnx6jhs+klQ9yMCWWjqNIlb+8wCpUrZpBU4dxho362gClrv4BoBuL0o8Kr8GVeE10XbdtQTaUCg==", "signing_algo": "Ed25519", "generation_timestamp": 1781580627, "identifier": "1cbbf3cf-b806-462b-ab22-baf3fdba0252"}</recraft-signature></metadata></svg>